<svg xmlns="http://www.w3.org/2000/svg" viewBox="0 0 231.25 105.43"><defs><style>.cls-1,.cls-2{fill:#b1a693;}.cls-2{fill-rule:evenodd;}.cls-3{fill:#464449;}</style></defs><title>logo_ar</title><g id="Layer_2" data-name="Layer 2"><g id="Layer_1-2" data-name="Layer 1"><path class="cls-1" d="M218.36,74.27A19.39,19.39,0,0,1,199,92.6h-1.57a19.39,19.39,0,0,1-19.33-18.33H165.28a32.21,32.21,0,0,0,32.19,31.17H199a32.21,32.21,0,0,0,32.19-31.17Z"/><path class="cls-2" d="M165.25,5V66h66V5a5,5,0,0,0-5-5h-56A5,5,0,0,0,165.25,5Zm33,44.17a7.55,7.55,0,1,1,7.55-7.55A7.55,7.55,0,0,1,198.25,49.17Zm0-17.23a7.55,7.55,0,1,1,7.55-7.55A7.55,7.55,0,0,1,198.25,31.94Z"/><path class="cls-3" d="M133.51,58.22h-18V30.72h-8v36.5a8,8,0,0,1-8,8H96v8h3.5a16,16,0,0,0,16-16v-1h18a8,8,0,0,0,8-8V30.72h-8Z"/><circle class="cls-3" cx="139.02" cy="18.93" r="4.15"/><circle class="cls-3" cx="129.56" cy="18.93" r="4.15"/><circle class="cls-3" cx="42.83" cy="78.7" r="4.15"/><circle class="cls-3" cx="33.36" cy="78.7" r="4.15"/><circle class="cls-3" cx="15.49" cy="18.93" r="4.15"/><path class="cls-3" d="M79.55,28.63A20,20,0,0,0,61.26,40.56l-.08,0L55.64,53.67a8,8,0,0,1-7.37,4.89H45.5V30.72h-8v27.5h-18V30.72h-8v36.5a8,8,0,0,1-8,8H0v8H3.5a16,16,0,0,0,16-16v-1h18a7.94,7.94,0,0,0,3.65-.89,7.81,7.81,0,0,0,4.22,1.24h2.9a16,16,0,0,0,13.9-8.09A20,20,0,1,0,79.55,28.63Zm0,32a12,12,0,1,1,12-12A12,12,0,0,1,79.55,60.63Z"/></g></g></svg>