<svg version="1" xmlns="http://www.w3.org/2000/svg" width="562.667" height="562.667" viewBox="0 0 422.000000 422.000000" preserveAspectRatio="xMidYMid meet"><metadata>Created by potrace 1.11, written by Peter Selinger 2001-2013</metadata><g fill="#000" stroke="none"><path d="M905 4201 c-48 -22 -79 -54 -100 -103 -13 -33 -15 -181 -15 -1278 l0 -1240 1320 0 1320 0 0 1240 c0 1097 -2 1245 -15 1278 -21 49 -52 81 -100 103 -38 18 -93 19 -1205 19 -1112 0 -1167 -1 -1205 -19z m1330 -685 c62 -29 117 -83 147 -144 18 -37 23 -63 23 -127 0 -94 -21 -149 -80 -209 -146 -148 -394 -106 -487 83 -31 63 -31 185 0 252 69 148 250 214 397 145z m-1 -690 c113 -52 170 -143 170 -271 1 -96 -21 -150 -86 -211 -153 -146 -387 -104 -481 86 -32 65 -31 186 1 252 39 78 128 151 201 165 14 2 27 6 29 7 10 11 124 -8 166 -28z" transform="translate(0.000000,422.000000) scale(0.100000,-0.100000)"/><path d="M794 1183 c31 -367 210 -691 506 -919 154 -119 331 -198 540 -240 90 -19 375 -25 477 -11 273 37 531 165 723 357 95 95 117 121 157 182 15 24 33 48 39 55 34 36 140 287 158 373 21 100 25 126 32 202 l6 68 -259 0 -260 0 -6 -59 c-24 -229 -183 -461 -397 -578 -50 -28 -198 -86 -210 -83 -3 0 -30 -2 -60 -6 -249 -32 -466 25 -647 168 -155 123 -278 351 -282 526 l-1 32 -261 0 -261 0 6 -67z" transform="translate(0.000000,422.000000) scale(0.100000,-0.100000)"/></g></svg>