<svg xmlns="http://www.w3.org/2000/svg" viewBox="0 0 347 105.43"><defs><style>.cls-3{fill:#464449}</style></defs><g id="Layer_2" data-name="Layer 2"><g id="Layer_1-2" data-name="Layer 1"><path d="M53.11 74.27A19.39 19.39 0 0 1 33.78 92.6h-1.57a19.39 19.39 0 0 1-19.33-18.33H0a32.21 32.21 0 0 0 32.19 31.17h1.57A32.21 32.21 0 0 0 66 74.27z" fill="#b1a693"/><path d="M0 5v61h66V5a5 5 0 0 0-5-5H5a5 5 0 0 0-5 5zm33 44.17a7.55 7.55 0 1 1 7.55-7.55A7.55 7.55 0 0 1 33 49.17zm0-17.23a7.55 7.55 0 1 1 7.55-7.55A7.55 7.55 0 0 1 33 31.94z" fill-rule="evenodd" fill="#b1a693"/><path class="cls-3" d="M100.79 29.12h7.43v6.71h-7.43V66h-7.73V35.83h-6.3v-6.71h6.3v-14h7.72zM137.44 60.7c-2.32 4-7.42 6.08-11.77 6.08-9.45 0-17.77-7.5-17.77-19.26s8.33-19.18 17.77-19.18c4.2 0 9.37 1.82 11.77 6v-5.22h7.65V66h-7.65zm-10.87-1.82c5.7 0 10.8-4.18 10.8-11.45a10.77 10.77 0 0 0-10.8-11.21c-5.85 0-10.72 4.42-10.72 11.21s4.87 11.45 10.72 11.45zM157.74 66H150V29.12h7.72v8.45c1.8-6.55 5.25-9.24 9.6-9.24a12.68 12.68 0 0 1 6.23 1.42l-1.28 7.5a10.69 10.69 0 0 0-5.16-1.25c-6.6 0-9.38 6.95-9.38 16.73zM209.29 46.17V66h-7.72V45.3c-.07-5.68-3-9-7.12-9-4.5 0-8.85 2.68-8.85 9.87V66h-7.72V29.12h7.72v5.53c2.33-5.13 8.25-6.31 11-6.31 5.55 0 9.07 2.68 11 7.34 3.3-6.39 8.55-7.34 11.77-7.34 8.62 0 13.5 5.92 13.5 16.42V66h-7.72V45.46c0-5.76-2.93-9.16-7.43-9.16-5.05 0-8.43 3.95-8.43 9.87zM272.87 50.43H245c.75 5.68 5.1 9.24 10.72 9.24a10.67 10.67 0 0 0 9.52-5.29c1.95.95 4.27 2 6.3 2.92-3.07 6.47-9.6 9.47-16.2 9.47-10 0-18-7.66-18-19.34s8-19.1 18-19.1 17.55 7.42 17.55 19.1c.06.87.06 2.21-.02 3zm-7.5-5.92c-.75-5.76-4.72-9.08-10-9.08A10 10 0 0 0 245 44.51zM312.72 50.43h-27.83c.75 5.68 5.1 9.24 10.72 9.24a10.67 10.67 0 0 0 9.52-5.29c1.95.95 4.27 2 6.3 2.92-3.07 6.47-9.6 9.47-16.2 9.47-10 0-18-7.66-18-19.34s8-19.1 18-19.1 17.55 7.42 17.55 19.1c.01.87.01 2.21-.06 3zm-7.5-5.92c-.75-5.76-4.72-9.08-10-9.08a10 10 0 0 0-10.35 9.08zM347 29.12v6.47l-20.1 22.74H347V66h-31v-6.49l19.8-22.73h-18.6v-7.66z"/></g></g></svg>