<svg xmlns="http://www.w3.org/2000/svg" viewBox="0 0 325.34 88.79"><defs><style>.e00a8475-38a2-4957-81fc-c4e1cde56c60{fill:#236092;}.b9fe8bfa-6a86-43b0-a6bd-88218137989a{fill:#ea0029;}</style></defs><g id="e3f096d6-a639-4de7-a9a1-3a3e26bca4b1" data-name="Layer 2"><g id="f01d5a18-9de0-482d-abf5-1cc20bf379b5" data-name="Layer 1"><path class="e00a8475-38a2-4957-81fc-c4e1cde56c60" d="M17.54,38.25,16,38.53a11,11,0,0,1-1.81.14,18.47,18.47,0,0,1-1.85-.09,6.17,6.17,0,0,1-2-.48,4.07,4.07,0,0,1-1.6-1.24A3.79,3.79,0,0,1,8,34.44,3.72,3.72,0,0,1,9.77,31,9,9,0,0,1,14.46,30a14.32,14.32,0,0,1,1.51.08c.56.07,1.09.14,1.57.22Zm4.81-22.62q-3.54-3-9.83-3a33.3,33.3,0,0,0-5,.42,32.39,32.39,0,0,0-5.32,1.34,11.51,11.51,0,0,0,.42,3.32,16.54,16.54,0,0,0,1.27,3,21.33,21.33,0,0,1,7-1.27,19.23,19.23,0,0,1,2.75.18,5.59,5.59,0,0,1,2.09.69,3.67,3.67,0,0,1,1.33,1.43A4.9,4.9,0,0,1,17.54,24v.72c-1.41-.12-2.7-.17-3.87-.17a23.23,23.23,0,0,0-4.83.5,14.24,14.24,0,0,0-4.39,1.7,9.45,9.45,0,0,0-3.21,3.14A9.07,9.07,0,0,0,0,34.81a10.86,10.86,0,0,0,1,4.9A8.51,8.51,0,0,0,3.84,43a12,12,0,0,0,4.42,1.81,26.81,26.81,0,0,0,5.65.55,35.24,35.24,0,0,0,6.84-.6,51.53,51.53,0,0,0,5.15-1.28V25.31q0-6.66-3.55-9.68"></path><path class="e00a8475-38a2-4957-81fc-c4e1cde56c60" d="M46.73,38a10.27,10.27,0,0,1-1.06.06,5.9,5.9,0,0,1-1.82-.24A2.27,2.27,0,0,1,42.68,37,4.42,4.42,0,0,1,42,35.17a17.46,17.46,0,0,1-.21-3V.39A24.89,24.89,0,0,0,37.56,0a25.29,25.29,0,0,0-4.29.37V34q0,5.81,2.82,8.38A10.64,10.64,0,0,0,43.56,45c.76,0,1.59,0,2.51-.12a12.76,12.76,0,0,0,2.32-.42,3.82,3.82,0,0,0,.13-.88v-.88a18.86,18.86,0,0,0-.67-4.84,10.06,10.06,0,0,1-1.12.18"></path><path class="e00a8475-38a2-4957-81fc-c4e1cde56c60" d="M68.72,38.25l-1.57.28a11.16,11.16,0,0,1-1.82.14,18.42,18.42,0,0,1-1.84-.09,6.11,6.11,0,0,1-2-.48,4,4,0,0,1-1.6-1.24,3.79,3.79,0,0,1-.67-2.42A3.72,3.72,0,0,1,61,31,9,9,0,0,1,65.63,30a14.36,14.36,0,0,1,1.52.08c.56.07,1.09.14,1.57.22Zm4.81-22.62q-3.54-3-9.83-3a33.09,33.09,0,0,0-5,.42,32.13,32.13,0,0,0-5.32,1.34,11.51,11.51,0,0,0,.42,3.32,16.54,16.54,0,0,0,1.27,3,21.33,21.33,0,0,1,7-1.27,19.23,19.23,0,0,1,2.75.18,5.59,5.59,0,0,1,2.09.69,3.74,3.74,0,0,1,1.33,1.43A5,5,0,0,1,68.72,24v.72c-1.42-.12-2.71-.17-3.87-.17a23.33,23.33,0,0,0-4.84.5,14.24,14.24,0,0,0-4.39,1.7,9.51,9.51,0,0,0-3.2,3.14,9,9,0,0,0-1.25,4.88,10.86,10.86,0,0,0,1,4.9A8.43,8.43,0,0,0,55,43a12,12,0,0,0,4.42,1.81,26.74,26.74,0,0,0,5.65.55,35.21,35.21,0,0,0,6.83-.6,50.17,50.17,0,0,0,5.15-1.28V25.31q0-6.66-3.54-9.68"></path><path class="e00a8475-38a2-4957-81fc-c4e1cde56c60" d="M119.72,12.6a9,9,0,0,0-5.6,1.67,12.14,12.14,0,0,0-3.42,3.9q-2.06-5.57-9.38-5.57a9.39,9.39,0,0,0-3,.46,9.69,9.69,0,0,0-2.44,1.18,9.41,9.41,0,0,0-1.89,1.63,10,10,0,0,0-1.26,1.82c-.05-.29-.09-.63-.16-1s-.13-.81-.21-1.23-.17-.83-.27-1.21a3.4,3.4,0,0,0-.33-.88c-.57-.12-1.12-.21-1.64-.27A16.07,16.07,0,0,0,88.26,13a18.09,18.09,0,0,0-1.88.09,16.49,16.49,0,0,0-1.69.27V44.6a25.11,25.11,0,0,0,8.59,0V28.21a14.46,14.46,0,0,1,.48-4.11,6.47,6.47,0,0,1,1.3-2.46,4.1,4.1,0,0,1,1.85-1.17,7.28,7.28,0,0,1,2.06-.3,3.26,3.26,0,0,1,3.29,1.75,12.14,12.14,0,0,1,.82,5V44.6a25.11,25.11,0,0,0,8.59,0V27.73a12,12,0,0,1,.51-3.84,6,6,0,0,1,1.34-2.3,4.19,4.19,0,0,1,1.81-1.12,7,7,0,0,1,2-.3,3.25,3.25,0,0,1,3.29,1.75,12.31,12.31,0,0,1,.82,5V44.6a25.11,25.11,0,0,0,8.59,0V24.7c0-4.15-.84-7.21-2.51-9.16s-4.29-2.94-7.83-2.94"></path><path class="e00a8475-38a2-4957-81fc-c4e1cde56c60" d="M153.47,38.25l-1.58.28a11,11,0,0,1-1.81.14,18.42,18.42,0,0,1-1.84-.09,6.11,6.11,0,0,1-2-.48,4,4,0,0,1-1.6-1.24,3.85,3.85,0,0,1-.67-2.42A3.71,3.71,0,0,1,145.69,31a9,9,0,0,1,4.7-1.05,14,14,0,0,1,1.5.08c.57.07,1.1.14,1.58.22Zm4.81-22.62q-3.54-3-9.83-3a33.09,33.09,0,0,0-5,.42,32.13,32.13,0,0,0-5.32,1.34,11.51,11.51,0,0,0,.42,3.32,16.54,16.54,0,0,0,1.27,3,21.33,21.33,0,0,1,7-1.27,19.34,19.34,0,0,1,2.75.18,5.54,5.54,0,0,1,2.08.69A3.69,3.69,0,0,1,153,21.68a5,5,0,0,1,.48,2.36v.72c-1.41-.12-2.7-.17-3.87-.17a23.4,23.4,0,0,0-4.84.5,14.34,14.34,0,0,0-4.39,1.7,9.42,9.42,0,0,0-3.2,3.14,9,9,0,0,0-1.24,4.88,10.86,10.86,0,0,0,1,4.9A8.43,8.43,0,0,0,139.77,43a12,12,0,0,0,4.42,1.81,26.74,26.74,0,0,0,5.65.55,35.21,35.21,0,0,0,6.83-.6,50.17,50.17,0,0,0,5.15-1.28V25.31q0-6.66-3.54-9.68"></path><path class="e00a8475-38a2-4957-81fc-c4e1cde56c60" d="M188.25,14.6a11.86,11.86,0,0,0-.18-1.39,5.07,5.07,0,0,0-1.14-.19c-.53,0-1,0-1.4,0a7.78,7.78,0,0,0-4.84,1.47,15.73,15.73,0,0,0-3.26,3.37c0-.28-.1-.64-.16-1.07s-.13-.84-.21-1.26-.17-.83-.26-1.21a4.26,4.26,0,0,0-.34-.88c-.57-.12-1.14-.22-1.72-.3A13.34,13.34,0,0,0,173,13a16.28,16.28,0,0,0-1.78.09q-.82.09-1.74.27V44.66c.77.12,1.51.2,2.22.25s1.4.06,2.08.06,1.4,0,2.12-.06,1.46-.13,2.18-.25V29.78a13.47,13.47,0,0,1,.76-5.08,6.5,6.5,0,0,1,1.9-2.72,5.23,5.23,0,0,1,2.42-1.12,14.32,14.32,0,0,1,2.3-.21h1a8.37,8.37,0,0,1,1.48.12,17.64,17.64,0,0,0,.34-2.3c.06-.81.09-1.55.09-2.24s0-1.11-.07-1.63"></path><path class="e00a8475-38a2-4957-81fc-c4e1cde56c60" d="M320.86.15a27.82,27.82,0,0,0-4.42.36V45a28.19,28.19,0,0,0,4.48.36,28.69,28.69,0,0,0,4.42-.36V.51a29.05,29.05,0,0,0-4.48-.36"></path><path class="e00a8475-38a2-4957-81fc-c4e1cde56c60" d="M283.45,10.93V29.82a27.28,27.28,0,0,0,4.35.37,28,28,0,0,0,4.42-.37V10.93a26.17,26.17,0,0,0-8.77,0"></path><path class="e00a8475-38a2-4957-81fc-c4e1cde56c60" d="M302.72.4V29.09a18.09,18.09,0,0,1-.4,4.2,6.17,6.17,0,0,1-1.24,2.61A4.64,4.64,0,0,1,299,37.27a9.72,9.72,0,0,1-2.92.4,14,14,0,0,1-3.85-.44V33.59a26.81,26.81,0,0,1-4.42.37,26.17,26.17,0,0,1-4.35-.37V43a40,40,0,0,0,5.25,1.34,34.17,34.17,0,0,0,6.8.66,35.36,35.36,0,0,0,6.1-.51,11.69,11.69,0,0,0,5.13-2.11,10.79,10.79,0,0,0,3.51-4.72,21.52,21.52,0,0,0,1.31-8.27V.4a25.84,25.84,0,0,0-8.83,0"></path><path class="e00a8475-38a2-4957-81fc-c4e1cde56c60" d="M268,35.9a5.2,5.2,0,0,1-4.87,2.51,5.15,5.15,0,0,1-4.81-2.51q-1.49-2.51-1.48-7.23t1.48-7.22a5.15,5.15,0,0,1,4.81-2.51A5.2,5.2,0,0,1,268,21.45q1.49,2.51,1.48,7.22T268,35.9M274.49,17a13.12,13.12,0,0,0-4.72-3.48,16.1,16.1,0,0,0-6.65-1.27,15.89,15.89,0,0,0-6.62,1.27A12.89,12.89,0,0,0,251.84,17a14.9,14.9,0,0,0-2.78,5.23,21.58,21.58,0,0,0-.95,6.47c0,.62,0,1.22.08,1.82v1.66a17.31,17.31,0,0,1-.22,3,4.42,4.42,0,0,1-.66,1.78,2.29,2.29,0,0,1-1.18.88,6,6,0,0,1-1.62.24v0h-7.05a5.86,5.86,0,0,1-1.82-.24,2.3,2.3,0,0,1-1.18-.88,4.48,4.48,0,0,1-.67-1.78,18.66,18.66,0,0,1-.21-3V.36A25.8,25.8,0,0,0,229.34,0a26.45,26.45,0,0,0-4.3.36V34q0,5.82,2.81,8.38A10.64,10.64,0,0,0,235.33,45h10.06l1,0a10.68,10.68,0,0,0,7.48-2.57.52.52,0,0,1,.1-.11,14,14,0,0,0,2.49,1.42A16.39,16.39,0,0,0,263.12,45a16.61,16.61,0,0,0,6.65-1.24,12.82,12.82,0,0,0,4.72-3.45,14.3,14.3,0,0,0,2.78-5.18,21.59,21.59,0,0,0,.91-6.41,22.24,22.24,0,0,0-.91-6.47A14.28,14.28,0,0,0,274.49,17"></path><path class="e00a8475-38a2-4957-81fc-c4e1cde56c60" d="M286.73,6.87c.68-.2,1.35-.42,2-.66s1.35-.45,2.05-.63A8.1,8.1,0,0,1,293,5.29a5.63,5.63,0,0,1,1.91.31A7.11,7.11,0,0,1,297,7a8.86,8.86,0,0,0,1.55-2,11.52,11.52,0,0,0,1-2.23A7.2,7.2,0,0,0,296.9.8,9.08,9.08,0,0,0,293,0a7.85,7.85,0,0,0-2.15.29c-.7.18-1.4.39-2.09.63s-1.37.46-2,.66a7.23,7.23,0,0,1-2.05.31,6,6,0,0,1-2-.29A6.91,6.91,0,0,1,280.67.26a16.32,16.32,0,0,0-1.53,2,7,7,0,0,0-1,2.16,7.84,7.84,0,0,0,2.59,1.95,8.58,8.58,0,0,0,3.87.83,7,7,0,0,0,2.09-.31"></path><path class="e00a8475-38a2-4957-81fc-c4e1cde56c60" d="M204.43,12.6v3.11h0V40.47a10.33,10.33,0,0,1-.36,3,4.49,4.49,0,0,1-1,1.79,3.39,3.39,0,0,1-1.51.88,7,7,0,0,1-1.85.24,13.72,13.72,0,0,1-1.69-.12c-.57-.09-1-.17-1.45-.25a11.7,11.7,0,0,0-.85,2.94,21.29,21.29,0,0,0-.24,3.29,27.65,27.65,0,0,0,6,.67q5.49,0,8.41-2.57t2.9-8.38V19.14h4.12a15.76,15.76,0,0,0,.27-1.67,16.26,16.26,0,0,0,.09-1.66,14.43,14.43,0,0,0-.36-3.21Z"></path><path class="b9fe8bfa-6a86-43b0-a6bd-88218137989a" d="M181.49,68.24A21,21,0,0,1,178,58.55a9.82,9.82,0,0,1,0-1.67,28.72,28.72,0,0,0-4.56-.38,23.24,23.24,0,0,0-4,.37V57c.86,5.09,5.89,8.33,12.05,11.27"></path><path class="b9fe8bfa-6a86-43b0-a6bd-88218137989a" d="M229,56.5a26.49,26.49,0,0,0-4,.38,12.83,12.83,0,0,1,0,1.63,23.39,23.39,0,0,1-19.87,21,35.11,35.11,0,0,1-7.73.37,51.25,51.25,0,0,1-7.51-1.18,45,45,0,0,1-7.56-2.59,30.13,30.13,0,0,1-6.7-4,18.4,18.4,0,0,1-4.73-5.4,4.68,4.68,0,0,1-.4-.73,32.23,32.23,0,0,0,63-7.63l0-1.5A29,29,0,0,0,229,56.5"></path></g></g></svg>