<svg id="SPL_logo" data-name="SPL logo" xmlns="http://www.w3.org/2000/svg" width="112.432" height="80" viewBox="0 0 112.432 80">
  <rect id="Rectangle" width="112.432" height="80" fill="none"/>
  <path id="Shape" d="M7.666,36.076C2.52,36.076,0,33.5,0,28.411v-4.83L4.675,26.42V28.6c0,2.163,1.016,3.171,3.17,3.171h.2c2.162,0,3.171-1.016,3.171-3.171V25c0-2.1-.6-3.1-2.093-4.01l-5.1-3.1C.871,15.989.008,13.527.008,10.117V7.778C.008,2.573,2.579,0,7.786,0h.548C13.48,0,16,2.573,16,7.666v3.029L11.334,7.859V7.485c0-2.163-1.018-3.171-3.172-3.171h-.2c-2.163,0-3.171,1.016-3.171,3.171v2.578a4.021,4.021,0,0,0,2.162,4.008l5.036,3.038c3.249,1.959,4,4.182,4,7.773V28.3c0,5.2-2.573,7.778-7.778,7.778Zm32.69-6.559V.357h4.786V24.731h2.105v4.786Zm11.679,0V24.729H69.183l-2.907,4.786Zm-26.467,0H20.782V.366h9.57c1.558,0,4.448,1.057,5.394,5.018l.005.022c.014.055.028.113.041.175.04.182.079.386.111.59l.014.1c.008.058.017.118.025.176.028.231.051.458.068.674v.2c.019.318.027.581.027.825v4.14c0,.245-.008.508-.027.825v.2c-.019.229-.041.456-.068.672-.008.059-.017.118-.025.176l-.014.1c-.032.205-.068.4-.107.6-.006.028-.013.056-.02.085l-.007.033-.019.079c-.946,3.96-3.835,5.017-5.394,5.017H25.569v9.453h0Zm0-13.762h2.521a3.236,3.236,0,0,0,2.394-.778,3.23,3.23,0,0,0,.778-2.392V7.839c0-2.164-1.008-3.172-3.173-3.172H25.567Z" transform="translate(25.409 20.755)" fill="#00c8e1"/>
  <path id="Shape-2" data-name="Shape" d="M29.381,28.373l3.242-3.241,3.243,3.241-3.243,3.244ZM12.326,29.683C4.833,29.683,0,25.629,0,17.716V10.05l4.668,2.836v4.836c0,5.093,2.52,7.666,7.666,7.666h.548c5.2,0,7.778-2.573,7.778-7.779V0l4.79,2.9V18.821h4.784V9.368h4.786v9.453h5.217V11.287h4.786v7.534h6.891V11.287H56.7v7.534h1.614l7.452-.008c-.983,2.88-3.395,4.308-7.273,4.308H24.427c-1.695,3.891-5.523,6.562-11.552,6.562ZM61.488,14.035V9.368l4.786-2.909v7.575Z" transform="translate(20.741 31.45)" fill="#153c3f"/>
</svg>
