<svg id="Layer_1" data-name="Layer 1" xmlns="http://www.w3.org/2000/svg" viewBox="0 0 72.15 48.29"><defs><style>.cls-1{fill:#0a8041;}.cls-2{fill:#2a88c9;}.cls-3{fill:#010101;}</style></defs><title>kacst-logo-black-text</title><polygon class="cls-1" points="0 5.5 0 21.98 10.99 30.89 0 5.5"/><polygon class="cls-2" points="28.92 0 11.03 14.48 11.03 30.89 28.92 0"/><path class="cls-3" d="M70.94,35.18c.64,0,.94.77.94,1.48s-.25.83-.94.83-1-.21-1-.83.25-1.48,1-1.48M66.88,37.9h2a1,1,0,0,0,.93-.66,1.25,1.25,0,0,0,1.12.73c1,0,1.4-.39,1.4-1.31s-.48-2-1.4-2-1.32.91-1.39,1.7h0v0h0c0,.6-.27,1-.73,1H68a1.27,1.27,0,0,0,.25-.8A2.19,2.19,0,0,0,67.75,35a1.17,1.17,0,0,0-.87-.36h-.73v.47h.73a1,1,0,0,1,.61.16,2,2,0,0,1,.32,1.34c0,.69-.23.8-.94.8h-1v.5h1Z" transform="translate(-0.2 -0.2)"/><polygon class="cls-3" points="63.7 38.52 63.67 38.54 63.32 38.9 63.32 38.9 63.32 38.9 62.96 38.54 62.93 38.52 62.9 38.54 62.52 38.92 62.49 38.95 62.52 38.99 62.9 39.37 62.93 39.4 62.96 39.37 63.32 39.01 63.32 39.02 63.32 39.02 63.67 39.37 63.7 39.4 63.73 39.37 64.12 38.99 64.14 38.95 64.12 38.92 63.73 38.54 63.7 38.52"/><polygon class="cls-3" points="57.39 33.42 57.42 33.45 57.45 33.42 57.81 33.07 58.17 33.42 58.19 33.45 58.22 33.42 58.6 33.04 58.64 33.01 58.61 32.98 58.22 32.6 58.19 32.57 58.17 32.6 57.81 32.95 57.42 32.56 57.39 32.6 57.39 32.6 57.01 32.98 56.98 33.01 57.01 33.04 57.39 33.42"/><polygon class="cls-3" points="60.75 33.42 60.78 33.45 60.81 33.42 61.19 33.04 61.22 33.01 61.19 32.98 60.81 32.6 60.78 32.57 60.75 32.6 60.37 32.98 60.34 33.01 60.37 33.04 60.75 33.42"/><path class="cls-3" d="M40.53,34.82h.54v-.3h-.74c-.11,0-.18-.1-.18-.29a.83.83,0,0,1,.15-.6s.11,0,.19,0h.28v-.26h-.22c-.43,0-.65.45-.65.89a.5.5,0,0,0,.09.29h-.21v.3h.75Z" transform="translate(-0.2 -0.2)"/><path class="cls-3" d="M14.06,34.63h0v1.84a1.09,1.09,0,0,1-.17.72,2,2,0,0,1-1.33.31c-.69,0-.8-.22-.8-.94V34.68h0v0h-.5V38.3c0,.71-.11,1-.8,1h0v.46h0c.91,0,1.3-.44,1.3-1.41v-.59a1.26,1.26,0,0,0,.81.25,2.27,2.27,0,0,0,1.6-.52,1.2,1.2,0,0,0,.37-.88V34.63h-.43Z" transform="translate(-0.2 -0.2)"/><polygon class="cls-3" points="13.17 38.54 13.14 38.51 13.11 38.54 12.76 38.9 12.4 38.54 12.37 38.52 12.34 38.54 11.96 38.92 11.93 38.95 11.96 38.99 12.34 39.37 12.37 39.4 12.4 39.37 12.76 39.02 13.11 39.37 13.14 39.4 13.17 39.37 13.55 38.99 13.58 38.95 13.55 38.92 13.17 38.54"/><polygon class="cls-3" points="15.65 33.42 15.68 33.45 15.71 33.42 16.09 33.04 16.12 33.01 16.09 32.98 15.71 32.6 15.68 32.57 15.65 32.6 15.27 32.98 15.24 33.01 15.27 33.04 15.65 33.42"/><polygon class="cls-3" points="11.22 33.42 11.25 33.45 11.28 33.42 11.66 33.04 11.69 33.01 11.66 32.98 11.28 32.6 11.25 32.57 11.22 32.6 10.84 32.98 10.81 33.01 10.84 33.04 11.22 33.42"/><path class="cls-3" d="M55.61,46.45c-.7,0-1-.9-1-1.5s.25-.83,1-.83.94.13.94.83-.29,1.5-.94,1.5m0-2.8H54c-.91.05-1.82.52-1.8,1.45l0,3.28v0h.49v0l0-3.28V45c0-.18,0-.37.07-.47A1.92,1.92,0,0,1,54,44.11h.62a1.1,1.1,0,0,0-.31.39,2.24,2.24,0,0,0-.07.47c0,1,.47,2,1.39,2s1.4-1,1.4-2-.43-1.3-1.4-1.3" transform="translate(-0.2 -0.2)"/><polygon class="cls-3" points="40.38 42.39 40.41 42.36 40.77 42.01 41.12 42.36 41.15 42.39 41.18 42.36 41.56 41.98 41.59 41.95 41.56 41.92 41.18 41.54 41.15 41.51 41.12 41.54 40.77 41.89 40.41 41.53 40.38 41.51 40.35 41.54 39.97 41.92 39.94 41.95 39.97 41.98 40.35 42.36 40.38 42.39"/><polygon class="cls-3" points="31.67 47.05 31.64 47.02 31.61 47.05 31.26 47.41 30.89 47.05 30.87 47.02 30.84 47.05 30.45 47.44 30.42 47.47 30.45 47.5 30.84 47.88 30.87 47.91 30.89 47.88 31.25 47.52 31.25 47.53 31.26 47.52 31.61 47.88 31.64 47.91 31.67 47.88 32.05 47.5 32.08 47.47 32.05 47.44 31.67 47.05"/><polygon class="cls-3" points="27.48 41.95 27.54 42.01 27.93 42.39 27.98 42.45 28.05 42.39 28.4 42.04 28.73 42.36 28.76 42.39 28.79 42.36 29.17 41.98 29.2 41.95 29.17 41.92 28.79 41.54 28.76 41.51 28.73 41.54 28.37 41.89 27.95 41.48 27.89 41.53 27.9 41.54 27.54 41.89 27.48 41.95"/><polygon class="cls-3" points="37.61 41.95 37.64 41.98 38.02 42.36 38.05 42.39 38.08 42.36 38.44 42.01 38.79 42.36 38.82 42.39 38.85 42.36 39.23 41.98 39.26 41.95 39.23 41.92 38.85 41.54 38.82 41.51 38.79 41.54 38.44 41.89 38.05 41.5 37.99 41.56 37.99 41.56 37.64 41.92 37.61 41.95"/><polygon class="cls-3" points="34.12 41.51 34.08 41.54 33.7 41.92 33.67 41.95 33.7 41.98 34.08 42.36 34.12 42.39 34.14 42.36 34.53 41.98 34.55 41.95 34.53 41.92 34.14 41.54 34.12 41.51"/><path class="cls-3" d="M48.74,45.49v.93h-.51c-.47,0-.77-.5-.77-1.32s.33-1.22.75-1.22a.39.39,0,0,1,.31.11c.22.22.22.75.22,1.42Zm-.53-1.91c-.78,0-1.3.68-1.3,1.68s.4,1.67,1,1.67h.89v0h0V47c0,.71-.11.95-.8.95h0v.46h0c.91,0,1.3-.44,1.3-1.41v-.51h0V44.75a1.12,1.12,0,0,0-1.1-1.17" transform="translate(-0.2 -0.2)"/><path class="cls-3" d="M19.38,37.08a4.07,4.07,0,0,1-.92-1.59c.31-.37,1.06-.34,1.5-.23.28.07.32.19.32.19h0v0a4.62,4.62,0,0,1-.92,1.6m3.09-4.51h0v4.12a.69.69,0,0,1-.08.47A2.11,2.11,0,0,1,21,37.5a3.52,3.52,0,0,1-1.35-.15,4.81,4.81,0,0,0,.74-1s.48-.73.25-1.23a.91.91,0,0,0-.81-.44,3.69,3.69,0,0,0-.95,0h0a.93.93,0,0,0-.86.44c-.24.49.2,1.18.22,1.21a3.81,3.81,0,0,0,.81,1,4.14,4.14,0,0,1-1.63.18H17.2c-.85,0-1-.23-1.11-.74V34.64h-.5V38.3c0,.71-.12,1-.8,1h0v.46h0c.91,0,1.3-.44,1.3-1.41v-.62A2,2,0,0,0,17.2,38,4.08,4.08,0,0,0,19,37.71h0a2.13,2.13,0,0,0,.41-.18,2.53,2.53,0,0,0,1.29.42v0H21c.92,0,1.91-.47,1.91-1.41v-4h-.45Z" transform="translate(-0.2 -0.2)"/><path class="cls-3" d="M49.15,37.47c-.72,0-1-.21-1-.83s.26-1.5,1-1.5.94.78.94,1.5-.25.83-.94.83m4.19-.92v-4h-.49v4.12a.64.64,0,0,1-.09.47,2,2,0,0,1-1.35.34h-.05c-.69,0-.77-.25-.83-1v0h0c0-.9-.49-1.85-1.39-1.85-.67,0-1.17.53-1.34,1.44h0v0l-.06.55h0v.11a.43.43,0,0,1-.09.37,2,2,0,0,1-1.33.34c-.68,0-.74-.25-.79-1v-4H45v4.12a.69.69,0,0,1-.08.47,2,2,0,0,1-1.28.34H43.6c-.69,0-.74-.25-.8-1v-4h-.49v4a.61.61,0,0,0,0,.14c0,.18,0,.37-.09.47a2,2,0,0,1-1.35.34H38.52c-.69,0-.77-.26-.82-.93a2,2,0,0,1,.34-1.3,1,1,0,0,1,.6-.17h0v0l0-.38h0v0h-.05c-.94,0-1.38,1-1.41,1.91h0v.05h0c0,.95.4,1.36,1.27,1.36H40.9a2.26,2.26,0,0,0,1.63-.69A1,1,0,0,0,43.6,38h.1a2,2,0,0,0,1.56-.68,1,1,0,0,0,1.06.68A1.83,1.83,0,0,0,48,37.18a1.26,1.26,0,0,0,1.14.78,1.15,1.15,0,0,0,1.16-.66,1,1,0,0,0,1.06.66h.06c.92,0,1.91-.47,1.91-1.41" transform="translate(-0.2 -0.2)"/><path class="cls-3" d="M58.26,37.49c-.72,0-.95-.2-.95-.81s.25-1.48.95-1.48.81.67.87,1h0l0,.61c0,.56-.24.73-.9.73m1.17,0a1.19,1.19,0,0,0,1,.44,2.05,2.05,0,0,0,1.72-.7,1.07,1.07,0,0,0,1.08.7,2.25,2.25,0,0,0,1.61-.54,1.17,1.17,0,0,0,.36-.87V34.63h-.48v1.93a1,1,0,0,1-.16.61,2,2,0,0,1-1.34.31c-.69,0-.8-.23-.8-.94v-2h-.5v2a1,1,0,0,1-.17.61,2,2,0,0,1-1.33.31c-.69,0-.8-.23-.8-.94h0v-.11h0l0,0h0c0-.41-.27-1.73-1.33-1.73s-1.38,1.25-1.38,2.1S57.23,38,58.25,38c.56,0,1-.08,1.18-.44" transform="translate(-0.2 -0.2)"/><path class="cls-3" d="M28.82,46.43c-.71,0-.95-.2-.95-.81s.25-1.49.95-1.49.94.77.94,1.49-.25.81-.94.81M38.54,44h.15c.55.08.89.48,1,1.19a1,1,0,0,1-.12.8,1.41,1.41,0,0,1-1,.5,1.45,1.45,0,0,1-1-.49,1.08,1.08,0,0,1-.13-.81c.14-.71.48-1.11,1-1.19m6.15-2.65H44.2v4.27c0,.18,0,.37-.08.47a2,2,0,0,1-1.36.34h-.05c-.65,0-.74-.25-.8-.76v-.1a.41.41,0,0,0,0-.12V43.58h-.49v2c0,.18,0,.37-.08.47a2.66,2.66,0,0,1-1.42.44l-.53,0a1.42,1.42,0,0,0,.68-1.37,1.58,1.58,0,0,0-.66-1.37h0l-.05,0,0,0h0a1.39,1.39,0,0,0-.63-.15H38.5a1.52,1.52,0,0,0-.65.16h0l0,0h0a1.56,1.56,0,0,0-.66,1.39,1.43,1.43,0,0,0,.67,1.37,4.55,4.55,0,0,1-.53,0,2.74,2.74,0,0,1-1.45-.44c-.1-.1-.09-.29-.08-.47v-2h-.49v1.94a.94.94,0,0,1-.16.6,1.93,1.93,0,0,1-1.34.31c-.68,0-.8-.23-.8-.94v-2h-.5v2a.94.94,0,0,1-.17.61,1.89,1.89,0,0,1-1.33.31c-.68,0-.79-.23-.8-.94v-.1l0-.07c0-.41-.26-1.73-1.32-1.73s-1.39,1.26-1.39,2.1.36,1.21,1.39,1.21c.6,0,1-.09,1.21-.47a1,1,0,0,0,.94.47,2.1,2.1,0,0,0,1.72-.69,1.08,1.08,0,0,0,1.08.69,2.1,2.1,0,0,0,1.66-.64c.22.36.75.52,2,.61a4.72,4.72,0,0,0,1.18,0,4.63,4.63,0,0,0,1.17,0c1.14-.08,1.67-.22,1.92-.5a1.08,1.08,0,0,0,1,.51h.06c.92,0,1.91-.47,1.91-1.4V41.34Z" transform="translate(-0.2 -0.2)"/><path class="cls-3" d="M58.93,44a.4.4,0,0,1,.31.12c.22.21.22.75.22,1.41v1H59c-.47,0-.77-.51-.77-1.33s.33-1.22.75-1.22m6.73,2.17a4.06,4.06,0,0,1-.92-1.59,1.6,1.6,0,0,1,1.49-.23c.28.07.33.19.33.19h0l0,0a4.91,4.91,0,0,1-.92,1.6m6.18-4.71h0v4.27c0,.18,0,.37-.08.47a2,2,0,0,1-1.28.34h-.09c-.65,0-.73-.23-.79-.88V41.45H69.1v4.1s0,0,0,0v.13a.64.64,0,0,1-.09.47,2,2,0,0,1-1.35.34h-.36A3.51,3.51,0,0,1,66,46.4a5,5,0,0,0,.75-1s.48-.72.24-1.22a.91.91,0,0,0-.8-.44,2.73,2.73,0,0,0-1,0h0a.94.94,0,0,0-.86.44c-.24.48.21,1.18.23,1.21a3.64,3.64,0,0,0,.8,1,2.68,2.68,0,0,1-1.26.18h-.16c-.73,0-1.49-.29-1.56-.93h0v-4h-.49v4h0v0h0v.08c0,.52-.3.83-.69.83H60V44.84a1.11,1.11,0,0,0-1.1-1.17c-.78,0-1.3.68-1.3,1.68S58,47,58.63,47h.9v.08c0,.71-.11.94-.8.94h0v.47h0c.91,0,1.3-.43,1.3-1.4V47h1.26a1,1,0,0,0,.93-.67,2.47,2.47,0,0,0,1.72.66,2.32,2.32,0,0,0,1.44-.3l.05,0a1.22,1.22,0,0,0,.24-.1A2.48,2.48,0,0,0,67,47v0h.21l.51,0a2.19,2.19,0,0,0,1.62-.68,1,1,0,0,0,1.06.65h.1c.89,0,1.83-.47,1.83-1.41V41.42h-.45Z" transform="translate(-0.2 -0.2)"/><polygon class="cls-3" points="23.46 32.37 23.41 32.37 23.41 32.41 23.41 37.72 23.41 37.77 23.46 37.77 23.84 37.77 23.88 37.77 23.88 37.72 23.88 32.41 23.88 32.37 23.84 32.37 23.46 32.37"/><polygon class="cls-3" points="54.27 37.77 54.31 37.77 54.31 37.72 54.31 32.41 54.31 32.37 54.27 32.37 53.88 32.37 53.84 32.37 53.84 32.41 53.84 37.72 53.84 37.77 53.88 37.77 54.27 37.77"/><polygon class="cls-3" points="45.22 41.19 45.18 41.19 45.18 41.23 45.18 46.55 45.18 46.59 45.22 46.59 45.6 46.59 45.64 46.59 45.64 46.55 45.64 41.23 45.64 41.19 45.6 41.19 45.22 41.19"/><polygon class="cls-3" points="28.22 39.18 28.25 39.15 28.64 38.77 28.67 38.74 28.64 38.7 28.25 38.32 28.22 38.29 28.19 38.32 27.81 38.7 27.78 38.74 27.81 38.77 28.19 39.15 28.22 39.18"/><path class="cls-3" d="M28.46,38A2.07,2.07,0,0,0,30,37.24a1,1,0,0,0,1.06.67h3.35v-.47H33.37c-.69,0-.78-.26-.83-.94v-.85a.63.63,0,0,1,.63-.63h.33a.63.63,0,0,1,.62.63v.16h.43v-.23a1,1,0,0,0-1-1H33.1a1,1,0,0,0-1,1v.92a1.76,1.76,0,0,0,.22.94H31.09c-.68,0-.74-.24-.79-.93V34.6H29.8v1.92a.66.66,0,0,0,0,.14c0,.18,0,.37-.09.47a1.9,1.9,0,0,1-1.27.33H27.29a1.34,1.34,0,0,0,.26-.8A2.24,2.24,0,0,0,27,35.05a1.19,1.19,0,0,0-.87-.36h-.73v.47h.73a1,1,0,0,1,.61.16,2,2,0,0,1,.32,1.34c0,.68-.23.8-.94.8h-1V38h3.32Z" transform="translate(-0.2 -0.2)"/><path class="cls-3" d="M15.05,43.58a7,7,0,0,0,.16-.74l.07-.34.1.46c0,.2.09.4.14.62,0,.05.34,1.22.38,1.37l0,.08H14.65Zm1,1.9L16.45,47h.49l-1.35-4.87H15L13.67,47h.48l.41-1.55Z" transform="translate(-0.2 -0.2)"/><polygon class="cls-3" points="26.59 41.96 23.69 41.96 23.69 42.45 24.9 42.45 24.9 46.83 25.37 46.83 25.37 42.45 26.59 42.45 26.59 41.96"/><path class="cls-3" d="M12.65,47h.56l-1.55-2.81,1.43-2.06h-.58L11.24,44.1c-.06.09-.13.2-.19.31l-.13.24V42.16h-.46V47h.46V45.17l.41-.59Z" transform="translate(-0.2 -0.2)"/><path class="cls-3" d="M19.21,47.1a2.16,2.16,0,0,0,1-.21l-.09-.46a1.78,1.78,0,0,1-.83.19c-1,0-1.55-.75-1.55-2s.61-2,1.58-2a1.59,1.59,0,0,1,.79.19l.12-.47a1.85,1.85,0,0,0-.92-.2c-1.24,0-2.06,1-2.06,2.55S18,47.1,19.21,47.1" transform="translate(-0.2 -0.2)"/><path class="cls-3" d="M22.34,44.29c-.61-.29-.81-.54-.81-1a.73.73,0,0,1,.78-.76,1.45,1.45,0,0,1,.74.21l.12-.46a1.53,1.53,0,0,0-.85-.22,1.23,1.23,0,0,0-1.26,1.31,1.44,1.44,0,0,0,1,1.37c.55.26.77.54.77,1a.8.8,0,0,1-.87.87,1.51,1.51,0,0,1-.9-.31L21,46.8a1.76,1.76,0,0,0,1,.3,1.3,1.3,0,0,0,1.37-1.39,1.45,1.45,0,0,0-1-1.42" transform="translate(-0.2 -0.2)"/></svg>