<svg xmlns="http://www.w3.org/2000/svg" viewBox="0 0 66.52 71.54"><defs><style>.cls-1{fill:#979797}</style></defs><g id="Layer_2" data-name="Layer 2"><g id="Layer_1-2" data-name="Layer 1"><path class="cls-1" d="M66.52.74a.68.68 0 0 1-.06.29.76.76 0 0 1-.15.23.73.73 0 0 1-.23.16.64.64 0 0 1-.28.06.71.71 0 0 1-.28-.06.73.73 0 0 1-.23-.16.76.76 0 0 1-.15-.26.88.88 0 0 1 0-.29.93.93 0 0 1 0-.29.76.76 0 0 1 .15-.23.73.73 0 0 1 .23-.16.71.71 0 0 1 .28-.03.64.64 0 0 1 .28.06.73.73 0 0 1 .23.16.76.76 0 0 1 .15.23.72.72 0 0 1 .06.29zM66.52 7.75a.72.72 0 0 1-.06.29 1.14 1.14 0 0 1-.15.23.73.73 0 0 1-.23.16.64.64 0 0 1-.28.06.71.71 0 0 1-.28-.06.73.73 0 0 1-.23-.16 1.14 1.14 0 0 1-.15-.27.87.87 0 0 1 0-.58 1 1 0 0 1 .15-.24.73.73 0 0 1 .23-.16.69.69 0 0 1 .28 0 .64.64 0 0 1 .28 0 .73.73 0 0 1 .23.16 1 1 0 0 1 .15.24.72.72 0 0 1 .06.33zM66.52 14.75a.68.68 0 0 1-.06.29 1 1 0 0 1-.15.24.7.7 0 0 1-.23.15.64.64 0 0 1-.28.06.77.77 0 0 1-.51-.21 1 1 0 0 1-.15-.24.88.88 0 0 1 0-.29.93.93 0 0 1 0-.29.76.76 0 0 1 .15-.23.73.73 0 0 1 .23-.16.71.71 0 0 1 .28-.07.64.64 0 0 1 .28.06.73.73 0 0 1 .23.16.76.76 0 0 1 .15.23.72.72 0 0 1 .06.3zM66.52 21.76a.72.72 0 0 1-.06.29.91.91 0 0 1-.15.23.73.73 0 0 1-.23.16.64.64 0 0 1-.28.06.71.71 0 0 1-.28-.06.73.73 0 0 1-.23-.16.91.91 0 0 1-.15-.23.87.87 0 0 1 0-.58 1 1 0 0 1 .15-.24.77.77 0 0 1 .51-.23.64.64 0 0 1 .28.06.7.7 0 0 1 .23.15 1 1 0 0 1 .15.24.72.72 0 0 1 .06.31zM66.52 28.77a.64.64 0 0 1-.06.28 1 1 0 0 1-.15.24.7.7 0 0 1-.23.15.64.64 0 0 1-.28.06.77.77 0 0 1-.51-.21 1 1 0 0 1-.15-.24.82.82 0 0 1 0-.28.88.88 0 0 1 0-.29.82.82 0 0 1 .15-.24.73.73 0 0 1 .23-.16.71.71 0 0 1 .28-.08.64.64 0 0 1 .28.06.73.73 0 0 1 .23.16.82.82 0 0 1 .15.24.68.68 0 0 1 .06.31zM66.52 35.77a.68.68 0 0 1-.06.29.76.76 0 0 1-.15.23.73.73 0 0 1-.23.16.64.64 0 0 1-.28.06.71.71 0 0 1-.28-.06.73.73 0 0 1-.23-.16.76.76 0 0 1-.15-.23.88.88 0 0 1 0-.29.93.93 0 0 1 0-.29.76.76 0 0 1 .15-.23.73.73 0 0 1 .23-.16.71.71 0 0 1 .28-.09.64.64 0 0 1 .28.06.73.73 0 0 1 .23.16.76.76 0 0 1 .15.23.72.72 0 0 1 .06.32zM66.52 42.78a.72.72 0 0 1-.06.29 1.14 1.14 0 0 1-.15.23.94.94 0 0 1-.23.16.64.64 0 0 1-.28 0 .69.69 0 0 1-.28 0 .94.94 0 0 1-.23-.16 1.14 1.14 0 0 1-.15-.23.93.93 0 0 1 0-.29.88.88 0 0 1 0-.29 1 1 0 0 1 .15-.24.73.73 0 0 1 .23-.16.71.71 0 0 1 .28-.09.64.64 0 0 1 .28.06.73.73 0 0 1 .23.16 1 1 0 0 1 .15.24.68.68 0 0 1 .06.32zM66.52 49.78a.68.68 0 0 1-.06.29.76.76 0 0 1-.15.23.73.73 0 0 1-.23.16.64.64 0 0 1-.28.06.71.71 0 0 1-.28-.06.73.73 0 0 1-.23-.16.76.76 0 0 1-.15-.23.88.88 0 0 1 0-.29.93.93 0 0 1 0-.29.76.76 0 0 1 .15-.23.73.73 0 0 1 .23-.16.71.71 0 0 1 .28-.1.64.64 0 0 1 .28.06.73.73 0 0 1 .23.16.76.76 0 0 1 .15.23.72.72 0 0 1 .06.33zM66.52 56.79a.72.72 0 0 1-.06.29.91.91 0 0 1-.15.23.73.73 0 0 1-.23.16.64.64 0 0 1-.28.06.71.71 0 0 1-.28-.06.73.73 0 0 1-.23-.16.91.91 0 0 1-.15-.23.87.87 0 0 1 0-.58 1 1 0 0 1 .15-.24.94.94 0 0 1 .23-.16.92.92 0 0 1 .28-.05.82.82 0 0 1 .28.05.94.94 0 0 1 .23.16 1 1 0 0 1 .15.24.72.72 0 0 1 .06.29zM66.52 63.79a.68.68 0 0 1-.06.29 1 1 0 0 1-.15.24.91.91 0 0 1-.23.15.64.64 0 0 1-.28.06.71.71 0 0 1-.28-.06.91.91 0 0 1-.23-.15 1 1 0 0 1-.15-.24.88.88 0 0 1 0-.29.93.93 0 0 1 0-.29.76.76 0 0 1 .15-.23.73.73 0 0 1 .23-.16.71.71 0 0 1 .28-.06.64.64 0 0 1 .28.06.73.73 0 0 1 .23.16.76.76 0 0 1 .15.23.72.72 0 0 1 .06.29zM66.52 70.8a.72.72 0 0 1-.06.29.91.91 0 0 1-.15.23.73.73 0 0 1-.23.16.64.64 0 0 1-.28.06.71.71 0 0 1-.28-.06.73.73 0 0 1-.23-.16.91.91 0 0 1-.15-.23.87.87 0 0 1 0-.58 1 1 0 0 1 .15-.24.94.94 0 0 1 .23-.16.92.92 0 0 1 .28 0 .82.82 0 0 1 .28 0 .94.94 0 0 1 .23.16 1 1 0 0 1 .15.24.72.72 0 0 1 .06.29zM56.5.74a.88.88 0 0 1 0 .29.76.76 0 0 1-.15.23.73.73 0 0 1-.23.16.68.68 0 0 1-.56 0 .73.73 0 0 1-.23-.16.76.76 0 0 1-.2-.26.68.68 0 0 1-.06-.29.72.72 0 0 1 .06-.29.76.76 0 0 1 .15-.23.73.73 0 0 1 .23-.16.68.68 0 0 1 .56 0 .73.73 0 0 1 .23.16.76.76 0 0 1 .15.23.93.93 0 0 1 .05.32zM56.5 7.75a.93.93 0 0 1 0 .29 1.14 1.14 0 0 1-.15.23.73.73 0 0 1-.23.16.68.68 0 0 1-.56 0 .73.73 0 0 1-.23-.16 1.14 1.14 0 0 1-.2-.27.73.73 0 0 1 0-.58 1 1 0 0 1 .15-.24.73.73 0 0 1 .23-.16.81.81 0 0 1 .56 0 .73.73 0 0 1 .23.16 1 1 0 0 1 .15.24.93.93 0 0 1 .05.33zM56.5 14.75a.88.88 0 0 1 0 .29 1 1 0 0 1-.15.24.7.7 0 0 1-.23.15.68.68 0 0 1-.56 0 .7.7 0 0 1-.23-.15 1 1 0 0 1-.15-.24.68.68 0 0 1-.06-.29.72.72 0 0 1 .06-.29.76.76 0 0 1 .15-.23.73.73 0 0 1 .23-.16.68.68 0 0 1 .56 0 .73.73 0 0 1 .23.16.76.76 0 0 1 .15.23.93.93 0 0 1 0 .29zM56.5 21.76a.93.93 0 0 1 0 .29.91.91 0 0 1-.15.23.73.73 0 0 1-.23.16.68.68 0 0 1-.56 0 .73.73 0 0 1-.23-.16.91.91 0 0 1-.15-.23.73.73 0 0 1 0-.58 1 1 0 0 1 .15-.24.7.7 0 0 1 .23-.15.68.68 0 0 1 .56 0 .7.7 0 0 1 .23.15 1 1 0 0 1 .15.24.93.93 0 0 1 0 .29zM56.5 28.77a.82.82 0 0 1 0 .28 1 1 0 0 1-.15.24.7.7 0 0 1-.23.15.68.68 0 0 1-.56 0 .7.7 0 0 1-.23-.15 1 1 0 0 1-.15-.24.64.64 0 0 1-.06-.28.68.68 0 0 1 .06-.29.82.82 0 0 1 .15-.24.73.73 0 0 1 .23-.16.68.68 0 0 1 .56 0 .73.73 0 0 1 .23.16.82.82 0 0 1 .15.24.88.88 0 0 1 0 .29zM56.5 35.77a.88.88 0 0 1 0 .29.76.76 0 0 1-.15.23.73.73 0 0 1-.23.16.68.68 0 0 1-.56 0 .73.73 0 0 1-.23-.16.76.76 0 0 1-.15-.23.68.68 0 0 1-.06-.29.72.72 0 0 1 .06-.29.76.76 0 0 1 .15-.23.73.73 0 0 1 .23-.16.68.68 0 0 1 .56 0 .73.73 0 0 1 .23.16.76.76 0 0 1 .15.23.93.93 0 0 1 0 .29zM56.5 42.78a.93.93 0 0 1 0 .29 1.14 1.14 0 0 1-.15.23.94.94 0 0 1-.23.16.81.81 0 0 1-.56 0 .94.94 0 0 1-.23-.16 1.14 1.14 0 0 1-.15-.23.72.72 0 0 1-.06-.29.68.68 0 0 1 .06-.29 1 1 0 0 1 .15-.24.73.73 0 0 1 .23-.16.68.68 0 0 1 .56 0 .73.73 0 0 1 .23.16 1 1 0 0 1 .15.24.88.88 0 0 1 0 .29zM56.5 49.78a.88.88 0 0 1 0 .29.76.76 0 0 1-.15.23.73.73 0 0 1-.23.16.68.68 0 0 1-.56 0 .73.73 0 0 1-.23-.16.76.76 0 0 1-.15-.23.68.68 0 0 1-.06-.29.72.72 0 0 1 .06-.29.76.76 0 0 1 .15-.23.73.73 0 0 1 .23-.16.68.68 0 0 1 .56 0 .73.73 0 0 1 .23.16.76.76 0 0 1 .15.23.93.93 0 0 1 0 .29zM56.5 56.79a.93.93 0 0 1 0 .29.91.91 0 0 1-.15.23.73.73 0 0 1-.23.16.68.68 0 0 1-.56 0 .73.73 0 0 1-.23-.16.91.91 0 0 1-.15-.23.73.73 0 0 1 0-.58 1 1 0 0 1 .15-.24.94.94 0 0 1 .23-.16.81.81 0 0 1 .56 0 .94.94 0 0 1 .23.16 1 1 0 0 1 .15.24.93.93 0 0 1 0 .29zM56.5 63.79a.88.88 0 0 1 0 .29 1 1 0 0 1-.15.24.91.91 0 0 1-.23.15.68.68 0 0 1-.56 0 .91.91 0 0 1-.23-.15 1 1 0 0 1-.15-.24.68.68 0 0 1-.06-.29.72.72 0 0 1 .06-.29.76.76 0 0 1 .15-.23.73.73 0 0 1 .23-.16.68.68 0 0 1 .56 0 .73.73 0 0 1 .23.16.76.76 0 0 1 .15.23.93.93 0 0 1 0 .29zM56.5 70.8a.93.93 0 0 1 0 .29.91.91 0 0 1-.15.23.73.73 0 0 1-.23.16.68.68 0 0 1-.56 0 .73.73 0 0 1-.23-.16.91.91 0 0 1-.15-.23.73.73 0 0 1 0-.58 1 1 0 0 1 .15-.24.94.94 0 0 1 .23-.16.81.81 0 0 1 .56 0 .94.94 0 0 1 .23.16 1 1 0 0 1 .15.24.93.93 0 0 1 0 .29zM61.51 4.29a.64.64 0 0 1-.06.28.61.61 0 0 1-.15.24.89.89 0 0 1-.22.16.66.66 0 0 1-.28 0 .64.64 0 0 1-.28 0 .79.79 0 0 1-.23-.16.61.61 0 0 1-.15-.24.64.64 0 0 1-.06-.28.68.68 0 0 1 .06-.29.61.61 0 0 1 .15-.24.72.72 0 0 1 .51-.22.67.67 0 0 1 .28.06.69.69 0 0 1 .22.16.61.61 0 0 1 .15.24.68.68 0 0 1 .06.29zM61.51 11.29a.68.68 0 0 1-.06.29.51.51 0 0 1-.15.23.69.69 0 0 1-.22.16.67.67 0 0 1-.28.06.72.72 0 0 1-.51-.22.51.51 0 0 1-.15-.23.68.68 0 0 1-.06-.29.72.72 0 0 1 .06-.29.51.51 0 0 1 .15-.23.72.72 0 0 1 .51-.22.67.67 0 0 1 .28.06.69.69 0 0 1 .22.16.51.51 0 0 1 .15.23.72.72 0 0 1 .06.29zM61.51 18.3a.72.72 0 0 1-.06.29.57.57 0 0 1-.15.23.69.69 0 0 1-.22.16.67.67 0 0 1-.28.06.72.72 0 0 1-.51-.22.57.57 0 0 1-.15-.23.73.73 0 0 1 0-.58.61.61 0 0 1 .15-.24.79.79 0 0 1 .23-.16.64.64 0 0 1 .28-.05.66.66 0 0 1 .28.05.89.89 0 0 1 .22.16.61.61 0 0 1 .15.24.72.72 0 0 1 .06.29zM61.51 25.3a.68.68 0 0 1-.06.29.61.61 0 0 1-.15.24.86.86 0 0 1-.22.15.67.67 0 0 1-.28.06.64.64 0 0 1-.28-.06.76.76 0 0 1-.23-.15.61.61 0 0 1-.15-.24.68.68 0 0 1-.06-.29.72.72 0 0 1 .06-.29.51.51 0 0 1 .15-.23.72.72 0 0 1 .51-.22.67.67 0 0 1 .28.06.69.69 0 0 1 .22.16.51.51 0 0 1 .15.23.72.72 0 0 1 .06.29zM61.51 32.31a.72.72 0 0 1-.06.29.57.57 0 0 1-.15.23.69.69 0 0 1-.22.16.67.67 0 0 1-.28.06.72.72 0 0 1-.51-.22.57.57 0 0 1-.15-.23.73.73 0 0 1 0-.58.61.61 0 0 1 .15-.24.79.79 0 0 1 .23-.16.82.82 0 0 1 .28-.05.87.87 0 0 1 .28.05.89.89 0 0 1 .22.16.61.61 0 0 1 .15.24.72.72 0 0 1 .06.29zM61.51 39.32a.64.64 0 0 1-.06.28.61.61 0 0 1-.15.24.66.66 0 0 1-.22.15.67.67 0 0 1-.28.06.64.64 0 0 1-.28-.06.65.65 0 0 1-.38-.39.64.64 0 0 1-.06-.28.68.68 0 0 1 .06-.29.55.55 0 0 1 .15-.24.72.72 0 0 1 .51-.22.67.67 0 0 1 .28.06.69.69 0 0 1 .22.16.55.55 0 0 1 .15.24.68.68 0 0 1 .06.29zM61.51 46.32a.68.68 0 0 1-.06.29.51.51 0 0 1-.15.23.69.69 0 0 1-.22.16.67.67 0 0 1-.28.06.72.72 0 0 1-.51-.22.51.51 0 0 1-.15-.23.68.68 0 0 1-.06-.29.72.72 0 0 1 .06-.29.51.51 0 0 1 .15-.23.72.72 0 0 1 .51-.22.67.67 0 0 1 .28.06.69.69 0 0 1 .22.16.51.51 0 0 1 .15.23.72.72 0 0 1 .06.29zM61.51 53.33a.64.64 0 0 1-.06.28.61.61 0 0 1-.15.24.89.89 0 0 1-.22.16.66.66 0 0 1-.28.05.64.64 0 0 1-.28-.05.79.79 0 0 1-.23-.16.61.61 0 0 1-.15-.24.64.64 0 0 1-.06-.28.68.68 0 0 1 .06-.29.61.61 0 0 1 .15-.24.72.72 0 0 1 .51-.22.67.67 0 0 1 .28.06.69.69 0 0 1 .22.16.61.61 0 0 1 .15.24.68.68 0 0 1 .06.29zM61.51 60.33a.68.68 0 0 1-.06.29.51.51 0 0 1-.15.23.69.69 0 0 1-.22.16.67.67 0 0 1-.28.06.72.72 0 0 1-.51-.22.51.51 0 0 1-.15-.23.68.68 0 0 1-.06-.29.72.72 0 0 1 .06-.29.51.51 0 0 1 .15-.23.72.72 0 0 1 .51-.22.67.67 0 0 1 .28.06.69.69 0 0 1 .22.16.51.51 0 0 1 .15.23.72.72 0 0 1 .06.29zM61.51 67.34a.72.72 0 0 1-.06.29.57.57 0 0 1-.15.23.69.69 0 0 1-.22.16.67.67 0 0 1-.28.06.72.72 0 0 1-.51-.22.57.57 0 0 1-.15-.23.73.73 0 0 1 0-.58.61.61 0 0 1 .15-.24.66.66 0 0 1 .51-.21.66.66 0 0 1 .28.05.69.69 0 0 1 .22.16.61.61 0 0 1 .15.24.72.72 0 0 1 .06.29zM46.49.74a.68.68 0 0 1-.06.29.51.51 0 0 1-.15.23.69.69 0 0 1-.22.16.67.67 0 0 1-.28.06.64.64 0 0 1-.28-.06.63.63 0 0 1-.23-.16.51.51 0 0 1-.15-.26.68.68 0 0 1-.06-.29.72.72 0 0 1 .06-.29.51.51 0 0 1 .15-.23.63.63 0 0 1 .23-.13.64.64 0 0 1 .28-.06.67.67 0 0 1 .28.06.69.69 0 0 1 .22.16.51.51 0 0 1 .15.23.72.72 0 0 1 .06.29zM46.49 7.75a.72.72 0 0 1-.06.29.65.65 0 0 1-.15.23.69.69 0 0 1-.22.16.67.67 0 0 1-.28.06.72.72 0 0 1-.51-.22.65.65 0 0 1-.15-.27.73.73 0 0 1 0-.58.61.61 0 0 1 .15-.24.66.66 0 0 1 .51-.18.66.66 0 0 1 .28 0 .69.69 0 0 1 .22.16.61.61 0 0 1 .15.24.72.72 0 0 1 .06.35zM46.49 14.75a.68.68 0 0 1-.06.29.61.61 0 0 1-.15.24.66.66 0 0 1-.22.15.67.67 0 0 1-.28.06.64.64 0 0 1-.28-.06.65.65 0 0 1-.38-.39.68.68 0 0 1-.06-.29.72.72 0 0 1 .06-.29.51.51 0 0 1 .15-.23.72.72 0 0 1 .51-.22.67.67 0 0 1 .28.06.69.69 0 0 1 .22.16.51.51 0 0 1 .15.23.72.72 0 0 1 .06.29zM46.49 21.76a.72.72 0 0 1-.06.29.57.57 0 0 1-.15.23.69.69 0 0 1-.22.16.67.67 0 0 1-.28.06.72.72 0 0 1-.51-.22.57.57 0 0 1-.15-.23.73.73 0 0 1 0-.58.65.65 0 0 1 .38-.39.64.64 0 0 1 .28-.06.67.67 0 0 1 .28.06.66.66 0 0 1 .22.15.61.61 0 0 1 .15.24.72.72 0 0 1 .06.29zM46.49 28.77a.64.64 0 0 1-.06.28.61.61 0 0 1-.15.24.66.66 0 0 1-.22.15.67.67 0 0 1-.28.06.64.64 0 0 1-.28-.06.65.65 0 0 1-.38-.39.64.64 0 0 1-.06-.28.68.68 0 0 1 .06-.29.55.55 0 0 1 .15-.24.72.72 0 0 1 .51-.22.67.67 0 0 1 .28.06.69.69 0 0 1 .22.16.55.55 0 0 1 .15.24.68.68 0 0 1 .06.29zM46.49 35.77a.68.68 0 0 1-.06.29.51.51 0 0 1-.15.23.69.69 0 0 1-.22.16.67.67 0 0 1-.28.06.72.72 0 0 1-.51-.22.51.51 0 0 1-.15-.23.68.68 0 0 1-.06-.29.72.72 0 0 1 .06-.29.51.51 0 0 1 .15-.23.72.72 0 0 1 .51-.22.67.67 0 0 1 .28.06.69.69 0 0 1 .22.16.51.51 0 0 1 .15.23.72.72 0 0 1 .06.29zM46.49 42.78a.72.72 0 0 1-.06.29.65.65 0 0 1-.15.23.89.89 0 0 1-.22.16.66.66 0 0 1-.28 0 .64.64 0 0 1-.28 0 .79.79 0 0 1-.23-.16.65.65 0 0 1-.15-.23.72.72 0 0 1-.06-.29.68.68 0 0 1 .06-.29.61.61 0 0 1 .15-.24.72.72 0 0 1 .51-.22.67.67 0 0 1 .28.06.69.69 0 0 1 .22.16.61.61 0 0 1 .15.24.68.68 0 0 1 .06.29zM46.49 49.78a.68.68 0 0 1-.06.29.51.51 0 0 1-.15.23.69.69 0 0 1-.22.16.67.67 0 0 1-.28.06.72.72 0 0 1-.51-.22.51.51 0 0 1-.15-.23.68.68 0 0 1-.06-.29.72.72 0 0 1 .06-.29.51.51 0 0 1 .15-.23.72.72 0 0 1 .51-.22.67.67 0 0 1 .28.06.69.69 0 0 1 .22.16.51.51 0 0 1 .15.23.72.72 0 0 1 .06.29zM46.49 56.79a.72.72 0 0 1-.06.29.57.57 0 0 1-.15.23.69.69 0 0 1-.22.16.67.67 0 0 1-.28.06.72.72 0 0 1-.51-.22.57.57 0 0 1-.15-.23.73.73 0 0 1 0-.58.61.61 0 0 1 .15-.24.79.79 0 0 1 .23-.16.82.82 0 0 1 .28-.05.87.87 0 0 1 .28.05.89.89 0 0 1 .22.16.61.61 0 0 1 .15.24.72.72 0 0 1 .06.29zM46.49 63.79a.68.68 0 0 1-.06.29.61.61 0 0 1-.15.24.86.86 0 0 1-.22.15.67.67 0 0 1-.28.06.64.64 0 0 1-.28-.06.76.76 0 0 1-.23-.15.61.61 0 0 1-.15-.24.68.68 0 0 1-.06-.29.72.72 0 0 1 .06-.29.51.51 0 0 1 .15-.23.72.72 0 0 1 .51-.22.67.67 0 0 1 .28.06.69.69 0 0 1 .22.16.51.51 0 0 1 .15.23.72.72 0 0 1 .06.29zM46.49 70.8a.72.72 0 0 1-.06.29.57.57 0 0 1-.15.23.69.69 0 0 1-.22.16.67.67 0 0 1-.28.06.72.72 0 0 1-.51-.22.57.57 0 0 1-.15-.23.73.73 0 0 1 0-.58.61.61 0 0 1 .15-.24.79.79 0 0 1 .23-.16.82.82 0 0 1 .28 0 .87.87 0 0 1 .28 0 .89.89 0 0 1 .22.16.61.61 0 0 1 .15.24.72.72 0 0 1 .06.29zM51.5 4.29a.64.64 0 0 1-.06.28 1 1 0 0 1-.15.24.94.94 0 0 1-.23.16.64.64 0 0 1-.28 0 .69.69 0 0 1-.28 0 .94.94 0 0 1-.23-.16 1 1 0 0 1-.15-.24.82.82 0 0 1 0-.28.88.88 0 0 1 0-.29 1 1 0 0 1 .15-.24.73.73 0 0 1 .23-.16.71.71 0 0 1 .28-.06.64.64 0 0 1 .28.06.73.73 0 0 1 .23.16 1 1 0 0 1 .15.24.68.68 0 0 1 .06.29zM51.5 11.29a.68.68 0 0 1-.06.29.76.76 0 0 1-.15.23.73.73 0 0 1-.23.16.64.64 0 0 1-.28.06.71.71 0 0 1-.28-.03.73.73 0 0 1-.23-.16.76.76 0 0 1-.15-.23.88.88 0 0 1 0-.29.93.93 0 0 1 0-.29.76.76 0 0 1 .15-.23.73.73 0 0 1 .23-.16.71.71 0 0 1 .28-.06.64.64 0 0 1 .28.06.73.73 0 0 1 .23.16.76.76 0 0 1 .15.23.72.72 0 0 1 .06.26zM51.5 18.3a.72.72 0 0 1-.06.29.91.91 0 0 1-.15.23.73.73 0 0 1-.23.16.64.64 0 0 1-.28.06.71.71 0 0 1-.28-.04.73.73 0 0 1-.23-.16.91.91 0 0 1-.15-.23.87.87 0 0 1 0-.58 1 1 0 0 1 .15-.24.94.94 0 0 1 .23-.16.69.69 0 0 1 .28-.05.64.64 0 0 1 .28.05.94.94 0 0 1 .23.16 1 1 0 0 1 .15.24.72.72 0 0 1 .06.27zM51.5 25.3a.68.68 0 0 1-.06.29 1 1 0 0 1-.15.24.91.91 0 0 1-.23.15.64.64 0 0 1-.28.06.71.71 0 0 1-.28-.04.91.91 0 0 1-.23-.15 1 1 0 0 1-.15-.24.88.88 0 0 1 0-.29.93.93 0 0 1 0-.29.76.76 0 0 1 .15-.23.73.73 0 0 1 .23-.16.71.71 0 0 1 .28-.06.64.64 0 0 1 .28.06.73.73 0 0 1 .23.16.76.76 0 0 1 .15.23.72.72 0 0 1 .06.27zM51.5 32.31a.72.72 0 0 1-.06.29.91.91 0 0 1-.15.23.73.73 0 0 1-.23.16.64.64 0 0 1-.28.06.71.71 0 0 1-.28-.05.73.73 0 0 1-.23-.16.91.91 0 0 1-.15-.23.87.87 0 0 1 0-.58 1 1 0 0 1 .15-.24.94.94 0 0 1 .23-.16.92.92 0 0 1 .28-.05.82.82 0 0 1 .28.05.94.94 0 0 1 .23.16 1 1 0 0 1 .15.24.72.72 0 0 1 .06.28zM51.5 39.32a.64.64 0 0 1-.06.28 1 1 0 0 1-.15.24.7.7 0 0 1-.23.15.64.64 0 0 1-.28.06.77.77 0 0 1-.51-.21 1 1 0 0 1-.15-.24.82.82 0 0 1 0-.28.88.88 0 0 1 0-.29.82.82 0 0 1 .15-.24.73.73 0 0 1 .23-.16.71.71 0 0 1 .28-.06.64.64 0 0 1 .28.06.73.73 0 0 1 .23.16.82.82 0 0 1 .15.24.68.68 0 0 1 .06.29zM51.5 46.32a.68.68 0 0 1-.06.29.76.76 0 0 1-.15.23.73.73 0 0 1-.23.16.64.64 0 0 1-.28.06.71.71 0 0 1-.28-.06.73.73 0 0 1-.23-.16.76.76 0 0 1-.15-.23.88.88 0 0 1 0-.29.93.93 0 0 1 0-.29.76.76 0 0 1 .15-.23.73.73 0 0 1 .23-.16.71.71 0 0 1 .28-.06.64.64 0 0 1 .28.06.73.73 0 0 1 .23.16.76.76 0 0 1 .15.23.72.72 0 0 1 .06.29zM51.5 53.33a.64.64 0 0 1-.06.28 1 1 0 0 1-.15.24.94.94 0 0 1-.23.16.64.64 0 0 1-.28.05.69.69 0 0 1-.28-.06.94.94 0 0 1-.23-.16 1 1 0 0 1-.15-.24.82.82 0 0 1 0-.28.88.88 0 0 1 0-.29 1 1 0 0 1 .15-.24.73.73 0 0 1 .23-.16.71.71 0 0 1 .28-.06.64.64 0 0 1 .28.06.73.73 0 0 1 .23.16 1 1 0 0 1 .15.24.68.68 0 0 1 .06.3zM51.5 60.33a.68.68 0 0 1-.06.29.76.76 0 0 1-.15.23.73.73 0 0 1-.23.16.64.64 0 0 1-.28.06.71.71 0 0 1-.28-.07.73.73 0 0 1-.23-.16.76.76 0 0 1-.15-.23.88.88 0 0 1 0-.29.93.93 0 0 1 0-.29.76.76 0 0 1 .15-.23.73.73 0 0 1 .23-.16.71.71 0 0 1 .28-.06.64.64 0 0 1 .28.06.73.73 0 0 1 .23.16.76.76 0 0 1 .15.23.72.72 0 0 1 .06.3zM51.5 67.34a.72.72 0 0 1-.06.29.91.91 0 0 1-.15.23.73.73 0 0 1-.23.16.64.64 0 0 1-.28.06.71.71 0 0 1-.28-.08.73.73 0 0 1-.23-.16.91.91 0 0 1-.15-.23.87.87 0 0 1 0-.58 1 1 0 0 1 .15-.24.73.73 0 0 1 .23-.16.69.69 0 0 1 .28-.05.64.64 0 0 1 .28.05.73.73 0 0 1 .23.16 1 1 0 0 1 .15.24.72.72 0 0 1 .06.31zM36.48.74a.68.68 0 0 1-.06.29.76.76 0 0 1-.15.23.73.73 0 0 1-.23.16.64.64 0 0 1-.28.06.67.67 0 0 1-.28-.06.73.73 0 0 1-.23-.16.76.76 0 0 1-.15-.26.88.88 0 0 1-.05-.29.93.93 0 0 1 .05-.26.76.76 0 0 1 .15-.23.73.73 0 0 1 .23-.16.67.67 0 0 1 .28-.06.64.64 0 0 1 .24.06.73.73 0 0 1 .23.16.76.76 0 0 1 .15.23.72.72 0 0 1 .1.29zM36.48 7.75a.72.72 0 0 1-.06.29 1.14 1.14 0 0 1-.15.23.73.73 0 0 1-.23.16.64.64 0 0 1-.28.06.67.67 0 0 1-.28-.06.73.73 0 0 1-.23-.16A1.14 1.14 0 0 1 35.1 8a.87.87 0 0 1 0-.58 1 1 0 0 1 .15-.24.73.73 0 0 1 .23-.16.66.66 0 0 1 .28 0 .64.64 0 0 1 .28 0 .73.73 0 0 1 .23.16 1 1 0 0 1 .15.24.72.72 0 0 1 .06.33zM36.48 14.75a.68.68 0 0 1-.06.29 1 1 0 0 1-.15.24.7.7 0 0 1-.23.15.64.64 0 0 1-.28.06.67.67 0 0 1-.28-.06.7.7 0 0 1-.23-.15 1 1 0 0 1-.15-.28.88.88 0 0 1-.05-.29.93.93 0 0 1 .05-.29.76.76 0 0 1 .15-.23.73.73 0 0 1 .23-.16.67.67 0 0 1 .28-.06.64.64 0 0 1 .28.06.73.73 0 0 1 .23.16.76.76 0 0 1 .15.23.72.72 0 0 1 .06.33zM36.48 21.76a.72.72 0 0 1-.06.29.91.91 0 0 1-.15.23.73.73 0 0 1-.23.16.64.64 0 0 1-.28.06.67.67 0 0 1-.28-.06.73.73 0 0 1-.23-.16.91.91 0 0 1-.15-.23.87.87 0 0 1 0-.58 1 1 0 0 1 .15-.24.7.7 0 0 1 .23-.15.67.67 0 0 1 .28-.06.64.64 0 0 1 .28.06.7.7 0 0 1 .23.15 1 1 0 0 1 .15.24.72.72 0 0 1 .06.29zM36.48 28.77a.64.64 0 0 1-.06.28 1 1 0 0 1-.15.24.7.7 0 0 1-.23.15.64.64 0 0 1-.28.06.67.67 0 0 1-.28-.06.7.7 0 0 1-.23-.15 1 1 0 0 1-.15-.24.82.82 0 0 1-.05-.28.88.88 0 0 1 .05-.29.82.82 0 0 1 .15-.24.73.73 0 0 1 .23-.16.67.67 0 0 1 .28-.06.64.64 0 0 1 .28.06.73.73 0 0 1 .23.16.82.82 0 0 1 .15.24.68.68 0 0 1 .06.29zM36.48 35.77a.68.68 0 0 1-.06.29.76.76 0 0 1-.15.23.73.73 0 0 1-.23.16.64.64 0 0 1-.28.06.67.67 0 0 1-.28-.06.73.73 0 0 1-.23-.16.76.76 0 0 1-.15-.23.88.88 0 0 1-.05-.29.93.93 0 0 1 .05-.29.76.76 0 0 1 .15-.23.73.73 0 0 1 .23-.16.67.67 0 0 1 .28-.06.64.64 0 0 1 .28.06.73.73 0 0 1 .23.16.76.76 0 0 1 .15.23.72.72 0 0 1 .06.29zM36.48 42.78a.72.72 0 0 1-.06.29 1.14 1.14 0 0 1-.15.23.94.94 0 0 1-.23.16.64.64 0 0 1-.28 0 .66.66 0 0 1-.28 0 .94.94 0 0 1-.23-.16 1.14 1.14 0 0 1-.15-.23.93.93 0 0 1-.05-.29.88.88 0 0 1 .05-.29 1 1 0 0 1 .15-.24.73.73 0 0 1 .23-.16.67.67 0 0 1 .28-.06.64.64 0 0 1 .28.06.73.73 0 0 1 .23.16 1 1 0 0 1 .15.24.68.68 0 0 1 .06.29zM36.48 49.78a.68.68 0 0 1-.06.29.76.76 0 0 1-.15.23.73.73 0 0 1-.23.16.64.64 0 0 1-.28.06.67.67 0 0 1-.28-.06.73.73 0 0 1-.23-.16.76.76 0 0 1-.15-.23.88.88 0 0 1-.05-.29.93.93 0 0 1 .05-.29.76.76 0 0 1 .15-.23.73.73 0 0 1 .23-.16.67.67 0 0 1 .28-.06.64.64 0 0 1 .28.06.73.73 0 0 1 .23.16.76.76 0 0 1 .15.23.72.72 0 0 1 .06.29zM36.48 56.79a.72.72 0 0 1-.06.29.91.91 0 0 1-.15.23.73.73 0 0 1-.23.16.64.64 0 0 1-.28.06.67.67 0 0 1-.28-.06.73.73 0 0 1-.23-.16.91.91 0 0 1-.15-.23.87.87 0 0 1 0-.58 1 1 0 0 1 .15-.24.94.94 0 0 1 .23-.16.87.87 0 0 1 .28-.05.82.82 0 0 1 .28.05.94.94 0 0 1 .23.16 1 1 0 0 1 .15.24.72.72 0 0 1 .06.29zM36.48 63.79a.68.68 0 0 1-.06.29 1 1 0 0 1-.15.24.91.91 0 0 1-.23.15.64.64 0 0 1-.28.06.67.67 0 0 1-.28-.06.91.91 0 0 1-.23-.15 1 1 0 0 1-.15-.24.88.88 0 0 1-.05-.29.93.93 0 0 1 .05-.29.76.76 0 0 1 .15-.23.73.73 0 0 1 .23-.16.67.67 0 0 1 .28-.06.64.64 0 0 1 .28.06.73.73 0 0 1 .23.16.76.76 0 0 1 .15.23.72.72 0 0 1 .06.29zM36.48 70.8a.72.72 0 0 1-.06.29.91.91 0 0 1-.15.23.73.73 0 0 1-.23.16.64.64 0 0 1-.28.06.67.67 0 0 1-.28-.06.73.73 0 0 1-.23-.16.91.91 0 0 1-.15-.23.87.87 0 0 1 0-.58 1 1 0 0 1 .15-.24.94.94 0 0 1 .23-.16.87.87 0 0 1 .28 0 .82.82 0 0 1 .28 0 .94.94 0 0 1 .23.16 1 1 0 0 1 .15.24.72.72 0 0 1 .06.29zM41.48 4.29a.82.82 0 0 1 0 .28 1 1 0 0 1-.15.24 1.19 1.19 0 0 1-.23.16.81.81 0 0 1-.56 0 .94.94 0 0 1-.23-.16 1 1 0 0 1-.15-.24.64.64 0 0 1-.06-.28.68.68 0 0 1 .01-.29 1 1 0 0 1 .15-.24.73.73 0 0 1 .23-.16.68.68 0 0 1 .56 0 .87.87 0 0 1 .23.16 1 1 0 0 1 .15.24.88.88 0 0 1 .05.29zM41.48 11.29a.88.88 0 0 1 0 .29.76.76 0 0 1-.15.23.87.87 0 0 1-.23.16.68.68 0 0 1-.56 0 .73.73 0 0 1-.23-.16.76.76 0 0 1-.15-.23.68.68 0 0 1-.06-.29.72.72 0 0 1 .06-.29.76.76 0 0 1 .15-.23.73.73 0 0 1 .23-.16.68.68 0 0 1 .56 0 .87.87 0 0 1 .23.16.76.76 0 0 1 .15.23.93.93 0 0 1 0 .29zM41.48 18.3a.93.93 0 0 1 0 .29.91.91 0 0 1-.15.23.87.87 0 0 1-.23.16.68.68 0 0 1-.56 0 .73.73 0 0 1-.23-.16.91.91 0 0 1-.15-.23.73.73 0 0 1 0-.58 1 1 0 0 1 .15-.24.94.94 0 0 1 .23-.16.81.81 0 0 1 .56 0 1.19 1.19 0 0 1 .23.16 1 1 0 0 1 .15.24.93.93 0 0 1 0 .29zM41.48 25.3a.88.88 0 0 1 0 .29 1 1 0 0 1-.15.24 1.14 1.14 0 0 1-.23.15.68.68 0 0 1-.56 0 .91.91 0 0 1-.23-.15 1 1 0 0 1-.15-.24.68.68 0 0 1-.06-.29.72.72 0 0 1 .06-.29.76.76 0 0 1 .15-.23.73.73 0 0 1 .23-.16.68.68 0 0 1 .56 0 .87.87 0 0 1 .23.16.76.76 0 0 1 .15.23.93.93 0 0 1 0 .29zM41.48 32.31a.93.93 0 0 1 0 .29.91.91 0 0 1-.15.23.87.87 0 0 1-.23.16.68.68 0 0 1-.56 0 .73.73 0 0 1-.23-.16.91.91 0 0 1-.15-.23.73.73 0 0 1 0-.58 1 1 0 0 1 .15-.24.94.94 0 0 1 .23-.16.81.81 0 0 1 .56 0 1.19 1.19 0 0 1 .23.16 1 1 0 0 1 .15.24.93.93 0 0 1 0 .29zM41.48 39.32a.82.82 0 0 1 0 .28 1 1 0 0 1-.15.24.83.83 0 0 1-.23.15.68.68 0 0 1-.56 0 .7.7 0 0 1-.23-.15 1 1 0 0 1-.15-.24.64.64 0 0 1-.06-.28.68.68 0 0 1 .06-.29.82.82 0 0 1 .15-.24.73.73 0 0 1 .23-.16.68.68 0 0 1 .56 0 .87.87 0 0 1 .23.16.82.82 0 0 1 .15.24.88.88 0 0 1 0 .29zM41.48 46.32a.88.88 0 0 1 0 .29.76.76 0 0 1-.15.23.87.87 0 0 1-.23.16.68.68 0 0 1-.56 0 .73.73 0 0 1-.23-.16.76.76 0 0 1-.15-.23.68.68 0 0 1-.06-.29.72.72 0 0 1 .06-.29.76.76 0 0 1 .15-.23.73.73 0 0 1 .23-.16.68.68 0 0 1 .56 0 .87.87 0 0 1 .23.16.76.76 0 0 1 .15.23.93.93 0 0 1 0 .29zM41.48 53.33a.82.82 0 0 1 0 .28 1 1 0 0 1-.15.24 1.19 1.19 0 0 1-.23.16.81.81 0 0 1-.56 0 .94.94 0 0 1-.23-.16 1 1 0 0 1-.15-.24.64.64 0 0 1-.06-.28.68.68 0 0 1 .06-.29 1 1 0 0 1 .15-.24.73.73 0 0 1 .23-.16.68.68 0 0 1 .56 0 .87.87 0 0 1 .23.16 1 1 0 0 1 .15.24.88.88 0 0 1 0 .29zM41.48 60.33a.88.88 0 0 1 0 .29.76.76 0 0 1-.15.23.87.87 0 0 1-.23.16.68.68 0 0 1-.56 0 .73.73 0 0 1-.23-.16.76.76 0 0 1-.15-.23.68.68 0 0 1-.06-.29.72.72 0 0 1 .06-.29.76.76 0 0 1 .15-.23.73.73 0 0 1 .23-.16.68.68 0 0 1 .56 0 .87.87 0 0 1 .23.16.76.76 0 0 1 .15.23.93.93 0 0 1 0 .29zM41.48 67.34a.93.93 0 0 1 0 .29.91.91 0 0 1-.15.23.87.87 0 0 1-.23.16.68.68 0 0 1-.56 0 .73.73 0 0 1-.23-.16.91.91 0 0 1-.15-.23.73.73 0 0 1 0-.58 1 1 0 0 1 .15-.24.73.73 0 0 1 .23-.16.81.81 0 0 1 .56 0 .87.87 0 0 1 .23.16 1 1 0 0 1 .15.24.93.93 0 0 1 0 .29zM26.46.74a.88.88 0 0 1-.05.29.76.76 0 0 1-.15.23.87.87 0 0 1-.23.16.68.68 0 0 1-.56 0 .63.63 0 0 1-.23-.16.61.61 0 0 1-.15-.26.68.68 0 0 1-.09-.26.72.72 0 0 1 .06-.29.61.61 0 0 1 .15-.23.63.63 0 0 1 .23-.16.68.68 0 0 1 .56 0 .87.87 0 0 1 .23.16.76.76 0 0 1 .15.23.93.93 0 0 1 .08.29zM26.46 7.75a.93.93 0 0 1-.05.29 1.14 1.14 0 0 1-.15.23.87.87 0 0 1-.23.16.68.68 0 0 1-.56 0 .63.63 0 0 1-.23-.16.83.83 0 0 1-.15-.27.73.73 0 0 1 0-.58.75.75 0 0 1 .15-.24.63.63 0 0 1 .23-.16.81.81 0 0 1 .56 0 .87.87 0 0 1 .23.16 1 1 0 0 1 .15.24.93.93 0 0 1 .05.33zM26.46 14.75a.88.88 0 0 1-.05.29 1 1 0 0 1-.15.24.83.83 0 0 1-.23.15.68.68 0 0 1-.56 0 .61.61 0 0 1-.23-.15.75.75 0 0 1-.15-.24.68.68 0 0 1-.06-.29.72.72 0 0 1 .06-.29.61.61 0 0 1 .15-.23.63.63 0 0 1 .23-.16.68.68 0 0 1 .56 0 .87.87 0 0 1 .23.16.76.76 0 0 1 .15.23.93.93 0 0 1 .05.29zM26.46 21.76a.93.93 0 0 1-.05.29.91.91 0 0 1-.15.23.87.87 0 0 1-.23.16.68.68 0 0 1-.56 0 .63.63 0 0 1-.23-.16.7.7 0 0 1-.15-.23.73.73 0 0 1 0-.58.75.75 0 0 1 .15-.24.61.61 0 0 1 .23-.15.68.68 0 0 1 .56 0 .83.83 0 0 1 .23.15 1 1 0 0 1 .15.24.93.93 0 0 1 .05.29zM26.46 28.77a.82.82 0 0 1-.05.28 1 1 0 0 1-.15.24.83.83 0 0 1-.23.15.68.68 0 0 1-.56 0 .61.61 0 0 1-.23-.15.75.75 0 0 1-.15-.24.64.64 0 0 1-.06-.28.68.68 0 0 1 .06-.29.65.65 0 0 1 .15-.24.63.63 0 0 1 .23-.16.68.68 0 0 1 .56 0 .87.87 0 0 1 .23.16.82.82 0 0 1 .15.24.88.88 0 0 1 .05.29zM26.46 35.77a.88.88 0 0 1-.05.29.76.76 0 0 1-.15.23.87.87 0 0 1-.23.16.68.68 0 0 1-.56 0 .63.63 0 0 1-.23-.16.61.61 0 0 1-.15-.23.68.68 0 0 1-.06-.29.72.72 0 0 1 .06-.29.61.61 0 0 1 .15-.23.63.63 0 0 1 .23-.16.68.68 0 0 1 .56 0 .87.87 0 0 1 .23.16.76.76 0 0 1 .15.23.93.93 0 0 1 .05.29zM26.46 42.78a.93.93 0 0 1-.05.29 1.14 1.14 0 0 1-.15.23 1.19 1.19 0 0 1-.23.16.81.81 0 0 1-.56 0 .79.79 0 0 1-.23-.16.83.83 0 0 1-.15-.23.72.72 0 0 1-.06-.29.68.68 0 0 1 .06-.29.75.75 0 0 1 .15-.24.63.63 0 0 1 .23-.16.68.68 0 0 1 .56 0 .87.87 0 0 1 .23.16 1 1 0 0 1 .15.24.88.88 0 0 1 .05.29zM26.46 49.78a.88.88 0 0 1-.05.29.76.76 0 0 1-.15.23.87.87 0 0 1-.23.16.68.68 0 0 1-.56 0 .63.63 0 0 1-.23-.16.61.61 0 0 1-.15-.23.68.68 0 0 1-.06-.29.72.72 0 0 1 .06-.29.61.61 0 0 1 .15-.23.63.63 0 0 1 .23-.16.68.68 0 0 1 .56 0 .87.87 0 0 1 .23.16.76.76 0 0 1 .15.23.93.93 0 0 1 .05.29zM26.46 56.79a.93.93 0 0 1-.05.29.91.91 0 0 1-.15.23.87.87 0 0 1-.23.16.68.68 0 0 1-.56 0 .63.63 0 0 1-.23-.16.7.7 0 0 1-.15-.23.73.73 0 0 1 0-.58.75.75 0 0 1 .15-.24.79.79 0 0 1 .23-.16.81.81 0 0 1 .56 0 1.19 1.19 0 0 1 .23.16 1 1 0 0 1 .15.24.93.93 0 0 1 .05.29zM26.46 63.79a.88.88 0 0 1-.05.29 1 1 0 0 1-.15.24 1.14 1.14 0 0 1-.23.15.68.68 0 0 1-.56 0 .76.76 0 0 1-.23-.15.75.75 0 0 1-.15-.24.68.68 0 0 1-.06-.29.72.72 0 0 1 .06-.29.61.61 0 0 1 .15-.23.63.63 0 0 1 .23-.16.68.68 0 0 1 .56 0 .87.87 0 0 1 .23.16.76.76 0 0 1 .15.23.93.93 0 0 1 .05.29zM26.46 70.8a.93.93 0 0 1-.05.29.91.91 0 0 1-.15.23.87.87 0 0 1-.23.16.68.68 0 0 1-.56 0 .63.63 0 0 1-.23-.16.7.7 0 0 1-.15-.23.73.73 0 0 1 0-.58.75.75 0 0 1 .15-.24.79.79 0 0 1 .23-.16.81.81 0 0 1 .56 0 1.19 1.19 0 0 1 .23.16 1 1 0 0 1 .15.24.93.93 0 0 1 .05.29zM31.47 4.29a.64.64 0 0 1-.06.28.61.61 0 0 1-.15.24A.89.89 0 0 1 31 5a.66.66 0 0 1-.28 0 .64.64 0 0 1-.28 0 .79.79 0 0 1-.23-.16.61.61 0 0 1-.15-.24.64.64 0 0 1-.06-.31.68.68 0 0 1 .1-.29.61.61 0 0 1 .15-.24.72.72 0 0 1 .51-.22.67.67 0 0 1 .24.06.69.69 0 0 1 .22.16.61.61 0 0 1 .15.24.68.68 0 0 1 .1.29zM31.47 11.29a.68.68 0 0 1-.06.29.51.51 0 0 1-.15.23.69.69 0 0 1-.26.19.67.67 0 0 1-.28.06.72.72 0 0 1-.51-.22.51.51 0 0 1-.15-.23.68.68 0 0 1-.06-.29.72.72 0 0 1 .1-.32.51.51 0 0 1 .15-.23.72.72 0 0 1 .51-.22.67.67 0 0 1 .28.06.69.69 0 0 1 .22.16.51.51 0 0 1 .15.23.72.72 0 0 1 .06.29zM31.47 18.3a.72.72 0 0 1-.06.29.57.57 0 0 1-.15.23.69.69 0 0 1-.26.18.67.67 0 0 1-.28.06.72.72 0 0 1-.51-.22.57.57 0 0 1-.15-.23.73.73 0 0 1 0-.58.61.61 0 0 1 .15-.24.79.79 0 0 1 .23-.16.64.64 0 0 1 .28-.05.66.66 0 0 1 .28.05.89.89 0 0 1 .22.16.61.61 0 0 1 .15.24.72.72 0 0 1 .1.27zM31.47 25.3a.68.68 0 0 1-.06.29.61.61 0 0 1-.15.24.86.86 0 0 1-.26.17.67.67 0 0 1-.28.06.64.64 0 0 1-.28-.06.76.76 0 0 1-.23-.15.61.61 0 0 1-.15-.24.68.68 0 0 1-.06-.31.72.72 0 0 1 .1-.3.51.51 0 0 1 .15-.23.72.72 0 0 1 .51-.22.67.67 0 0 1 .28.06.69.69 0 0 1 .22.16.51.51 0 0 1 .15.23.72.72 0 0 1 .06.3zM31.47 32.31a.72.72 0 0 1-.06.29.57.57 0 0 1-.15.23.69.69 0 0 1-.26.17.67.67 0 0 1-.28.06.72.72 0 0 1-.51-.22.57.57 0 0 1-.15-.23.73.73 0 0 1 0-.58.61.61 0 0 1 .15-.24.79.79 0 0 1 .23-.16.82.82 0 0 1 .28-.05.87.87 0 0 1 .28.05.89.89 0 0 1 .22.16.61.61 0 0 1 .15.24.72.72 0 0 1 .1.28zM31.47 39.32a.64.64 0 0 1-.06.28.61.61 0 0 1-.15.24.66.66 0 0 1-.26.16.67.67 0 0 1-.28.06.64.64 0 0 1-.28-.06.65.65 0 0 1-.38-.39.64.64 0 0 1-.06-.28.68.68 0 0 1 .1-.33.55.55 0 0 1 .15-.24.72.72 0 0 1 .51-.22.67.67 0 0 1 .28.06.69.69 0 0 1 .22.16.55.55 0 0 1 .15.24.68.68 0 0 1 .06.32zM31.47 46.32a.68.68 0 0 1-.06.29.51.51 0 0 1-.15.23.69.69 0 0 1-.26.16.67.67 0 0 1-.28.06.72.72 0 0 1-.51-.22.51.51 0 0 1-.15-.23.68.68 0 0 1-.06-.29.72.72 0 0 1 .1-.32.51.51 0 0 1 .15-.23.72.72 0 0 1 .51-.22.67.67 0 0 1 .28.06.69.69 0 0 1 .22.16.51.51 0 0 1 .15.23.72.72 0 0 1 .06.32zM31.47 53.33a.64.64 0 0 1-.06.28.61.61 0 0 1-.15.24.89.89 0 0 1-.26.15.66.66 0 0 1-.28.05.64.64 0 0 1-.28-.05.79.79 0 0 1-.23-.16.61.61 0 0 1-.15-.24.64.64 0 0 1-.06-.28.68.68 0 0 1 .1-.32.61.61 0 0 1 .15-.24.72.72 0 0 1 .51-.22.67.67 0 0 1 .28.06.69.69 0 0 1 .22.16.61.61 0 0 1 .15.24.68.68 0 0 1 .06.33zM31.47 60.33a.68.68 0 0 1-.06.29.51.51 0 0 1-.15.23.69.69 0 0 1-.26.15.67.67 0 0 1-.28.06.72.72 0 0 1-.51-.22.51.51 0 0 1-.15-.23.68.68 0 0 1-.06-.29.72.72 0 0 1 .1-.32.51.51 0 0 1 .15-.23.72.72 0 0 1 .51-.22.67.67 0 0 1 .28.06.69.69 0 0 1 .22.16.51.51 0 0 1 .15.23.72.72 0 0 1 .06.33zM31.47 67.34a.72.72 0 0 1-.06.29.57.57 0 0 1-.15.23.69.69 0 0 1-.26.14.67.67 0 0 1-.28.06.72.72 0 0 1-.51-.22.57.57 0 0 1-.15-.23.73.73 0 0 1 0-.58.61.61 0 0 1 .15-.24.66.66 0 0 1 .51-.21.66.66 0 0 1 .28.05.69.69 0 0 1 .22.16.61.61 0 0 1 .15.24.72.72 0 0 1 .1.31zM16.45.74a.68.68 0 0 1-.06.29.51.51 0 0 1-.15.23.69.69 0 0 1-.22.16.67.67 0 0 1-.28.06.64.64 0 0 1-.28-.06.63.63 0 0 1-.23-.16.63.63 0 0 1-.16-.26.88.88 0 0 1-.07-.26.93.93 0 0 1 .05-.29.63.63 0 0 1 .16-.23.63.63 0 0 1 .23-.16.64.64 0 0 1 .3-.06.67.67 0 0 1 .26.06.69.69 0 0 1 .22.16.51.51 0 0 1 .15.23.72.72 0 0 1 .08.29zM16.45 7.75a.72.72 0 0 1-.06.29.65.65 0 0 1-.15.23.69.69 0 0 1-.22.16.67.67 0 0 1-.28.06.72.72 0 0 1-.51-.22.87.87 0 0 1-.16-.27.87.87 0 0 1 0-.58.78.78 0 0 1 .16-.24.66.66 0 0 1 .51-.18.66.66 0 0 1 .28 0 .69.69 0 0 1 .22.16.61.61 0 0 1 .15.24.72.72 0 0 1 .06.35zM16.45 14.75a.68.68 0 0 1-.06.29.61.61 0 0 1-.15.24.66.66 0 0 1-.22.15.67.67 0 0 1-.28.06.64.64 0 0 1-.28-.06.61.61 0 0 1-.23-.15.78.78 0 0 1-.16-.24.88.88 0 0 1-.05-.29.93.93 0 0 1 .05-.29.74.74 0 0 1 .67-.45.67.67 0 0 1 .28.06.69.69 0 0 1 .22.16.51.51 0 0 1 .15.23.72.72 0 0 1 .06.29zM16.45 21.76a.72.72 0 0 1-.06.29.57.57 0 0 1-.15.23.69.69 0 0 1-.22.16.67.67 0 0 1-.28.06.72.72 0 0 1-.51-.22.73.73 0 0 1-.16-.23.87.87 0 0 1 0-.58.78.78 0 0 1 .16-.24.61.61 0 0 1 .23-.15.64.64 0 0 1 .28-.06.67.67 0 0 1 .28.06.66.66 0 0 1 .22.15.61.61 0 0 1 .15.24.72.72 0 0 1 .06.29zM16.45 28.77a.64.64 0 0 1-.06.28.61.61 0 0 1-.15.24.66.66 0 0 1-.22.15.67.67 0 0 1-.28.06.64.64 0 0 1-.28-.06.61.61 0 0 1-.23-.15.78.78 0 0 1-.16-.24.82.82 0 0 1-.05-.28.88.88 0 0 1 .05-.29.67.67 0 0 1 .16-.24.72.72 0 0 1 .51-.22.67.67 0 0 1 .28.06.69.69 0 0 1 .22.16.55.55 0 0 1 .15.24.68.68 0 0 1 .06.29zM16.45 35.77a.68.68 0 0 1-.06.29.51.51 0 0 1-.15.23.69.69 0 0 1-.22.16.67.67 0 0 1-.28.06.76.76 0 0 1-.67-.45.88.88 0 0 1-.05-.29.93.93 0 0 1 .05-.29.74.74 0 0 1 .67-.45.67.67 0 0 1 .28.06.69.69 0 0 1 .22.16.51.51 0 0 1 .15.23.72.72 0 0 1 .06.29zM16.45 42.78a.72.72 0 0 1-.06.29.65.65 0 0 1-.15.23.89.89 0 0 1-.22.16.66.66 0 0 1-.28 0 .64.64 0 0 1-.28 0 .79.79 0 0 1-.23-.16.87.87 0 0 1-.16-.23.93.93 0 0 1-.05-.29.88.88 0 0 1 .05-.29.78.78 0 0 1 .16-.24.72.72 0 0 1 .51-.22.67.67 0 0 1 .28.06.69.69 0 0 1 .22.16.61.61 0 0 1 .15.24.68.68 0 0 1 .06.29zM16.45 49.78a.68.68 0 0 1-.06.29.51.51 0 0 1-.15.23.69.69 0 0 1-.22.16.67.67 0 0 1-.28.06.76.76 0 0 1-.67-.45.88.88 0 0 1-.05-.29.93.93 0 0 1 .05-.29.74.74 0 0 1 .67-.45.67.67 0 0 1 .28.06.69.69 0 0 1 .22.16.51.51 0 0 1 .15.23.72.72 0 0 1 .06.29zM16.45 56.79a.72.72 0 0 1-.06.29.57.57 0 0 1-.15.23.69.69 0 0 1-.22.16.67.67 0 0 1-.28.06.72.72 0 0 1-.51-.22.73.73 0 0 1-.16-.23.87.87 0 0 1 0-.58.78.78 0 0 1 .16-.24.79.79 0 0 1 .23-.16.82.82 0 0 1 .28-.05.87.87 0 0 1 .28.05.89.89 0 0 1 .22.16.61.61 0 0 1 .15.24.72.72 0 0 1 .06.29zM16.45 63.79a.68.68 0 0 1-.06.29.61.61 0 0 1-.15.24.86.86 0 0 1-.22.15.67.67 0 0 1-.28.06.64.64 0 0 1-.28-.06.76.76 0 0 1-.23-.15.78.78 0 0 1-.16-.24.88.88 0 0 1-.05-.29.93.93 0 0 1 .05-.29.74.74 0 0 1 .67-.45.67.67 0 0 1 .28.06.69.69 0 0 1 .22.16.51.51 0 0 1 .15.23.72.72 0 0 1 .06.29zM16.45 70.8a.72.72 0 0 1-.06.29.57.57 0 0 1-.15.23.69.69 0 0 1-.22.16.67.67 0 0 1-.28.06.72.72 0 0 1-.51-.22.73.73 0 0 1-.16-.23.87.87 0 0 1 0-.58.78.78 0 0 1 .16-.24.79.79 0 0 1 .23-.16.82.82 0 0 1 .28 0 .87.87 0 0 1 .28 0 .89.89 0 0 1 .22.16.61.61 0 0 1 .15.24.72.72 0 0 1 .06.29zM21.46 4.29a.64.64 0 0 1-.06.28 1 1 0 0 1-.15.24A.94.94 0 0 1 21 5a.64.64 0 0 1-.28 0 .66.66 0 0 1-.28 0 .94.94 0 0 1-.23-.16 1 1 0 0 1-.15-.24.82.82 0 0 1 0-.28.88.88 0 0 1 0-.29 1 1 0 0 1 .15-.24.73.73 0 0 1 .23-.16.67.67 0 0 1 .28-.06.64.64 0 0 1 .28.03.73.73 0 0 1 .23.16 1 1 0 0 1 .17.24.68.68 0 0 1 .06.29zM21.46 11.29a.68.68 0 0 1-.06.29.76.76 0 0 1-.15.23.73.73 0 0 1-.25.19.64.64 0 0 1-.28.06.67.67 0 0 1-.28-.06.73.73 0 0 1-.23-.16.76.76 0 0 1-.15-.23.88.88 0 0 1 0-.29.93.93 0 0 1 0-.29.76.76 0 0 1 .15-.23.73.73 0 0 1 .23-.16.67.67 0 0 1 .28-.06.64.64 0 0 1 .28.06.73.73 0 0 1 .23.16.76.76 0 0 1 .15.23.72.72 0 0 1 .08.26zM21.46 18.3a.72.72 0 0 1-.06.29.91.91 0 0 1-.15.23.73.73 0 0 1-.25.18.64.64 0 0 1-.28.06.67.67 0 0 1-.28-.06.73.73 0 0 1-.23-.16.91.91 0 0 1-.15-.23.87.87 0 0 1 0-.58 1 1 0 0 1 .15-.24.94.94 0 0 1 .23-.16.66.66 0 0 1 .28-.05.64.64 0 0 1 .28.05.94.94 0 0 1 .23.16 1 1 0 0 1 .15.24.72.72 0 0 1 .08.27zM21.46 25.3a.68.68 0 0 1-.06.29 1 1 0 0 1-.15.24.91.91 0 0 1-.25.17.64.64 0 0 1-.28.06.67.67 0 0 1-.28-.06.91.91 0 0 1-.23-.15 1 1 0 0 1-.15-.24.88.88 0 0 1 0-.29.93.93 0 0 1 0-.29.76.76 0 0 1 .15-.23.73.73 0 0 1 .23-.16.67.67 0 0 1 .28-.06.64.64 0 0 1 .28.06.73.73 0 0 1 .23.16.76.76 0 0 1 .15.23.72.72 0 0 1 .08.27zM21.46 32.31a.72.72 0 0 1-.06.29.91.91 0 0 1-.15.23.73.73 0 0 1-.25.17.64.64 0 0 1-.28.06.67.67 0 0 1-.28-.06.73.73 0 0 1-.23-.16.91.91 0 0 1-.15-.23.87.87 0 0 1 0-.58 1 1 0 0 1 .15-.24.94.94 0 0 1 .23-.16.87.87 0 0 1 .28-.05.82.82 0 0 1 .28.05.94.94 0 0 1 .23.16 1 1 0 0 1 .15.24.72.72 0 0 1 .08.28zM21.46 39.32a.64.64 0 0 1-.06.28 1 1 0 0 1-.15.24.7.7 0 0 1-.25.16.64.64 0 0 1-.28.06.67.67 0 0 1-.28-.06.7.7 0 0 1-.23-.15 1 1 0 0 1-.15-.24.82.82 0 0 1 0-.28.88.88 0 0 1 0-.29.82.82 0 0 1 .15-.24.73.73 0 0 1 .23-.16.67.67 0 0 1 .28-.06.64.64 0 0 1 .28.06.73.73 0 0 1 .23.16.82.82 0 0 1 .15.24.68.68 0 0 1 .08.28zM21.46 46.32a.68.68 0 0 1-.06.29.76.76 0 0 1-.15.23.73.73 0 0 1-.25.16.64.64 0 0 1-.28.06.67.67 0 0 1-.28-.06.73.73 0 0 1-.23-.16.76.76 0 0 1-.15-.23.88.88 0 0 1 0-.29.93.93 0 0 1 0-.29.76.76 0 0 1 .15-.23.73.73 0 0 1 .23-.16.67.67 0 0 1 .28-.06.64.64 0 0 1 .28.06.73.73 0 0 1 .23.16.76.76 0 0 1 .15.23.72.72 0 0 1 .08.29zM21.46 53.33a.64.64 0 0 1-.06.28 1 1 0 0 1-.15.24.94.94 0 0 1-.25.15.64.64 0 0 1-.28.05.66.66 0 0 1-.28-.05.94.94 0 0 1-.23-.16 1 1 0 0 1-.15-.24.82.82 0 0 1 0-.28.88.88 0 0 1 0-.29 1 1 0 0 1 .15-.24.73.73 0 0 1 .23-.16.67.67 0 0 1 .28-.06.64.64 0 0 1 .28.06.73.73 0 0 1 .23.16 1 1 0 0 1 .15.24.68.68 0 0 1 .08.3zM21.46 60.33a.68.68 0 0 1-.06.29.76.76 0 0 1-.15.23.73.73 0 0 1-.25.15.64.64 0 0 1-.28.06.67.67 0 0 1-.28-.06.73.73 0 0 1-.23-.16.76.76 0 0 1-.15-.23.88.88 0 0 1 0-.29.93.93 0 0 1 0-.29.76.76 0 0 1 .15-.23.73.73 0 0 1 .23-.16.67.67 0 0 1 .28-.06.64.64 0 0 1 .28.06.73.73 0 0 1 .23.16.76.76 0 0 1 .15.23.72.72 0 0 1 .08.3zM21.46 67.34a.72.72 0 0 1-.06.29.91.91 0 0 1-.15.23.73.73 0 0 1-.25.14.64.64 0 0 1-.28.06.67.67 0 0 1-.28-.06.73.73 0 0 1-.23-.16.91.91 0 0 1-.15-.23.87.87 0 0 1 0-.58 1 1 0 0 1 .15-.24.73.73 0 0 1 .23-.16.66.66 0 0 1 .28-.05.64.64 0 0 1 .28.05.73.73 0 0 1 .23.16 1 1 0 0 1 .15.24.72.72 0 0 1 .08.31zM6.44.74a.68.68 0 0 1-.06.26.76.76 0 0 1-.15.23.73.73 0 0 1-.23.19.64.64 0 0 1-.28.06.67.67 0 0 1-.28-.06.73.73 0 0 1-.23-.16.76.76 0 0 1-.15-.26A.68.68 0 0 1 5 .74a.71.71 0 0 1 0-.29.76.76 0 0 1 .21-.23.73.73 0 0 1 .23-.16.67.67 0 0 1 .28-.06.64.64 0 0 1 .28.06.73.73 0 0 1 .23.16.76.76 0 0 1 .15.23.72.72 0 0 1 .06.29zM6.44 7.75a.72.72 0 0 1-.06.25 1.14 1.14 0 0 1-.15.23.73.73 0 0 1-.23.2.64.64 0 0 1-.28.06.67.67 0 0 1-.28-.06.73.73 0 0 1-.23-.16A1.14 1.14 0 0 1 5.06 8a.87.87 0 0 1 0-.58 1 1 0 0 1 .15-.24.73.73 0 0 1 .23-.16.66.66 0 0 1 .28 0 .64.64 0 0 1 .28 0 .73.73 0 0 1 .23.16 1 1 0 0 1 .15.24.72.72 0 0 1 .06.33zM6.44 14.75a.68.68 0 0 1-.06.29 1 1 0 0 1-.15.24.7.7 0 0 1-.23.15.64.64 0 0 1-.28.06.67.67 0 0 1-.28-.06.7.7 0 0 1-.23-.15 1 1 0 0 1-.15-.28.68.68 0 0 1 0-.29.71.71 0 0 1 0-.29.76.76 0 0 1 .15-.23.73.73 0 0 1 .23-.16.67.67 0 0 1 .28-.03.64.64 0 0 1 .28.06.73.73 0 0 1 .23.16.76.76 0 0 1 .15.23.72.72 0 0 1 .06.3zM6.44 21.76a.72.72 0 0 1-.06.29.91.91 0 0 1-.15.23.73.73 0 0 1-.23.16.64.64 0 0 1-.28.06.67.67 0 0 1-.28-.06.73.73 0 0 1-.23-.16.91.91 0 0 1-.15-.23.87.87 0 0 1 0-.58 1 1 0 0 1 .15-.24.7.7 0 0 1 .23-.15.67.67 0 0 1 .28-.08.64.64 0 0 1 .28.06.7.7 0 0 1 .23.15 1 1 0 0 1 .15.24.72.72 0 0 1 .06.31zM6.44 28.77a.64.64 0 0 1-.06.28 1 1 0 0 1-.15.24.7.7 0 0 1-.23.15.64.64 0 0 1-.28.06.67.67 0 0 1-.28-.06.7.7 0 0 1-.23-.15 1 1 0 0 1-.15-.24.64.64 0 0 1 0-.28.68.68 0 0 1 0-.29.82.82 0 0 1 .15-.24.73.73 0 0 1 .23-.16.67.67 0 0 1 .28-.08.64.64 0 0 1 .28.06.73.73 0 0 1 .23.16.82.82 0 0 1 .15.24.68.68 0 0 1 .06.31zM6.44 35.77a.68.68 0 0 1-.06.29.76.76 0 0 1-.15.23.73.73 0 0 1-.23.16.64.64 0 0 1-.28.06.67.67 0 0 1-.28-.06.73.73 0 0 1-.23-.16.76.76 0 0 1-.15-.23.68.68 0 0 1 0-.29.71.71 0 0 1 0-.29.76.76 0 0 1 .15-.23.73.73 0 0 1 .23-.16.67.67 0 0 1 .28-.09.64.64 0 0 1 .28.06.73.73 0 0 1 .23.16.76.76 0 0 1 .15.23.72.72 0 0 1 .06.32zM6.44 42.78a.72.72 0 0 1-.06.29 1.14 1.14 0 0 1-.15.23.94.94 0 0 1-.23.16.64.64 0 0 1-.28 0 .66.66 0 0 1-.28 0 .94.94 0 0 1-.23-.16 1.14 1.14 0 0 1-.15-.23.71.71 0 0 1 0-.29.68.68 0 0 1 0-.29 1 1 0 0 1 .15-.24.73.73 0 0 1 .23-.16.67.67 0 0 1 .28-.09.64.64 0 0 1 .28.06.73.73 0 0 1 .23.16 1 1 0 0 1 .15.24.68.68 0 0 1 .06.32zM6.44 49.78a.68.68 0 0 1-.06.29.76.76 0 0 1-.15.23.73.73 0 0 1-.23.16.64.64 0 0 1-.28.06.67.67 0 0 1-.28-.06.73.73 0 0 1-.23-.16.76.76 0 0 1-.15-.23.68.68 0 0 1 0-.29.71.71 0 0 1 0-.29.76.76 0 0 1 .15-.23.73.73 0 0 1 .23-.16.67.67 0 0 1 .28-.1.64.64 0 0 1 .28.1.73.73 0 0 1 .23.16.76.76 0 0 1 .15.23.72.72 0 0 1 .06.29zM6.44 56.79a.72.72 0 0 1-.06.29.91.91 0 0 1-.15.23.73.73 0 0 1-.23.16.64.64 0 0 1-.28.06.67.67 0 0 1-.28-.06.73.73 0 0 1-.23-.16.91.91 0 0 1-.15-.23.87.87 0 0 1 0-.58 1 1 0 0 1 .15-.24.94.94 0 0 1 .23-.16.87.87 0 0 1 .28-.05.82.82 0 0 1 .28.05.94.94 0 0 1 .23.16 1 1 0 0 1 .15.24.72.72 0 0 1 .06.29zM6.44 63.79a.68.68 0 0 1-.06.29 1 1 0 0 1-.15.24.91.91 0 0 1-.23.15.64.64 0 0 1-.28.06.67.67 0 0 1-.28-.06.91.91 0 0 1-.23-.15 1 1 0 0 1-.15-.24.68.68 0 0 1 0-.29.71.71 0 0 1 0-.29.76.76 0 0 1 .15-.23.73.73 0 0 1 .23-.16.67.67 0 0 1 .28-.06.64.64 0 0 1 .28.06.73.73 0 0 1 .23.16.76.76 0 0 1 .15.23.72.72 0 0 1 .06.29zM6.44 70.8a.72.72 0 0 1-.06.29.91.91 0 0 1-.15.23.73.73 0 0 1-.23.16.64.64 0 0 1-.28.06.67.67 0 0 1-.28-.06.73.73 0 0 1-.23-.16.91.91 0 0 1-.15-.23.87.87 0 0 1 0-.58 1 1 0 0 1 .15-.24.94.94 0 0 1 .23-.16.87.87 0 0 1 .28 0 .82.82 0 0 1 .28 0 .94.94 0 0 1 .23.16 1 1 0 0 1 .15.24.72.72 0 0 1 .06.29zM11.44 4.29a.82.82 0 0 1 0 .28 1 1 0 0 1-.15.24A1.19 1.19 0 0 1 11 5a.81.81 0 0 1-.56 0 .79.79 0 0 1-.23-.16.75.75 0 0 1-.15-.24.64.64 0 0 1-.06-.31.68.68 0 0 1 .07-.29.75.75 0 0 1 .15-.24.63.63 0 0 1 .23-.16.68.68 0 0 1 .56 0 .87.87 0 0 1 .23.16 1 1 0 0 1 .15.24.88.88 0 0 1 .05.29zM11.44 11.29a.88.88 0 0 1 0 .29.76.76 0 0 1-.15.23.87.87 0 0 1-.29.19.68.68 0 0 1-.56 0 .63.63 0 0 1-.23-.16.61.61 0 0 1-.15-.23.68.68 0 0 1-.06-.29.72.72 0 0 1 .06-.29.61.61 0 0 1 .15-.23.63.63 0 0 1 .23-.16.68.68 0 0 1 .56 0 .87.87 0 0 1 .23.16.76.76 0 0 1 .15.23.93.93 0 0 1 .06.26zM11.44 18.3a.93.93 0 0 1 0 .29.91.91 0 0 1-.15.23.87.87 0 0 1-.29.18.68.68 0 0 1-.56 0 .63.63 0 0 1-.23-.16.7.7 0 0 1-.15-.23.73.73 0 0 1 0-.58.75.75 0 0 1 .15-.24.79.79 0 0 1 .23-.16.81.81 0 0 1 .56 0 1.19 1.19 0 0 1 .23.16 1 1 0 0 1 .15.24.93.93 0 0 1 .06.27zM11.44 25.3a.88.88 0 0 1 0 .29 1 1 0 0 1-.15.24A1.14 1.14 0 0 1 11 26a.68.68 0 0 1-.56 0 .76.76 0 0 1-.23-.15.75.75 0 0 1-.15-.24.68.68 0 0 1-.06-.31.72.72 0 0 1 .06-.29.61.61 0 0 1 .15-.23.63.63 0 0 1 .23-.16.68.68 0 0 1 .56 0 .87.87 0 0 1 .23.16.76.76 0 0 1 .15.23.93.93 0 0 1 .06.29zM11.44 32.31a.93.93 0 0 1 0 .29.91.91 0 0 1-.15.23.87.87 0 0 1-.29.17.68.68 0 0 1-.56 0 .63.63 0 0 1-.23-.16.7.7 0 0 1-.15-.23.73.73 0 0 1 0-.58.75.75 0 0 1 .15-.24.79.79 0 0 1 .23-.16.81.81 0 0 1 .56 0 1.19 1.19 0 0 1 .23.16 1 1 0 0 1 .15.24.93.93 0 0 1 .06.28zM11.44 39.32a.82.82 0 0 1 0 .28 1 1 0 0 1-.15.24.83.83 0 0 1-.29.16.68.68 0 0 1-.56 0 .61.61 0 0 1-.23-.15.75.75 0 0 1-.15-.24.64.64 0 0 1-.06-.28.68.68 0 0 1 .06-.29.65.65 0 0 1 .15-.24.63.63 0 0 1 .23-.16.68.68 0 0 1 .56 0 .87.87 0 0 1 .23.16.82.82 0 0 1 .15.24.88.88 0 0 1 .06.28zM11.44 46.32a.88.88 0 0 1 0 .29.76.76 0 0 1-.15.23.87.87 0 0 1-.29.16.68.68 0 0 1-.56 0 .63.63 0 0 1-.23-.16.61.61 0 0 1-.15-.23.68.68 0 0 1-.06-.29.72.72 0 0 1 .06-.29.61.61 0 0 1 .15-.23.63.63 0 0 1 .23-.16.68.68 0 0 1 .56 0 .87.87 0 0 1 .23.16.76.76 0 0 1 .15.23.93.93 0 0 1 .06.29zM11.44 53.33a.82.82 0 0 1 0 .28 1 1 0 0 1-.15.24A1.19 1.19 0 0 1 11 54a.81.81 0 0 1-.56 0 .79.79 0 0 1-.23-.16.75.75 0 0 1-.15-.24.64.64 0 0 1-.06-.28.68.68 0 0 1 .06-.29.75.75 0 0 1 .15-.24.63.63 0 0 1 .23-.16.68.68 0 0 1 .56 0 .87.87 0 0 1 .23.16 1 1 0 0 1 .15.24.88.88 0 0 1 .06.3zM11.44 60.33a.88.88 0 0 1 0 .29.76.76 0 0 1-.15.23.87.87 0 0 1-.29.15.68.68 0 0 1-.56 0 .63.63 0 0 1-.23-.16.61.61 0 0 1-.15-.23.68.68 0 0 1-.06-.29.72.72 0 0 1 .06-.29.61.61 0 0 1 .15-.23.63.63 0 0 1 .23-.16.68.68 0 0 1 .56 0 .87.87 0 0 1 .23.16.76.76 0 0 1 .15.23.93.93 0 0 1 .06.3zM11.44 67.34a.93.93 0 0 1 0 .29.91.91 0 0 1-.15.23.87.87 0 0 1-.29.14.68.68 0 0 1-.56 0 .63.63 0 0 1-.23-.16.7.7 0 0 1-.15-.23.73.73 0 0 1 0-.58.75.75 0 0 1 .15-.24.63.63 0 0 1 .23-.16.81.81 0 0 1 .56 0 .87.87 0 0 1 .23.16 1 1 0 0 1 .15.24.93.93 0 0 1 .06.31zM1.43 4.29a.64.64 0 0 1-.06.28.61.61 0 0 1-.15.24A.89.89 0 0 1 1 5a.66.66 0 0 1-.28 0 .64.64 0 0 1-.28 0 .79.79 0 0 1-.23-.16.78.78 0 0 1-.16-.24.82.82 0 0 1 0-.28.88.88 0 0 1 0-.32.78.78 0 0 1 .16-.24.63.63 0 0 1 .23-.16.64.64 0 0 1 .28-.06.67.67 0 0 1 .28.06.69.69 0 0 1 .22.16.61.61 0 0 1 .15.24.68.68 0 0 1 .06.29zM1.43 11.29a.68.68 0 0 1-.06.29.51.51 0 0 1-.15.23A.69.69 0 0 1 1 12a.67.67 0 0 1-.28 0 .64.64 0 0 1-.28 0 .63.63 0 0 1-.23-.16.63.63 0 0 1-.16-.23.88.88 0 0 1 0-.29.93.93 0 0 1 0-.32.63.63 0 0 1 .16-.23.63.63 0 0 1 .23-.16.64.64 0 0 1 .28-.06.67.67 0 0 1 .28.06.69.69 0 0 1 .22.16.51.51 0 0 1 .15.23.72.72 0 0 1 .06.29zM1.43 18.3a.72.72 0 0 1-.06.29.57.57 0 0 1-.15.23A.69.69 0 0 1 1 19a.67.67 0 0 1-.28 0 .64.64 0 0 1-.28 0 .63.63 0 0 1-.23-.16.73.73 0 0 1-.16-.23.87.87 0 0 1 0-.58.78.78 0 0 1 .16-.24.79.79 0 0 1 .23-.16.64.64 0 0 1 .28-.05.66.66 0 0 1 .28.05.89.89 0 0 1 .22.16.61.61 0 0 1 .15.24.72.72 0 0 1 .06.27zM1.43 25.3a.68.68 0 0 1-.06.29.61.61 0 0 1-.15.24A.86.86 0 0 1 1 26a.67.67 0 0 1-.28 0 .64.64 0 0 1-.28 0 .76.76 0 0 1-.23-.15.78.78 0 0 1-.16-.24.88.88 0 0 1 0-.29.93.93 0 0 1 0-.32.63.63 0 0 1 .16-.23.63.63 0 0 1 .23-.16.64.64 0 0 1 .28-.06.67.67 0 0 1 .28.06.69.69 0 0 1 .22.16.51.51 0 0 1 .15.23.72.72 0 0 1 .06.3zM1.43 32.31a.72.72 0 0 1-.06.29.57.57 0 0 1-.15.23A.69.69 0 0 1 1 33a.67.67 0 0 1-.28.06.64.64 0 0 1-.28-.06.63.63 0 0 1-.23-.16.73.73 0 0 1-.16-.23.87.87 0 0 1 0-.58.78.78 0 0 1 .16-.24.79.79 0 0 1 .23-.16.82.82 0 0 1 .28-.05.87.87 0 0 1 .28.05.89.89 0 0 1 .22.16.61.61 0 0 1 .15.24.72.72 0 0 1 .06.28zM1.43 39.32a.64.64 0 0 1-.06.28.61.61 0 0 1-.15.24A.66.66 0 0 1 1 40a.67.67 0 0 1-.28.06.64.64 0 0 1-.28-.06.61.61 0 0 1-.23-.15.78.78 0 0 1-.16-.24.82.82 0 0 1 0-.28.88.88 0 0 1 0-.33.67.67 0 0 1 .16-.24.63.63 0 0 1 .23-.16.64.64 0 0 1 .28-.06.67.67 0 0 1 .28.06.69.69 0 0 1 .22.16.55.55 0 0 1 .15.24.68.68 0 0 1 .06.32zM1.43 46.32a.68.68 0 0 1-.06.29.51.51 0 0 1-.15.23A.69.69 0 0 1 1 47a.67.67 0 0 1-.28.06.64.64 0 0 1-.28-.06.63.63 0 0 1-.23-.16.63.63 0 0 1-.16-.23.88.88 0 0 1 0-.29.93.93 0 0 1 0-.32.63.63 0 0 1 .16-.23.63.63 0 0 1 .23-.16.64.64 0 0 1 .28-.06.67.67 0 0 1 .28.06.69.69 0 0 1 .22.16.51.51 0 0 1 .15.23.72.72 0 0 1 .06.32zM1.43 53.33a.64.64 0 0 1-.06.28.61.61 0 0 1-.15.24A.89.89 0 0 1 1 54a.66.66 0 0 1-.28.05.64.64 0 0 1-.28-.05.79.79 0 0 1-.23-.16.78.78 0 0 1-.16-.24.82.82 0 0 1 0-.28.88.88 0 0 1 0-.32.78.78 0 0 1 .16-.24.63.63 0 0 1 .23-.16.64.64 0 0 1 .28-.06.67.67 0 0 1 .28.06.69.69 0 0 1 .22.16.61.61 0 0 1 .15.24.68.68 0 0 1 .06.33zM1.43 60.33a.68.68 0 0 1-.06.29.51.51 0 0 1-.15.23A.69.69 0 0 1 1 61a.67.67 0 0 1-.28.06.64.64 0 0 1-.28-.06.63.63 0 0 1-.23-.16.63.63 0 0 1-.16-.23.88.88 0 0 1 0-.29.93.93 0 0 1 0-.32.63.63 0 0 1 .16-.23.63.63 0 0 1 .23-.16.64.64 0 0 1 .28-.06.67.67 0 0 1 .28.06.69.69 0 0 1 .22.16.51.51 0 0 1 .15.23.72.72 0 0 1 .06.33zM1.43 67.34a.72.72 0 0 1-.06.29.57.57 0 0 1-.15.23A.69.69 0 0 1 1 68a.67.67 0 0 1-.28.06.64.64 0 0 1-.28-.06.63.63 0 0 1-.23-.16.73.73 0 0 1-.16-.23.87.87 0 0 1 0-.58.78.78 0 0 1 .16-.24.63.63 0 0 1 .23-.16.64.64 0 0 1 .28-.05.66.66 0 0 1 .28.05.69.69 0 0 1 .22.16.61.61 0 0 1 .15.24.72.72 0 0 1 .06.31z"/></g></g></svg>