<svg xmlns="http://www.w3.org/2000/svg" viewBox="0 0 91.27 193.45"><defs><style>.cls-1{fill:#b1a693}</style></defs><g id="Layer_2" data-name="Layer 2"><g id="Layer_1-2" data-name="Layer 1"><path class="cls-1" d="M1 0a.94.94 0 0 1 .37.07 1 1 0 0 1 .29.19.94.94 0 0 1 .2.29.86.86 0 0 1 .08.36.94.94 0 0 1-.08.36.84.84 0 0 1-.2.29.81.81 0 0 1-.29.19.94.94 0 0 1-.37.07.9.9 0 0 1-.37-.07.77.77 0 0 1-.3-.19.86.86 0 0 1-.21-.29A.92.92 0 0 1 0 .91.86.86 0 0 1 .07.55 1 1 0 0 1 .28.26a.91.91 0 0 1 .3-.19A.9.9 0 0 1 1 0zM9.89 0a.86.86 0 0 1 .36.07.91.91 0 0 1 .3.19.94.94 0 0 1 .2.29.86.86 0 0 1 .08.36.94.94 0 0 1-.08.36.84.84 0 0 1-.2.29.77.77 0 0 1-.3.19.86.86 0 0 1-.36.07.87.87 0 0 1-.37-.07.89.89 0 0 1-.31-.19A1 1 0 0 1 9 1.27a.92.92 0 0 1-.06-.36A.86.86 0 0 1 9 .55a1.15 1.15 0 0 1 .2-.29 1.08 1.08 0 0 1 .32-.19.87.87 0 0 1 .37-.07zM18.82 0a.87.87 0 0 1 .37.07 1.17 1.17 0 0 1 .3.19 1.15 1.15 0 0 1 .2.29.86.86 0 0 1 .07.36.92.92 0 0 1-.07.36 1 1 0 0 1-.2.29 1 1 0 0 1-.3.19.87.87 0 0 1-.37.07.94.94 0 0 1-.37-.07 1 1 0 0 1-.3-.19 1 1 0 0 1-.2-.29.92.92 0 0 1-.07-.36.86.86 0 0 1 .12-.36 1.15 1.15 0 0 1 .2-.29 1.17 1.17 0 0 1 .3-.19.94.94 0 0 1 .32-.07zM27.76 0a.9.9 0 0 1 .37.07 1.17 1.17 0 0 1 .3.19 1.15 1.15 0 0 1 .2.29.86.86 0 0 1 .07.36.92.92 0 0 1-.07.36 1 1 0 0 1-.2.29 1 1 0 0 1-.3.19.9.9 0 0 1-.37.07.94.94 0 0 1-.37-.07 1 1 0 0 1-.3-.19.84.84 0 0 1-.2-.29.94.94 0 0 1-.08-.36.86.86 0 0 1 .08-.36.94.94 0 0 1 .2-.29 1.17 1.17 0 0 1 .3-.19.94.94 0 0 1 .37-.07zM36.7 0a.94.94 0 0 1 .37.07 1 1 0 0 1 .5.48.86.86 0 0 1 .07.36.92.92 0 0 1-.07.36.86.86 0 0 1-.21.29.81.81 0 0 1-.29.19.94.94 0 0 1-.37.07.9.9 0 0 1-.37-.07.77.77 0 0 1-.3-.19.84.84 0 0 1-.2-.29.94.94 0 0 1-.08-.36.86.86 0 0 1 .08-.36.94.94 0 0 1 .17-.29.91.91 0 0 1 .3-.19.9.9 0 0 1 .4-.07zM45.64 0a.94.94 0 0 1 .36.07 1 1 0 0 1 .29.19.8.8 0 0 1 .2.29.86.86 0 0 1 .08.36.94.94 0 0 1-.08.36.72.72 0 0 1-.2.29.81.81 0 0 1-.29.19.94.94 0 0 1-.37.07.9.9 0 0 1-.37-.07.77.77 0 0 1-.3-.19.86.86 0 0 1-.21-.29 1.15 1.15 0 0 1-.07-.36 1 1 0 0 1 .07-.36A1 1 0 0 1 45 .26a.91.91 0 0 1 .3-.19.9.9 0 0 1 .34-.07zM54.58 0a.86.86 0 0 1 .36.07.91.91 0 0 1 .3.19.94.94 0 0 1 .2.29.86.86 0 0 1 .08.36.94.94 0 0 1-.08.36.84.84 0 0 1-.2.29.77.77 0 0 1-.3.19.86.86 0 0 1-.36.07.87.87 0 0 1-.37-.07.89.89 0 0 1-.31-.19 1 1 0 0 1-.2-.29.92.92 0 0 1-.07-.36.86.86 0 0 1 .07-.36 1.15 1.15 0 0 1 .2-.29 1.08 1.08 0 0 1 .31-.19.87.87 0 0 1 .37-.07zM63.51 0a.87.87 0 0 1 .37.07 1.17 1.17 0 0 1 .3.19 1.15 1.15 0 0 1 .2.29.86.86 0 0 1 .07.36.92.92 0 0 1-.07.36 1 1 0 0 1-.2.29 1 1 0 0 1-.3.19.87.87 0 0 1-.37.07.94.94 0 0 1-.37-.07 1 1 0 0 1-.3-.19 1 1 0 0 1-.2-.29.92.92 0 0 1-.07-.36.86.86 0 0 1 .07-.36 1.15 1.15 0 0 1 .2-.29 1.17 1.17 0 0 1 .3-.19.94.94 0 0 1 .37-.07zM72.45 0a.87.87 0 0 1 .37.07 1.17 1.17 0 0 1 .3.19 1.15 1.15 0 0 1 .2.29.86.86 0 0 1 .07.36.92.92 0 0 1-.07.36 1 1 0 0 1-.2.29 1 1 0 0 1-.3.19.87.87 0 0 1-.37.07.94.94 0 0 1-.37-.07 1 1 0 0 1-.3-.19 1 1 0 0 1-.2-.29.94.94 0 0 1-.08-.36.86.86 0 0 1 .08-.36 1.15 1.15 0 0 1 .2-.29 1.17 1.17 0 0 1 .3-.19.94.94 0 0 1 .37-.07zM81.39 0a.9.9 0 0 1 .37.07 1 1 0 0 1 .5.48.86.86 0 0 1 .07.36.92.92 0 0 1-.07.36.86.86 0 0 1-.21.29.81.81 0 0 1-.29.19.9.9 0 0 1-.37.07.94.94 0 0 1-.39-.07.77.77 0 0 1-.3-.19.84.84 0 0 1-.2-.29.94.94 0 0 1-.08-.36.86.86 0 0 1 .08-.36.94.94 0 0 1 .2-.29.91.91 0 0 1 .3-.19.94.94 0 0 1 .39-.07zM90.33 0a.94.94 0 0 1 .37.07 1 1 0 0 1 .3.19.8.8 0 0 1 .2.29.86.86 0 0 1 .08.36.94.94 0 0 1-.08.36.72.72 0 0 1-.2.29.81.81 0 0 1-.29.19.94.94 0 0 1-.37.07.9.9 0 0 1-.34-.07.77.77 0 0 1-.3-.19.86.86 0 0 1-.21-.29.92.92 0 0 1-.07-.36.86.86 0 0 1 .07-.36 1 1 0 0 1 .21-.29.91.91 0 0 1 .3-.19.9.9 0 0 1 .33-.07zM1 12.78a.94.94 0 0 1 .37.07.81.81 0 0 1 .29.19.84.84 0 0 1 .2.29.85.85 0 0 1 .08.35.86.86 0 0 1-.08.36.84.84 0 0 1-.2.29.84.84 0 0 1-.29.2 1.16 1.16 0 0 1-.37.07 1.11 1.11 0 0 1-.37-.07.79.79 0 0 1-.3-.2.84.84 0 0 1-.33-.65.84.84 0 0 1 .07-.35.86.86 0 0 1 .21-.33.77.77 0 0 1 .3-.19.9.9 0 0 1 .42-.03zM9.89 12.78a.86.86 0 0 1 .36.07.77.77 0 0 1 .3.19.84.84 0 0 1 .2.29.85.85 0 0 1 .08.35.86.86 0 0 1-.08.36.84.84 0 0 1-.2.29.79.79 0 0 1-.3.2 1 1 0 0 1-.36.07 1.06 1.06 0 0 1-.37-.07.92.92 0 0 1-.31-.2A1 1 0 0 1 9 14a.86.86 0 0 1-.07-.36.84.84 0 0 1 .07-.31 1 1 0 0 1 .2-.29.89.89 0 0 1 .31-.19.87.87 0 0 1 .38-.07zM18.82 12.78a.87.87 0 0 1 .37.07 1 1 0 0 1 .3.19 1 1 0 0 1 .2.29.84.84 0 0 1 .07.35.86.86 0 0 1-.07.36 1 1 0 0 1-.2.29 1 1 0 0 1-.3.2 1.06 1.06 0 0 1-.37.07 1.16 1.16 0 0 1-.37-.07 1 1 0 0 1-.3-.2A1 1 0 0 1 18 14a.86.86 0 0 1-.07-.36.84.84 0 0 1 .07-.35 1 1 0 0 1 .2-.29 1 1 0 0 1 .3-.19.94.94 0 0 1 .32-.03zM27.76 12.78a.9.9 0 0 1 .37.07 1 1 0 0 1 .3.19 1 1 0 0 1 .2.29.84.84 0 0 1 .07.35.86.86 0 0 1-.07.36 1 1 0 0 1-.2.29 1 1 0 0 1-.3.2 1.11 1.11 0 0 1-.37.07 1.16 1.16 0 0 1-.37-.07 1 1 0 0 1-.3-.2.84.84 0 0 1-.2-.29.86.86 0 0 1-.08-.36.85.85 0 0 1 .08-.35.84.84 0 0 1 .2-.29 1 1 0 0 1 .3-.19.94.94 0 0 1 .37-.07zM36.7 12.78a.94.94 0 0 1 .37.07.81.81 0 0 1 .29.19.86.86 0 0 1 .21.29.84.84 0 0 1 .07.35.84.84 0 0 1-.28.65.84.84 0 0 1-.29.2 1.16 1.16 0 0 1-.37.07 1.11 1.11 0 0 1-.37-.07.79.79 0 0 1-.3-.2.84.84 0 0 1-.2-.29.86.86 0 0 1-.08-.36.85.85 0 0 1 .08-.35A.84.84 0 0 1 36 13a.77.77 0 0 1 .3-.19.9.9 0 0 1 .4-.03zM45.64 12.78a.94.94 0 0 1 .37.07.81.81 0 0 1 .29.19.72.72 0 0 1 .2.29.85.85 0 0 1 .08.35.86.86 0 0 1-.08.36.72.72 0 0 1-.2.29.84.84 0 0 1-.29.2 1.16 1.16 0 0 1-.37.07 1.11 1.11 0 0 1-.37-.07.79.79 0 0 1-.3-.2.86.86 0 0 1-.21-.29.94.94 0 0 1 0-.71A.86.86 0 0 1 45 13a.77.77 0 0 1 .3-.19.9.9 0 0 1 .34-.03zM54.58 12.78a.86.86 0 0 1 .36.07.77.77 0 0 1 .3.19.84.84 0 0 1 .2.29.85.85 0 0 1 .08.35.86.86 0 0 1-.08.36.84.84 0 0 1-.2.29.79.79 0 0 1-.3.2 1 1 0 0 1-.36.07 1.06 1.06 0 0 1-.37-.07.92.92 0 0 1-.31-.2 1 1 0 0 1-.2-.29.86.86 0 0 1-.07-.36.84.84 0 0 1 .07-.35 1 1 0 0 1 .2-.29.89.89 0 0 1 .31-.19.87.87 0 0 1 .37-.07zM63.51 12.78a.87.87 0 0 1 .37.07 1 1 0 0 1 .3.19 1 1 0 0 1 .2.29.84.84 0 0 1 .07.35.86.86 0 0 1-.07.36 1 1 0 0 1-.2.29 1 1 0 0 1-.3.2 1.06 1.06 0 0 1-.37.07 1.16 1.16 0 0 1-.37-.07 1 1 0 0 1-.3-.2 1 1 0 0 1-.2-.29.86.86 0 0 1-.07-.36.84.84 0 0 1 .07-.35 1 1 0 0 1 .2-.29 1 1 0 0 1 .3-.19.94.94 0 0 1 .37-.07zM72.45 12.78a.87.87 0 0 1 .37.07 1 1 0 0 1 .3.19 1 1 0 0 1 .2.29.84.84 0 0 1 .07.35.86.86 0 0 1-.07.36 1 1 0 0 1-.2.29 1 1 0 0 1-.3.2 1.06 1.06 0 0 1-.37.07 1.16 1.16 0 0 1-.37-.07 1 1 0 0 1-.3-.2 1 1 0 0 1-.2-.29.86.86 0 0 1-.08-.36.85.85 0 0 1 .08-.35 1 1 0 0 1 .2-.29 1 1 0 0 1 .3-.19.94.94 0 0 1 .37-.07zM81.39 12.78a.9.9 0 0 1 .37.07.81.81 0 0 1 .29.19.86.86 0 0 1 .21.29.84.84 0 0 1 .07.35.84.84 0 0 1-.28.65.84.84 0 0 1-.29.2 1.11 1.11 0 0 1-.37.07 1.16 1.16 0 0 1-.37-.07.79.79 0 0 1-.3-.2.84.84 0 0 1-.2-.29.86.86 0 0 1-.08-.36.85.85 0 0 1 .08-.35.84.84 0 0 1 .2-.29.77.77 0 0 1 .3-.19.94.94 0 0 1 .37-.07zM90.33 12.78a.94.94 0 0 1 .37.07.81.81 0 0 1 .3.15.72.72 0 0 1 .2.29.85.85 0 0 1 .08.35.86.86 0 0 1-.08.36.72.72 0 0 1-.2.29.84.84 0 0 1-.29.2 1.16 1.16 0 0 1-.37.07 1.11 1.11 0 0 1-.37-.07.79.79 0 0 1-.3-.2.84.84 0 0 1-.28-.65.84.84 0 0 1 .07-.35.86.86 0 0 1 .21-.29.77.77 0 0 1 .3-.19.9.9 0 0 1 .36-.03zM5.47 6.39a.94.94 0 0 1 .37.07.81.81 0 0 1 .29.19.86.86 0 0 1 .21.29.84.84 0 0 1 .07.35.86.86 0 0 1-.07.36.9.9 0 0 1-.21.3 1 1 0 0 1-.29.19.94.94 0 0 1-.37.07A1 1 0 0 1 4.8 8a.88.88 0 0 1-.2-.3.86.86 0 0 1-.08-.36.85.85 0 0 1 .08-.35.84.84 0 0 1 .2-.29.77.77 0 0 1 .3-.19.9.9 0 0 1 .37-.12zM14.41 6.39a.86.86 0 0 1 .36.07.77.77 0 0 1 .3.19.84.84 0 0 1 .2.29.85.85 0 0 1 .08.35.86.86 0 0 1-.08.36.88.88 0 0 1-.2.3.91.91 0 0 1-.3.19.86.86 0 0 1-.36.07.94.94 0 0 1-.88-.56.86.86 0 0 1-.07-.36.84.84 0 0 1 .07-.35.86.86 0 0 1 .21-.29.77.77 0 0 1 .3-.19.9.9 0 0 1 .37-.07zM23.35 6.39a.86.86 0 0 1 .36.07.77.77 0 0 1 .3.19.84.84 0 0 1 .2.29.85.85 0 0 1 .08.35.86.86 0 0 1-.08.36A.88.88 0 0 1 24 8a.91.91 0 0 1-.3.19.86.86 0 0 1-.36.07.87.87 0 0 1-.34-.12 1.08 1.08 0 0 1-.33-.14 1 1 0 0 1-.2-.3.86.86 0 0 1-.07-.36.84.84 0 0 1 .07-.35 1 1 0 0 1 .2-.29.89.89 0 0 1 .33-.24.87.87 0 0 1 .35-.07zM32.28 6.39a.87.87 0 0 1 .37.07 1 1 0 0 1 .3.19 1 1 0 0 1 .2.29.84.84 0 0 1 .07.35.86.86 0 0 1-.07.36A1 1 0 0 1 33 8a1.17 1.17 0 0 1-.3.19.87.87 0 0 1-.37.07.94.94 0 0 1-.37-.07 1.17 1.17 0 0 1-.3-.19 1 1 0 0 1-.2-.3.86.86 0 0 1-.07-.36.84.84 0 0 1 .07-.35 1 1 0 0 1 .2-.29 1 1 0 0 1 .3-.19.94.94 0 0 1 .32-.12zM41.22 6.39a.9.9 0 0 1 .37.07 1 1 0 0 1 .3.19 1 1 0 0 1 .2.29.84.84 0 0 1 .07.35.86.86 0 0 1-.07.36 1 1 0 0 1-.2.3 1.17 1.17 0 0 1-.3.19.9.9 0 0 1-.37.07.94.94 0 0 1-.37-.07 1.17 1.17 0 0 1-.3-.19.88.88 0 0 1-.2-.3.86.86 0 0 1-.08-.36.85.85 0 0 1 .08-.35.84.84 0 0 1 .2-.29 1 1 0 0 1 .3-.19.94.94 0 0 1 .37-.07zM50.16 6.39a.9.9 0 0 1 .37.07.81.81 0 0 1 .29.19.86.86 0 0 1 .21.29.84.84 0 0 1 .07.35.86.86 0 0 1-.07.36.9.9 0 0 1-.21.3 1 1 0 0 1-.29.19 1 1 0 0 1-1-.19.88.88 0 0 1-.2-.3.86.86 0 0 1-.08-.36.85.85 0 0 1 .08-.35.84.84 0 0 1 .2-.29.77.77 0 0 1 .3-.19.9.9 0 0 1 .33-.07zM59.1 6.39a.94.94 0 0 1 .37.07.81.81 0 0 1 .29.19.84.84 0 0 1 .2.29.85.85 0 0 1 .08.35.86.86 0 0 1-.08.36.88.88 0 0 1-.2.3 1 1 0 0 1-.29.19.94.94 0 0 1-.37.07.94.94 0 0 1-.88-.56.86.86 0 0 1-.07-.36.84.84 0 0 1 .07-.35.86.86 0 0 1 .21-.29.77.77 0 0 1 .3-.19.9.9 0 0 1 .37-.07zM68 6.39a1 1 0 0 1 .66.26.84.84 0 0 1 .2.29.85.85 0 0 1 .08.35.86.86 0 0 1-.08.36.88.88 0 0 1-.2.3 1 1 0 0 1-.3.19.86.86 0 0 1-.36.07 1 1 0 0 1-.38-.07 1.17 1.17 0 0 1-.3-.19 1 1 0 0 1-.2-.3.86.86 0 0 1-.07-.36.84.84 0 0 1 .07-.35 1 1 0 0 1 .2-.29 1 1 0 0 1 .68-.26zM77 6.39a.87.87 0 0 1 .37.07 1 1 0 0 1 .3.19 1 1 0 0 1 .2.29.84.84 0 0 1 .07.35.86.86 0 0 1-.07.36 1 1 0 0 1-.2.3 1.17 1.17 0 0 1-.3.19.87.87 0 0 1-.37.07.94.94 0 0 1-.37-.07A1.17 1.17 0 0 1 76.3 8a1 1 0 0 1-.2-.3.86.86 0 0 1-.1-.41.84.84 0 0 1 .07-.35 1 1 0 0 1 .2-.29 1 1 0 0 1 .3-.19.94.94 0 0 1 .43-.07zM85.91 6.39a.9.9 0 0 1 .37.07 1 1 0 0 1 .3.19 1 1 0 0 1 .2.29.84.84 0 0 1 .07.35.86.86 0 0 1-.07.36 1 1 0 0 1-.2.3 1.17 1.17 0 0 1-.3.19.9.9 0 0 1-.37.07.94.94 0 0 1-.37-.07 1.17 1.17 0 0 1-.3-.19.88.88 0 0 1-.2-.3.86.86 0 0 1-.04-.36.85.85 0 0 1 0-.35.84.84 0 0 1 .2-.29 1 1 0 0 1 .3-.19.94.94 0 0 1 .41-.07zM1 25.55a.94.94 0 0 1 .37.07 1 1 0 0 1 .29.19.94.94 0 0 1 .2.29.86.86 0 0 1 .08.36.94.94 0 0 1-.08.36.84.84 0 0 1-.2.29.81.81 0 0 1-.29.19.94.94 0 0 1-.37.07.9.9 0 0 1-.37-.07.77.77 0 0 1-.3-.19.86.86 0 0 1-.21-.29.92.92 0 0 1-.12-.36.86.86 0 0 1 .07-.36 1 1 0 0 1 .21-.29.91.91 0 0 1 .3-.19.9.9 0 0 1 .42-.07zM9.89 25.55a.86.86 0 0 1 .36.07.91.91 0 0 1 .3.19.94.94 0 0 1 .2.29.86.86 0 0 1 .08.36.94.94 0 0 1-.08.36.84.84 0 0 1-.2.29.77.77 0 0 1-.3.19.86.86 0 0 1-.36.07.87.87 0 0 1-.37-.07.89.89 0 0 1-.31-.19 1 1 0 0 1-.2-.29.92.92 0 0 1-.07-.36.86.86 0 0 1 .06-.36 1.15 1.15 0 0 1 .2-.29 1.08 1.08 0 0 1 .31-.19.87.87 0 0 1 .38-.07zM18.82 25.55a.87.87 0 0 1 .37.07 1.17 1.17 0 0 1 .3.19 1.15 1.15 0 0 1 .2.29.86.86 0 0 1 .07.36.92.92 0 0 1-.07.36 1 1 0 0 1-.2.29 1 1 0 0 1-.3.19.87.87 0 0 1-.37.07.94.94 0 0 1-.37-.07 1 1 0 0 1-.3-.19 1 1 0 0 1-.2-.29.92.92 0 0 1-.07-.36.86.86 0 0 1 .12-.36 1.15 1.15 0 0 1 .2-.29 1.17 1.17 0 0 1 .3-.19.94.94 0 0 1 .32-.07zM27.76 25.55a.9.9 0 0 1 .37.07 1.17 1.17 0 0 1 .3.19 1.15 1.15 0 0 1 .2.29.86.86 0 0 1 .07.36.92.92 0 0 1-.07.36 1 1 0 0 1-.2.29 1 1 0 0 1-.3.19.9.9 0 0 1-.37.07.94.94 0 0 1-.37-.07 1 1 0 0 1-.3-.19.84.84 0 0 1-.2-.29.94.94 0 0 1-.08-.36.86.86 0 0 1 .08-.36.94.94 0 0 1 .2-.29 1.17 1.17 0 0 1 .3-.19.94.94 0 0 1 .37-.07zM36.7 25.55a.94.94 0 0 1 .37.07 1 1 0 0 1 .5.48.86.86 0 0 1 .07.36.92.92 0 0 1-.07.36.86.86 0 0 1-.21.29.81.81 0 0 1-.29.19.94.94 0 0 1-.37.07.9.9 0 0 1-.37-.07.77.77 0 0 1-.3-.19.84.84 0 0 1-.2-.29.94.94 0 0 1-.08-.36.86.86 0 0 1 .08-.36.94.94 0 0 1 .2-.29 1 1 0 0 1 .67-.26zM45.64 25.55a.94.94 0 0 1 .37.07 1 1 0 0 1 .29.19.8.8 0 0 1 .2.29.86.86 0 0 1 .08.36.94.94 0 0 1-.08.36.72.72 0 0 1-.2.29.81.81 0 0 1-.29.19.94.94 0 0 1-.37.07.9.9 0 0 1-.37-.07.77.77 0 0 1-.3-.19.86.86 0 0 1-.21-.29 1.15 1.15 0 0 1-.07-.36 1 1 0 0 1 .07-.36 1 1 0 0 1 .21-.29 1 1 0 0 1 .67-.26zM54.58 25.55a.86.86 0 0 1 .36.07.91.91 0 0 1 .3.19.94.94 0 0 1 .2.29.86.86 0 0 1 .08.36.94.94 0 0 1-.08.36.84.84 0 0 1-.2.29.77.77 0 0 1-.3.19.86.86 0 0 1-.36.07.87.87 0 0 1-.37-.07.89.89 0 0 1-.31-.19 1 1 0 0 1-.2-.29.92.92 0 0 1-.07-.36.86.86 0 0 1 .07-.36 1.15 1.15 0 0 1 .2-.29 1.08 1.08 0 0 1 .31-.19.87.87 0 0 1 .37-.07zM63.51 25.55a.87.87 0 0 1 .37.07 1.17 1.17 0 0 1 .3.19 1.15 1.15 0 0 1 .2.29.86.86 0 0 1 .07.36.92.92 0 0 1-.07.36 1 1 0 0 1-.2.29 1 1 0 0 1-.3.19.87.87 0 0 1-.37.07.94.94 0 0 1-.37-.07 1 1 0 0 1-.3-.19 1 1 0 0 1-.2-.29.92.92 0 0 1-.07-.36.86.86 0 0 1 .07-.36 1.15 1.15 0 0 1 .2-.29 1.17 1.17 0 0 1 .3-.19.94.94 0 0 1 .37-.07zM72.45 25.55a.87.87 0 0 1 .37.07 1.17 1.17 0 0 1 .3.19 1.15 1.15 0 0 1 .2.29.86.86 0 0 1 .07.36.92.92 0 0 1-.07.36 1 1 0 0 1-.2.29 1 1 0 0 1-.3.19.87.87 0 0 1-.37.07.94.94 0 0 1-.37-.07 1 1 0 0 1-.3-.19 1 1 0 0 1-.2-.29.94.94 0 0 1-.08-.36.86.86 0 0 1 .08-.36 1.15 1.15 0 0 1 .2-.29 1.17 1.17 0 0 1 .3-.19.94.94 0 0 1 .37-.07zM81.39 25.55a.9.9 0 0 1 .37.07 1 1 0 0 1 .5.48.86.86 0 0 1 .07.36.92.92 0 0 1-.07.36.86.86 0 0 1-.21.29.81.81 0 0 1-.29.19.9.9 0 0 1-.37.07.94.94 0 0 1-.39-.07.77.77 0 0 1-.3-.19.84.84 0 0 1-.2-.29.94.94 0 0 1-.08-.36.86.86 0 0 1 .08-.36.94.94 0 0 1 .2-.29.91.91 0 0 1 .3-.19.94.94 0 0 1 .39-.07zM90.33 25.55a.94.94 0 0 1 .37.07 1 1 0 0 1 .29.19.8.8 0 0 1 .2.29.86.86 0 0 1 .08.36.94.94 0 0 1-.08.36.72.72 0 0 1-.2.29.81.81 0 0 1-.29.19.94.94 0 0 1-.37.07.9.9 0 0 1-.33-.07.77.77 0 0 1-.3-.19.86.86 0 0 1-.21-.29.92.92 0 0 1-.07-.36.86.86 0 0 1 .07-.36 1 1 0 0 1 .21-.29 1 1 0 0 1 .67-.26zM5.47 19.16a1.16 1.16 0 0 1 .37.07.84.84 0 0 1 .29.2.86.86 0 0 1 .21.29.81.81 0 0 1 .07.35.84.84 0 0 1-.28.65 1 1 0 0 1-.29.2 1.16 1.16 0 0 1-.37.07 1.11 1.11 0 0 1-.37-.07.93.93 0 0 1-.3-.2.84.84 0 0 1-.2-.29.86.86 0 0 1-.08-.36.82.82 0 0 1 .08-.35.84.84 0 0 1 .2-.29.79.79 0 0 1 .3-.2 1.11 1.11 0 0 1 .37-.07zM14.41 19.16a1 1 0 0 1 .36.07.79.79 0 0 1 .3.2.84.84 0 0 1 .2.29.82.82 0 0 1 .08.35.86.86 0 0 1-.08.36.84.84 0 0 1-.2.29.93.93 0 0 1-.3.2 1 1 0 0 1-.36.07 1.11 1.11 0 0 1-.37-.07.93.93 0 0 1-.3-.2.84.84 0 0 1-.28-.65.81.81 0 0 1 .07-.35.86.86 0 0 1 .21-.29.79.79 0 0 1 .3-.2 1.11 1.11 0 0 1 .37-.07zM23.35 19.16a1 1 0 0 1 .36.07.79.79 0 0 1 .3.2.84.84 0 0 1 .2.29.82.82 0 0 1 .08.35.86.86 0 0 1-.08.36.84.84 0 0 1-.2.29.93.93 0 0 1-.3.2 1 1 0 0 1-.36.07 1.06 1.06 0 0 1-.37-.07 1.1 1.1 0 0 1-.31-.2 1 1 0 0 1-.2-.29.86.86 0 0 1-.07-.36.81.81 0 0 1 .07-.35 1 1 0 0 1 .2-.29.92.92 0 0 1 .31-.2 1.06 1.06 0 0 1 .37-.07zM32.28 19.16a1.06 1.06 0 0 1 .37.07 1 1 0 0 1 .3.2 1 1 0 0 1 .2.29.81.81 0 0 1 .07.35.86.86 0 0 1-.07.36 1 1 0 0 1-.2.29 1.21 1.21 0 0 1-.3.2 1.06 1.06 0 0 1-.37.07 1.16 1.16 0 0 1-.37-.07 1.21 1.21 0 0 1-.3-.2 1 1 0 0 1-.2-.29.86.86 0 0 1-.07-.36.81.81 0 0 1 .07-.35 1 1 0 0 1 .2-.29 1 1 0 0 1 .3-.2 1.16 1.16 0 0 1 .37-.07zM41.22 19.16a1.11 1.11 0 0 1 .37.07 1 1 0 0 1 .3.2 1 1 0 0 1 .2.29.81.81 0 0 1 .07.35.86.86 0 0 1-.07.36 1 1 0 0 1-.2.29 1.21 1.21 0 0 1-.3.2 1.11 1.11 0 0 1-.37.07 1.16 1.16 0 0 1-.37-.07 1.21 1.21 0 0 1-.3-.2.84.84 0 0 1-.2-.29.86.86 0 0 1-.08-.36.82.82 0 0 1 .08-.35.84.84 0 0 1 .2-.29 1 1 0 0 1 .3-.2 1.16 1.16 0 0 1 .37-.07zM50.16 19.16a1.11 1.11 0 0 1 .37.07.84.84 0 0 1 .29.2.86.86 0 0 1 .21.29.81.81 0 0 1 .07.35.84.84 0 0 1-.28.65 1 1 0 0 1-.29.2 1 1 0 0 1-.74 0 .93.93 0 0 1-.3-.2.84.84 0 0 1-.2-.29.86.86 0 0 1-.08-.36.82.82 0 0 1 .08-.35.84.84 0 0 1 .2-.29.79.79 0 0 1 .3-.2 1.11 1.11 0 0 1 .37-.07zM59.1 19.16a1.16 1.16 0 0 1 .37.07 1 1 0 0 1 .49.49.82.82 0 0 1 .08.35.86.86 0 0 1-.08.36.84.84 0 0 1-.2.29 1 1 0 0 1-.29.2 1.16 1.16 0 0 1-.37.07 1.11 1.11 0 0 1-.37-.07.93.93 0 0 1-.3-.2.84.84 0 0 1-.28-.65.81.81 0 0 1 .07-.35.86.86 0 0 1 .21-.29.79.79 0 0 1 .3-.2 1.11 1.11 0 0 1 .37-.07zM68 19.16a1 1 0 0 1 .36.07.88.88 0 0 1 .3.2.84.84 0 0 1 .2.29.82.82 0 0 1 .08.35.86.86 0 0 1-.08.36.84.84 0 0 1-.2.29.92.92 0 0 1-.66.28 1.17 1.17 0 0 1-.38-.07 1.21 1.21 0 0 1-.3-.2 1 1 0 0 1-.2-.29.86.86 0 0 1-.07-.36.81.81 0 0 1 .07-.35 1 1 0 0 1 .2-.29 1 1 0 0 1 .3-.2 1.17 1.17 0 0 1 .38-.08zM77 19.16a1.06 1.06 0 0 1 .37.07 1 1 0 0 1 .3.2 1 1 0 0 1 .2.29.81.81 0 0 1 .07.35.86.86 0 0 1-.07.36 1 1 0 0 1-.2.29 1.21 1.21 0 0 1-.3.2A1.06 1.06 0 0 1 77 21a1.16 1.16 0 0 1-.37-.07 1.21 1.21 0 0 1-.3-.2 1 1 0 0 1-.2-.29.86.86 0 0 1-.07-.36.81.81 0 0 1 .07-.35 1 1 0 0 1 .2-.29 1 1 0 0 1 .3-.2 1.16 1.16 0 0 1 .37-.08zM85.91 19.16a1.11 1.11 0 0 1 .37.07 1 1 0 0 1 .3.2 1 1 0 0 1 .2.29.81.81 0 0 1 .07.35.86.86 0 0 1-.07.36 1 1 0 0 1-.2.29 1.21 1.21 0 0 1-.3.2 1.11 1.11 0 0 1-.37.07 1.16 1.16 0 0 1-.37-.07 1.21 1.21 0 0 1-.3-.2.84.84 0 0 1-.2-.29.86.86 0 0 1-.08-.36.82.82 0 0 1 .08-.35.84.84 0 0 1 .2-.29 1 1 0 0 1 .3-.2 1.16 1.16 0 0 1 .37-.07zM1 38.33a.94.94 0 0 1 .37.07.81.81 0 0 1 .29.19.84.84 0 0 1 .2.29.85.85 0 0 1 .08.35.86.86 0 0 1-.08.36.84.84 0 0 1-.2.29.84.84 0 0 1-.29.2 1.16 1.16 0 0 1-.37.07 1.11 1.11 0 0 1-.37-.07.79.79 0 0 1-.3-.2.84.84 0 0 1-.33-.65.84.84 0 0 1 .07-.35.86.86 0 0 1 .21-.29.77.77 0 0 1 .3-.19.9.9 0 0 1 .42-.07zM9.89 38.33a.86.86 0 0 1 .36.07.77.77 0 0 1 .3.19.84.84 0 0 1 .2.29.85.85 0 0 1 .08.35.86.86 0 0 1-.08.36.84.84 0 0 1-.2.29.79.79 0 0 1-.3.2 1 1 0 0 1-.36.07 1.06 1.06 0 0 1-.37-.07.92.92 0 0 1-.31-.2 1 1 0 0 1-.2-.29.86.86 0 0 1-.07-.36.84.84 0 0 1 .06-.35 1 1 0 0 1 .2-.29.89.89 0 0 1 .31-.19.87.87 0 0 1 .38-.07zM18.82 38.33a.87.87 0 0 1 .37.07 1 1 0 0 1 .3.19 1 1 0 0 1 .2.29.84.84 0 0 1 .07.35.86.86 0 0 1-.07.36 1 1 0 0 1-.2.29 1 1 0 0 1-.3.2 1.06 1.06 0 0 1-.37.07 1.16 1.16 0 0 1-.37-.07 1 1 0 0 1-.3-.2 1 1 0 0 1-.2-.29.86.86 0 0 1-.07-.36.84.84 0 0 1 .07-.35 1 1 0 0 1 .2-.29 1 1 0 0 1 .3-.19.94.94 0 0 1 .37-.07zM27.76 38.33a.9.9 0 0 1 .37.07 1 1 0 0 1 .3.19 1 1 0 0 1 .2.29.84.84 0 0 1 .07.35.86.86 0 0 1-.07.36 1 1 0 0 1-.2.29 1 1 0 0 1-.3.2 1.11 1.11 0 0 1-.37.07 1.16 1.16 0 0 1-.37-.07 1 1 0 0 1-.3-.2.84.84 0 0 1-.2-.29.86.86 0 0 1-.08-.36.85.85 0 0 1 .08-.35.84.84 0 0 1 .2-.29 1 1 0 0 1 .3-.19.94.94 0 0 1 .37-.07zM36.7 38.33a.94.94 0 0 1 .37.07.81.81 0 0 1 .29.19.86.86 0 0 1 .21.29.84.84 0 0 1 .07.35.84.84 0 0 1-.28.65.84.84 0 0 1-.29.2 1.16 1.16 0 0 1-.37.07 1.11 1.11 0 0 1-.37-.07.79.79 0 0 1-.3-.2.84.84 0 0 1-.2-.29.86.86 0 0 1-.08-.36.85.85 0 0 1 .08-.35.84.84 0 0 1 .2-.29.77.77 0 0 1 .3-.19.9.9 0 0 1 .37-.07zM45.64 38.33a.94.94 0 0 1 .37.07.81.81 0 0 1 .29.19.72.72 0 0 1 .2.29.85.85 0 0 1 .08.35.86.86 0 0 1-.08.36.72.72 0 0 1-.2.29.84.84 0 0 1-.29.2 1.16 1.16 0 0 1-.37.07 1.11 1.11 0 0 1-.37-.07.79.79 0 0 1-.3-.2.86.86 0 0 1-.21-.29.94.94 0 0 1 0-.71.86.86 0 0 1 .21-.29.77.77 0 0 1 .3-.19.9.9 0 0 1 .37-.07zM54.58 38.33a.86.86 0 0 1 .36.07.77.77 0 0 1 .3.19.84.84 0 0 1 .2.29.85.85 0 0 1 .08.35.86.86 0 0 1-.08.36.84.84 0 0 1-.2.29.79.79 0 0 1-.3.2 1 1 0 0 1-.36.07 1.06 1.06 0 0 1-.37-.07.92.92 0 0 1-.31-.2 1 1 0 0 1-.2-.29.86.86 0 0 1-.07-.36.84.84 0 0 1 .07-.35 1 1 0 0 1 .2-.29.89.89 0 0 1 .31-.19.87.87 0 0 1 .37-.07zM63.51 38.33a.87.87 0 0 1 .37.07 1 1 0 0 1 .3.19 1 1 0 0 1 .2.29.84.84 0 0 1 .07.35.86.86 0 0 1-.07.36 1 1 0 0 1-.2.29 1 1 0 0 1-.3.2 1.06 1.06 0 0 1-.37.07 1.16 1.16 0 0 1-.37-.07 1 1 0 0 1-.3-.2 1 1 0 0 1-.2-.29.86.86 0 0 1-.07-.36.84.84 0 0 1 .07-.35 1 1 0 0 1 .2-.29 1 1 0 0 1 .3-.19.94.94 0 0 1 .37-.07zM72.45 38.33a.87.87 0 0 1 .37.07 1 1 0 0 1 .3.19 1 1 0 0 1 .2.29.84.84 0 0 1 .07.35.86.86 0 0 1-.07.36 1 1 0 0 1-.2.29 1 1 0 0 1-.3.2 1.06 1.06 0 0 1-.37.07 1.16 1.16 0 0 1-.37-.07 1 1 0 0 1-.3-.2 1 1 0 0 1-.2-.29.86.86 0 0 1-.08-.36.85.85 0 0 1 .08-.35 1 1 0 0 1 .2-.29 1 1 0 0 1 .3-.19.94.94 0 0 1 .37-.07zM81.39 38.33a.9.9 0 0 1 .37.07.81.81 0 0 1 .29.19.86.86 0 0 1 .21.29.84.84 0 0 1 .07.35.84.84 0 0 1-.28.65.84.84 0 0 1-.29.2 1.11 1.11 0 0 1-.37.07 1.16 1.16 0 0 1-.37-.07.79.79 0 0 1-.3-.2.84.84 0 0 1-.2-.29.86.86 0 0 1-.08-.36.85.85 0 0 1 .08-.35.84.84 0 0 1 .2-.29.77.77 0 0 1 .3-.19.94.94 0 0 1 .37-.07zM90.33 38.33a.94.94 0 0 1 .37.07.81.81 0 0 1 .29.19.72.72 0 0 1 .2.29.85.85 0 0 1 .08.35.86.86 0 0 1-.08.36.72.72 0 0 1-.2.29.84.84 0 0 1-.29.2 1.16 1.16 0 0 1-.37.07 1.11 1.11 0 0 1-.37-.07.79.79 0 0 1-.3-.2.84.84 0 0 1-.28-.65.84.84 0 0 1 .07-.35.86.86 0 0 1 .21-.29.77.77 0 0 1 .3-.19.9.9 0 0 1 .37-.07zM5.47 31.94a.94.94 0 0 1 .37.07.81.81 0 0 1 .29.19.84.84 0 0 1 .28.65.84.84 0 0 1-.07.35.9.9 0 0 1-.21.3 1 1 0 0 1-.29.19.94.94 0 0 1-.37.07 1 1 0 0 1-.67-.26.88.88 0 0 1-.2-.3.85.85 0 0 1-.08-.35.86.86 0 0 1 .08-.36.84.84 0 0 1 .2-.29.77.77 0 0 1 .3-.2.9.9 0 0 1 .37-.06zM14.41 31.94a.86.86 0 0 1 .36.07.77.77 0 0 1 .3.19.84.84 0 0 1 .2.29.86.86 0 0 1 .08.36.85.85 0 0 1-.08.35.88.88 0 0 1-.2.3.91.91 0 0 1-.3.19.86.86 0 0 1-.36.07.94.94 0 0 1-.88-.56.84.84 0 0 1-.07-.35.84.84 0 0 1 .28-.65.77.77 0 0 1 .26-.2.9.9 0 0 1 .41-.06zM23.35 31.94a.86.86 0 0 1 .36.07.77.77 0 0 1 .3.19.84.84 0 0 1 .2.29.86.86 0 0 1 .08.36.85.85 0 0 1-.08.35.88.88 0 0 1-.2.3.91.91 0 0 1-.3.19.86.86 0 0 1-.36.07.87.87 0 0 1-.37-.07 1.08 1.08 0 0 1-.31-.19 1 1 0 0 1-.2-.3.84.84 0 0 1-.07-.35.86.86 0 0 1 .07-.36 1 1 0 0 1 .2-.29.89.89 0 0 1 .33-.2.87.87 0 0 1 .35-.06zM32.28 31.94a.87.87 0 0 1 .37.07 1 1 0 0 1 .3.19 1 1 0 0 1 .2.29.86.86 0 0 1 .07.36.84.84 0 0 1-.07.35 1 1 0 0 1-.2.3 1.17 1.17 0 0 1-.3.19.87.87 0 0 1-.37.07.94.94 0 0 1-.37-.07 1.17 1.17 0 0 1-.3-.19 1 1 0 0 1-.2-.3.84.84 0 0 1-.07-.35.86.86 0 0 1 .07-.36 1 1 0 0 1 .2-.29 1 1 0 0 1 .3-.19.94.94 0 0 1 .37-.07zM41.22 31.94a.9.9 0 0 1 .37.07 1 1 0 0 1 .3.19 1 1 0 0 1 .2.29.86.86 0 0 1 .07.36.84.84 0 0 1-.07.35 1 1 0 0 1-.2.3 1.17 1.17 0 0 1-.3.19.9.9 0 0 1-.37.07.94.94 0 0 1-.37-.07 1.17 1.17 0 0 1-.3-.19.88.88 0 0 1-.2-.3.85.85 0 0 1-.08-.35.86.86 0 0 1 .08-.36.84.84 0 0 1 .2-.29 1 1 0 0 1 .3-.19.94.94 0 0 1 .37-.07zM50.16 31.94a.9.9 0 0 1 .37.07.81.81 0 0 1 .29.19.84.84 0 0 1 .28.65.84.84 0 0 1-.07.35.9.9 0 0 1-.21.3 1 1 0 0 1-.29.19 1 1 0 0 1-1-.19.88.88 0 0 1-.2-.3.85.85 0 0 1-.08-.35.86.86 0 0 1 .08-.36.84.84 0 0 1 .2-.29.77.77 0 0 1 .3-.19.9.9 0 0 1 .33-.07zM59.1 31.94a.94.94 0 0 1 .37.07.81.81 0 0 1 .29.19.84.84 0 0 1 .2.29.86.86 0 0 1 .08.36.85.85 0 0 1-.08.35.88.88 0 0 1-.2.3 1 1 0 0 1-.29.19.94.94 0 0 1-.37.07.94.94 0 0 1-.88-.56.84.84 0 0 1-.07-.35.84.84 0 0 1 .28-.65.77.77 0 0 1 .3-.19.9.9 0 0 1 .37-.07zM68 31.94a1 1 0 0 1 .66.26.84.84 0 0 1 .2.29.86.86 0 0 1 .08.36.85.85 0 0 1-.08.35.88.88 0 0 1-.2.3 1 1 0 0 1-.3.19.86.86 0 0 1-.36.07 1 1 0 0 1-.38-.07 1.17 1.17 0 0 1-.3-.19 1 1 0 0 1-.2-.3.84.84 0 0 1-.07-.35.86.86 0 0 1 .07-.36 1 1 0 0 1 .2-.29 1 1 0 0 1 .68-.26zM77 31.94a.87.87 0 0 1 .37.07 1 1 0 0 1 .3.19 1 1 0 0 1 .2.29.86.86 0 0 1 .07.36.84.84 0 0 1-.07.35 1 1 0 0 1-.2.3 1.17 1.17 0 0 1-.3.19.87.87 0 0 1-.37.07.94.94 0 0 1-.37-.07 1.17 1.17 0 0 1-.3-.19 1 1 0 0 1-.2-.3.84.84 0 0 1-.07-.35.86.86 0 0 1 .07-.36 1 1 0 0 1 .2-.29 1 1 0 0 1 .3-.19.94.94 0 0 1 .37-.07zM85.91 31.94a.9.9 0 0 1 .37.07 1 1 0 0 1 .3.19 1 1 0 0 1 .2.29.86.86 0 0 1 .07.36.84.84 0 0 1-.07.35 1 1 0 0 1-.2.3 1.17 1.17 0 0 1-.3.19.9.9 0 0 1-.37.07.94.94 0 0 1-.37-.07 1.17 1.17 0 0 1-.3-.19.88.88 0 0 1-.2-.3.85.85 0 0 1-.08-.35.86.86 0 0 1 .08-.36.84.84 0 0 1 .2-.29 1 1 0 0 1 .3-.19.94.94 0 0 1 .37-.07zM1 51.1a.94.94 0 0 1 .37.07 1 1 0 0 1 .29.19.94.94 0 0 1 .2.29.86.86 0 0 1 .08.36.9.9 0 0 1-.08.36.84.84 0 0 1-.2.29.81.81 0 0 1-.29.19.94.94 0 0 1-.37.07.9.9 0 0 1-.37-.07.77.77 0 0 1-.3-.19.86.86 0 0 1-.21-.29A.89.89 0 0 1 0 52a.86.86 0 0 1 .07-.36 1 1 0 0 1 .21-.29.91.91 0 0 1 .3-.19.9.9 0 0 1 .42-.06zM9.89 51.1a.86.86 0 0 1 .36.07.91.91 0 0 1 .3.19.94.94 0 0 1 .2.29.86.86 0 0 1 .08.36.9.9 0 0 1-.08.36.84.84 0 0 1-.2.29.77.77 0 0 1-.3.19.86.86 0 0 1-.36.07.87.87 0 0 1-.37-.07.89.89 0 0 1-.31-.19 1 1 0 0 1-.2-.29.89.89 0 0 1-.07-.37.86.86 0 0 1 .06-.35 1.15 1.15 0 0 1 .2-.29 1.08 1.08 0 0 1 .31-.19.87.87 0 0 1 .38-.07zM18.82 51.1a.87.87 0 0 1 .37.07 1.17 1.17 0 0 1 .3.19 1.15 1.15 0 0 1 .2.29.86.86 0 0 1 .07.36.89.89 0 0 1-.07.36 1 1 0 0 1-.2.29 1 1 0 0 1-.3.19.87.87 0 0 1-.37.07.94.94 0 0 1-.37-.07 1 1 0 0 1-.3-.19 1 1 0 0 1-.2-.29.89.89 0 0 1-.07-.36.86.86 0 0 1 .07-.36 1.15 1.15 0 0 1 .2-.29 1.17 1.17 0 0 1 .3-.19.94.94 0 0 1 .37-.07zM27.76 51.1a.9.9 0 0 1 .37.07 1.17 1.17 0 0 1 .3.19 1.15 1.15 0 0 1 .2.29.86.86 0 0 1 .07.36.89.89 0 0 1-.07.36 1 1 0 0 1-.2.29 1 1 0 0 1-.3.19.9.9 0 0 1-.37.07.94.94 0 0 1-.37-.07 1 1 0 0 1-.3-.19.84.84 0 0 1-.2-.29.9.9 0 0 1-.08-.36.86.86 0 0 1 .08-.36.94.94 0 0 1 .2-.29 1.17 1.17 0 0 1 .3-.19.94.94 0 0 1 .37-.07zM36.7 51.1a.94.94 0 0 1 .37.07 1 1 0 0 1 .5.48.86.86 0 0 1 .07.36.89.89 0 0 1-.07.36.86.86 0 0 1-.21.29.81.81 0 0 1-.29.19.94.94 0 0 1-.37.07.9.9 0 0 1-.37-.07.77.77 0 0 1-.3-.19.84.84 0 0 1-.2-.29.9.9 0 0 1-.08-.36.86.86 0 0 1 .08-.36.94.94 0 0 1 .2-.29 1 1 0 0 1 .67-.26zM45.64 51.1a.94.94 0 0 1 .37.07 1 1 0 0 1 .29.19.8.8 0 0 1 .2.29.86.86 0 0 1 .08.36.9.9 0 0 1-.08.36.72.72 0 0 1-.2.29.81.81 0 0 1-.29.19.94.94 0 0 1-.37.07.9.9 0 0 1-.37-.07.77.77 0 0 1-.3-.19.86.86 0 0 1-.21-.29 1.1 1.1 0 0 1-.07-.36 1 1 0 0 1 .07-.36 1 1 0 0 1 .21-.29 1 1 0 0 1 .67-.26zM54.58 51.1a.86.86 0 0 1 .36.07.91.91 0 0 1 .3.19.94.94 0 0 1 .2.29.86.86 0 0 1 .08.36.9.9 0 0 1-.08.36.84.84 0 0 1-.2.29.77.77 0 0 1-.3.19.86.86 0 0 1-.36.07.87.87 0 0 1-.37-.07.89.89 0 0 1-.31-.19 1 1 0 0 1-.2-.29.89.89 0 0 1-.07-.36.86.86 0 0 1 .07-.36 1.15 1.15 0 0 1 .2-.29 1.08 1.08 0 0 1 .31-.19.87.87 0 0 1 .37-.07zM63.51 51.1a.87.87 0 0 1 .37.07 1.17 1.17 0 0 1 .3.19 1.15 1.15 0 0 1 .2.29.86.86 0 0 1 .07.36.89.89 0 0 1-.07.36 1 1 0 0 1-.2.29 1 1 0 0 1-.3.19.87.87 0 0 1-.37.07.94.94 0 0 1-.37-.07 1 1 0 0 1-.3-.19 1 1 0 0 1-.2-.29.89.89 0 0 1-.07-.36.86.86 0 0 1 .07-.36 1.15 1.15 0 0 1 .2-.29 1.17 1.17 0 0 1 .3-.19.94.94 0 0 1 .37-.07zM72.45 51.1a.87.87 0 0 1 .37.07 1.17 1.17 0 0 1 .3.19 1.15 1.15 0 0 1 .2.29.86.86 0 0 1 .07.36.89.89 0 0 1-.07.36 1 1 0 0 1-.2.29 1 1 0 0 1-.3.19.87.87 0 0 1-.37.07.94.94 0 0 1-.37-.07 1 1 0 0 1-.3-.19 1 1 0 0 1-.2-.29.9.9 0 0 1-.08-.37.86.86 0 0 1 .08-.36 1.15 1.15 0 0 1 .2-.29 1.17 1.17 0 0 1 .3-.19.94.94 0 0 1 .37-.06zM81.39 51.1a.9.9 0 0 1 .37.07 1 1 0 0 1 .5.48.86.86 0 0 1 .07.36.89.89 0 0 1-.07.36.86.86 0 0 1-.21.29.81.81 0 0 1-.29.19.9.9 0 0 1-.37.07.94.94 0 0 1-.37-.07.77.77 0 0 1-.3-.19.84.84 0 0 1-.2-.29.9.9 0 0 1-.08-.36.86.86 0 0 1 .08-.36.94.94 0 0 1 .2-.29.91.91 0 0 1 .3-.19.94.94 0 0 1 .37-.07zM90.33 51.1a.94.94 0 0 1 .37.07 1 1 0 0 1 .29.19.8.8 0 0 1 .2.29.86.86 0 0 1 .08.36.9.9 0 0 1-.08.36.72.72 0 0 1-.2.29.81.81 0 0 1-.29.19.94.94 0 0 1-.37.07.9.9 0 0 1-.37-.07.77.77 0 0 1-.3-.19.86.86 0 0 1-.21-.29.89.89 0 0 1-.07-.36.86.86 0 0 1 .07-.36 1 1 0 0 1 .21-.29 1 1 0 0 1 .67-.26zM5.47 44.71a1.16 1.16 0 0 1 .37.07.84.84 0 0 1 .29.2.86.86 0 0 1 .21.29.81.81 0 0 1 .07.35.84.84 0 0 1-.28.65 1 1 0 0 1-.29.2 1.16 1.16 0 0 1-.37.07 1.11 1.11 0 0 1-.37-.07.93.93 0 0 1-.3-.2.84.84 0 0 1-.2-.27.86.86 0 0 1-.08-.36.82.82 0 0 1 .08-.35.84.84 0 0 1 .2-.29.79.79 0 0 1 .3-.2 1.11 1.11 0 0 1 .37-.09zM14.41 44.71a1 1 0 0 1 .36.07.79.79 0 0 1 .3.2.84.84 0 0 1 .2.29.82.82 0 0 1 .08.35.86.86 0 0 1-.08.36.84.84 0 0 1-.2.29.93.93 0 0 1-.3.2 1 1 0 0 1-.36.07 1.11 1.11 0 0 1-.37-.07.93.93 0 0 1-.3-.2.84.84 0 0 1-.28-.65.81.81 0 0 1 .07-.35.86.86 0 0 1 .21-.29.79.79 0 0 1 .3-.2 1.11 1.11 0 0 1 .37-.07zM23.35 44.71a1 1 0 0 1 .36.07.79.79 0 0 1 .3.2.84.84 0 0 1 .2.29.82.82 0 0 1 .08.35.86.86 0 0 1-.08.36.84.84 0 0 1-.2.29.93.93 0 0 1-.3.2 1 1 0 0 1-.36.07 1.06 1.06 0 0 1-.37-.07 1.1 1.1 0 0 1-.31-.2 1 1 0 0 1-.2-.29.86.86 0 0 1-.07-.36.81.81 0 0 1 .07-.35 1 1 0 0 1 .2-.29.92.92 0 0 1 .31-.2 1.06 1.06 0 0 1 .37-.07zM32.28 44.71a1.06 1.06 0 0 1 .37.07 1 1 0 0 1 .3.2 1 1 0 0 1 .2.29.81.81 0 0 1 .07.35.86.86 0 0 1-.07.36 1 1 0 0 1-.2.29 1.21 1.21 0 0 1-.3.2 1.06 1.06 0 0 1-.37.07 1.16 1.16 0 0 1-.37-.07 1.21 1.21 0 0 1-.3-.2 1 1 0 0 1-.2-.29.86.86 0 0 1-.07-.36.81.81 0 0 1 .07-.35 1 1 0 0 1 .2-.29 1 1 0 0 1 .3-.2 1.16 1.16 0 0 1 .37-.07zM41.22 44.71a1.11 1.11 0 0 1 .37.07 1 1 0 0 1 .3.2 1 1 0 0 1 .2.29.81.81 0 0 1 .07.35.86.86 0 0 1-.07.36 1 1 0 0 1-.2.29 1.21 1.21 0 0 1-.3.2 1.11 1.11 0 0 1-.37.07 1.16 1.16 0 0 1-.37-.07 1.21 1.21 0 0 1-.3-.2.84.84 0 0 1-.2-.29.86.86 0 0 1-.08-.36.82.82 0 0 1 .08-.35.84.84 0 0 1 .2-.29 1 1 0 0 1 .3-.2 1.16 1.16 0 0 1 .37-.07zM50.16 44.71a1.11 1.11 0 0 1 .37.07.84.84 0 0 1 .29.2.86.86 0 0 1 .21.29.81.81 0 0 1 .07.35.84.84 0 0 1-.28.65 1 1 0 0 1-.29.2 1 1 0 0 1-.74 0 .93.93 0 0 1-.3-.2.84.84 0 0 1-.2-.29.86.86 0 0 1-.08-.36.82.82 0 0 1 .08-.35.84.84 0 0 1 .2-.29.79.79 0 0 1 .3-.2 1.11 1.11 0 0 1 .37-.07zM59.1 44.71a1.16 1.16 0 0 1 .37.07 1 1 0 0 1 .49.49.82.82 0 0 1 .08.35.86.86 0 0 1-.04.38.84.84 0 0 1-.2.29 1 1 0 0 1-.29.2 1.16 1.16 0 0 1-.37.07 1.11 1.11 0 0 1-.37-.07.93.93 0 0 1-.3-.2.84.84 0 0 1-.28-.65.81.81 0 0 1 .07-.35.86.86 0 0 1 .21-.29.79.79 0 0 1 .3-.2 1.11 1.11 0 0 1 .33-.09zM68 44.71a1 1 0 0 1 .36.07.88.88 0 0 1 .3.2.84.84 0 0 1 .2.29.82.82 0 0 1 .08.35.86.86 0 0 1-.08.36.84.84 0 0 1-.2.29.92.92 0 0 1-.66.27 1.17 1.17 0 0 1-.38-.07 1.21 1.21 0 0 1-.3-.2 1 1 0 0 1-.2-.29.86.86 0 0 1-.07-.36.81.81 0 0 1 .07-.35 1 1 0 0 1 .2-.29 1 1 0 0 1 .3-.2 1.17 1.17 0 0 1 .38-.07zM77 44.71a1.06 1.06 0 0 1 .37.07 1 1 0 0 1 .3.2 1 1 0 0 1 .2.29.81.81 0 0 1 .07.35.86.86 0 0 1-.07.36 1 1 0 0 1-.2.29 1.21 1.21 0 0 1-.3.2 1.06 1.06 0 0 1-.37.07 1.16 1.16 0 0 1-.37-.07 1.21 1.21 0 0 1-.3-.2 1 1 0 0 1-.2-.29.86.86 0 0 1-.07-.36.81.81 0 0 1 .07-.35 1 1 0 0 1 .2-.29 1 1 0 0 1 .3-.2 1.16 1.16 0 0 1 .37-.07zM85.91 44.71a1.11 1.11 0 0 1 .37.07 1 1 0 0 1 .3.2 1 1 0 0 1 .2.29.81.81 0 0 1 .07.35.86.86 0 0 1-.07.36 1 1 0 0 1-.2.29 1.21 1.21 0 0 1-.3.2 1.11 1.11 0 0 1-.37.07 1.16 1.16 0 0 1-.37-.07 1.21 1.21 0 0 1-.3-.2A.84.84 0 0 1 85 46a.86.86 0 0 1-.08-.36.82.82 0 0 1 .08-.35.84.84 0 0 1 .2-.29 1 1 0 0 1 .3-.2 1.16 1.16 0 0 1 .41-.09zM1 63.88a.94.94 0 0 1 .37.07.81.81 0 0 1 .29.19.84.84 0 0 1 .2.29.85.85 0 0 1 .08.35.86.86 0 0 1-.08.36.88.88 0 0 1-.2.3 1 1 0 0 1-.29.19.94.94 0 0 1-.37.07.9.9 0 0 1-.37-.07.92.92 0 0 1-.51-.49.86.86 0 0 1-.12-.36.84.84 0 0 1 .07-.35.86.86 0 0 1 .21-.29.77.77 0 0 1 .3-.14.9.9 0 0 1 .42-.12zM9.89 63.88a.86.86 0 0 1 .36.07.77.77 0 0 1 .3.19.84.84 0 0 1 .2.29.85.85 0 0 1 .08.35.86.86 0 0 1-.08.36.88.88 0 0 1-.2.3.91.91 0 0 1-.3.19.86.86 0 0 1-.36.07.87.87 0 0 1-.37-.07 1.08 1.08 0 0 1-.31-.19 1 1 0 0 1-.2-.3.86.86 0 0 1-.07-.36.84.84 0 0 1 .06-.35 1 1 0 0 1 .2-.29.89.89 0 0 1 .32-.14.87.87 0 0 1 .37-.12zM18.82 63.88a.87.87 0 0 1 .37.07 1 1 0 0 1 .3.19 1 1 0 0 1 .2.29.84.84 0 0 1 .07.35.86.86 0 0 1-.07.36 1 1 0 0 1-.2.3 1.17 1.17 0 0 1-.3.19.87.87 0 0 1-.37.07.94.94 0 0 1-.37-.07 1.17 1.17 0 0 1-.3-.19 1 1 0 0 1-.2-.3.86.86 0 0 1-.07-.36.84.84 0 0 1 .07-.35 1 1 0 0 1 .2-.29 1 1 0 0 1 .3-.19.94.94 0 0 1 .37-.07zM27.76 63.88a.9.9 0 0 1 .37.07 1 1 0 0 1 .3.19 1 1 0 0 1 .2.29.84.84 0 0 1 .07.35.86.86 0 0 1-.07.36 1 1 0 0 1-.2.3 1.17 1.17 0 0 1-.3.19.9.9 0 0 1-.37.07.94.94 0 0 1-.37-.07 1.17 1.17 0 0 1-.3-.19.88.88 0 0 1-.2-.3.86.86 0 0 1-.08-.36.85.85 0 0 1 .08-.35.84.84 0 0 1 .2-.29 1 1 0 0 1 .3-.19.94.94 0 0 1 .37-.07zM36.7 63.88a.94.94 0 0 1 .37.07.81.81 0 0 1 .29.19.86.86 0 0 1 .21.29.84.84 0 0 1 .07.35.86.86 0 0 1-.07.36.9.9 0 0 1-.21.3 1 1 0 0 1-.29.19.94.94 0 0 1-.37.07 1 1 0 0 1-.67-.26.88.88 0 0 1-.2-.3.86.86 0 0 1-.08-.36.85.85 0 0 1 .08-.35.84.84 0 0 1 .2-.29.77.77 0 0 1 .3-.19.9.9 0 0 1 .37-.07zM45.64 63.88A.94.94 0 0 1 46 64a.81.81 0 0 1 .29.19.72.72 0 0 1 .2.29.85.85 0 0 1 .08.35.86.86 0 0 1-.08.36.75.75 0 0 1-.2.3 1 1 0 0 1-.29.19.94.94 0 0 1-.37.07.94.94 0 0 1-.88-.56.94.94 0 0 1 0-.71.86.86 0 0 1 .21-.29.77.77 0 0 1 .3-.19.9.9 0 0 1 .38-.12zM54.58 63.88a.86.86 0 0 1 .36.07.77.77 0 0 1 .3.19.84.84 0 0 1 .2.29.85.85 0 0 1 .08.35.86.86 0 0 1-.08.36.88.88 0 0 1-.2.3.91.91 0 0 1-.3.19.86.86 0 0 1-.36.07.87.87 0 0 1-.37-.07 1.08 1.08 0 0 1-.31-.19 1 1 0 0 1-.2-.3.86.86 0 0 1-.07-.36.84.84 0 0 1 .07-.35 1 1 0 0 1 .2-.29.89.89 0 0 1 .31-.19.87.87 0 0 1 .37-.07zM63.51 63.88a.87.87 0 0 1 .37.07 1 1 0 0 1 .3.19 1 1 0 0 1 .2.29.84.84 0 0 1 .07.35.86.86 0 0 1-.07.36 1 1 0 0 1-.2.3 1.17 1.17 0 0 1-.3.19.87.87 0 0 1-.37.07.94.94 0 0 1-.37-.07 1.17 1.17 0 0 1-.3-.19 1 1 0 0 1-.2-.3.86.86 0 0 1-.07-.36.84.84 0 0 1 .07-.35 1 1 0 0 1 .2-.29 1 1 0 0 1 .3-.19.94.94 0 0 1 .37-.07zM72.45 63.88a.87.87 0 0 1 .37.07 1 1 0 0 1 .3.19 1 1 0 0 1 .2.29.84.84 0 0 1 .07.35.86.86 0 0 1-.07.36 1 1 0 0 1-.2.3 1.17 1.17 0 0 1-.3.19.87.87 0 0 1-.37.07.94.94 0 0 1-.37-.07 1.17 1.17 0 0 1-.3-.19 1 1 0 0 1-.2-.3.86.86 0 0 1-.08-.36.85.85 0 0 1 .08-.35 1 1 0 0 1 .2-.29 1 1 0 0 1 .3-.19.94.94 0 0 1 .37-.07zM81.39 63.88a.9.9 0 0 1 .37.07.81.81 0 0 1 .29.19.86.86 0 0 1 .21.29.84.84 0 0 1 .07.35.86.86 0 0 1-.07.36.9.9 0 0 1-.21.3 1 1 0 0 1-.29.19.9.9 0 0 1-.37.07.94.94 0 0 1-.37-.07.91.91 0 0 1-.3-.19.88.88 0 0 1-.2-.3.86.86 0 0 1-.08-.36.85.85 0 0 1 .08-.35.84.84 0 0 1 .2-.29A.77.77 0 0 1 81 64a.94.94 0 0 1 .39-.12zM90.33 63.88a.94.94 0 0 1 .37.07.81.81 0 0 1 .29.19.72.72 0 0 1 .2.29.85.85 0 0 1 .08.35.86.86 0 0 1-.08.36.75.75 0 0 1-.2.3 1 1 0 0 1-.29.19.94.94 0 0 1-.37.07.94.94 0 0 1-.88-.56.86.86 0 0 1-.07-.36.84.84 0 0 1 .07-.35.86.86 0 0 1 .21-.29A.77.77 0 0 1 90 64a.9.9 0 0 1 .33-.12zM5.47 57.49a.94.94 0 0 1 .37.07 1 1 0 0 1 .5.48.86.86 0 0 1 .07.36.84.84 0 0 1-.07.35.9.9 0 0 1-.21.3 1 1 0 0 1-.29.19.94.94 0 0 1-.37.07 1 1 0 0 1-.67-.26.88.88 0 0 1-.2-.3.85.85 0 0 1-.08-.35.86.86 0 0 1 .08-.4.94.94 0 0 1 .2-.29 1 1 0 0 1 .67-.26zM14.41 57.49a.86.86 0 0 1 .36.07.91.91 0 0 1 .3.19.94.94 0 0 1 .2.29.86.86 0 0 1 .08.36.85.85 0 0 1-.08.35.88.88 0 0 1-.2.3.91.91 0 0 1-.3.19.86.86 0 0 1-.36.07.94.94 0 0 1-.88-.56.84.84 0 0 1-.07-.35.86.86 0 0 1 .07-.36 1 1 0 0 1 .21-.29 1 1 0 0 1 .67-.26zM23.35 57.49a.86.86 0 0 1 .36.07.91.91 0 0 1 .3.19.94.94 0 0 1 .2.29.86.86 0 0 1 .08.36.85.85 0 0 1-.08.35.88.88 0 0 1-.2.3.91.91 0 0 1-.3.19.86.86 0 0 1-.36.07.87.87 0 0 1-.37-.07 1.08 1.08 0 0 1-.31-.19 1 1 0 0 1-.2-.3.84.84 0 0 1-.07-.35.86.86 0 0 1 .07-.36 1.15 1.15 0 0 1 .2-.29 1.08 1.08 0 0 1 .31-.19.87.87 0 0 1 .37-.07zM32.28 57.49a.87.87 0 0 1 .37.07 1.17 1.17 0 0 1 .3.19 1.15 1.15 0 0 1 .2.29.86.86 0 0 1 .07.36.84.84 0 0 1-.07.35 1 1 0 0 1-.2.3 1.17 1.17 0 0 1-.3.19.87.87 0 0 1-.37.07.94.94 0 0 1-.37-.07 1.17 1.17 0 0 1-.3-.19 1 1 0 0 1-.2-.3.84.84 0 0 1-.07-.35.86.86 0 0 1 .07-.36 1.15 1.15 0 0 1 .2-.29 1.17 1.17 0 0 1 .3-.19.94.94 0 0 1 .37-.07zM41.22 57.49a.9.9 0 0 1 .37.07 1.17 1.17 0 0 1 .3.19 1.15 1.15 0 0 1 .2.29.86.86 0 0 1 .07.36.84.84 0 0 1-.07.35 1 1 0 0 1-.2.3 1.17 1.17 0 0 1-.3.19.9.9 0 0 1-.37.07.94.94 0 0 1-.37-.07 1.17 1.17 0 0 1-.3-.19.88.88 0 0 1-.2-.3.85.85 0 0 1-.08-.35.86.86 0 0 1 .08-.36.94.94 0 0 1 .2-.29 1.17 1.17 0 0 1 .3-.19.94.94 0 0 1 .37-.07zM50.16 57.49a.9.9 0 0 1 .37.07A1 1 0 0 1 51 58a.86.86 0 0 1 .07.36.84.84 0 0 1-.07.35.9.9 0 0 1-.21.3 1 1 0 0 1-.29.19 1 1 0 0 1-1-.19.88.88 0 0 1-.2-.3.85.85 0 0 1-.08-.35.86.86 0 0 1 .08-.36.94.94 0 0 1 .2-.29 1 1 0 0 1 .67-.26zM59.1 57.49a.94.94 0 0 1 .37.07 1 1 0 0 1 .29.19.94.94 0 0 1 .24.25.86.86 0 0 1 .08.36.85.85 0 0 1-.08.35.88.88 0 0 1-.2.3 1 1 0 0 1-.29.19.94.94 0 0 1-.37.07.94.94 0 0 1-.88-.56.84.84 0 0 1-.07-.35.86.86 0 0 1 .07-.36 1 1 0 0 1 .21-.29 1 1 0 0 1 .67-.26zM68 57.49a.86.86 0 0 1 .36.07 1 1 0 0 1 .3.19.94.94 0 0 1 .2.29.86.86 0 0 1 .08.36.85.85 0 0 1-.08.35.88.88 0 0 1-.2.3 1 1 0 0 1-.3.19.86.86 0 0 1-.36.07 1 1 0 0 1-.38-.07 1.17 1.17 0 0 1-.3-.19 1 1 0 0 1-.2-.3.84.84 0 0 1-.07-.35.86.86 0 0 1 .07-.36 1.15 1.15 0 0 1 .2-.29 1.17 1.17 0 0 1 .3-.19 1 1 0 0 1 .38-.07zM77 57.49a.87.87 0 0 1 .37.07 1.17 1.17 0 0 1 .3.19 1.15 1.15 0 0 1 .2.29.86.86 0 0 1 .07.36.84.84 0 0 1-.07.35 1 1 0 0 1-.2.3 1.17 1.17 0 0 1-.3.19.87.87 0 0 1-.37.07.94.94 0 0 1-.37-.07 1.17 1.17 0 0 1-.3-.19 1 1 0 0 1-.2-.3.84.84 0 0 1-.13-.35.86.86 0 0 1 .1-.4 1.15 1.15 0 0 1 .2-.29 1.17 1.17 0 0 1 .3-.19.94.94 0 0 1 .4-.03zM85.91 57.49a.9.9 0 0 1 .37.07 1.17 1.17 0 0 1 .3.19 1.15 1.15 0 0 1 .2.29.86.86 0 0 1 .07.36.84.84 0 0 1-.07.35 1 1 0 0 1-.2.3 1.17 1.17 0 0 1-.3.19.9.9 0 0 1-.37.07.94.94 0 0 1-.37-.07 1.17 1.17 0 0 1-.3-.19.88.88 0 0 1-.2-.3.85.85 0 0 1-.04-.35.86.86 0 0 1 0-.4.94.94 0 0 1 .2-.29 1.17 1.17 0 0 1 .3-.19.94.94 0 0 1 .41-.03zM1 76.65a1.16 1.16 0 0 1 .37.07.84.84 0 0 1 .29.2.8.8 0 0 1 .2.28.86.86 0 0 1 .08.36.9.9 0 0 1-.08.36.84.84 0 0 1-.2.29.81.81 0 0 1-.29.19.94.94 0 0 1-.37.07.9.9 0 0 1-.37-.07.77.77 0 0 1-.3-.19.86.86 0 0 1-.21-.29.89.89 0 0 1-.12-.36.86.86 0 0 1 .07-.36.83.83 0 0 1 .21-.28.79.79 0 0 1 .3-.2 1.11 1.11 0 0 1 .42-.07zM9.89 76.65a1 1 0 0 1 .36.07 1 1 0 0 1 .5.48.86.86 0 0 1 .08.36.9.9 0 0 1-.08.36.84.84 0 0 1-.2.29.77.77 0 0 1-.3.19.86.86 0 0 1-.36.07.87.87 0 0 1-.37-.07.89.89 0 0 1-.31-.19 1 1 0 0 1-.2-.29.89.89 0 0 1-.07-.36.86.86 0 0 1 .06-.36 1 1 0 0 1 .2-.28.92.92 0 0 1 .31-.2 1.06 1.06 0 0 1 .38-.07zM18.82 76.65a1.06 1.06 0 0 1 .37.07 1 1 0 0 1 .3.2 1 1 0 0 1 .2.28.86.86 0 0 1 .07.36.89.89 0 0 1-.07.36 1 1 0 0 1-.2.29 1 1 0 0 1-.3.19.87.87 0 0 1-.37.07.94.94 0 0 1-.37-.07 1 1 0 0 1-.3-.19 1 1 0 0 1-.2-.29.89.89 0 0 1-.07-.36.86.86 0 0 1 .12-.36 1 1 0 0 1 .2-.28 1 1 0 0 1 .3-.2 1.16 1.16 0 0 1 .32-.07zM27.76 76.65a1.11 1.11 0 0 1 .37.07 1 1 0 0 1 .3.2 1 1 0 0 1 .2.28.86.86 0 0 1 .07.36.89.89 0 0 1-.07.36 1 1 0 0 1-.2.29 1 1 0 0 1-.3.19.9.9 0 0 1-.37.07.94.94 0 0 1-.37-.07 1 1 0 0 1-.3-.19.84.84 0 0 1-.2-.29.9.9 0 0 1-.08-.36.86.86 0 0 1 .08-.36.8.8 0 0 1 .2-.28 1 1 0 0 1 .3-.2 1.16 1.16 0 0 1 .37-.07zM36.7 76.65a1.16 1.16 0 0 1 .37.07.84.84 0 0 1 .29.2.83.83 0 0 1 .21.28.86.86 0 0 1 .07.36.89.89 0 0 1-.07.36.86.86 0 0 1-.21.29.81.81 0 0 1-.29.19.94.94 0 0 1-.37.07.9.9 0 0 1-.37-.07.77.77 0 0 1-.3-.19.84.84 0 0 1-.2-.29.9.9 0 0 1-.08-.36.86.86 0 0 1 .08-.36 1 1 0 0 1 .5-.48 1.11 1.11 0 0 1 .37-.07zM45.64 76.65a1.16 1.16 0 0 1 .37.07.84.84 0 0 1 .29.2.69.69 0 0 1 .2.28.86.86 0 0 1 .08.36.9.9 0 0 1-.08.36.72.72 0 0 1-.2.29.81.81 0 0 1-.29.19.94.94 0 0 1-.37.07.9.9 0 0 1-.37-.07.77.77 0 0 1-.3-.19.86.86 0 0 1-.21-.29 1.1 1.1 0 0 1-.07-.36 1 1 0 0 1 .07-.36.83.83 0 0 1 .21-.28.79.79 0 0 1 .3-.2 1.11 1.11 0 0 1 .37-.07zM54.58 76.65a1 1 0 0 1 .36.07 1 1 0 0 1 .5.48.86.86 0 0 1 .08.36.9.9 0 0 1-.08.36.84.84 0 0 1-.2.29.77.77 0 0 1-.3.19.86.86 0 0 1-.36.07.87.87 0 0 1-.37-.07.89.89 0 0 1-.31-.19 1 1 0 0 1-.2-.29.89.89 0 0 1-.07-.36.86.86 0 0 1 .07-.36 1 1 0 0 1 .2-.28.92.92 0 0 1 .31-.2 1.06 1.06 0 0 1 .37-.07zM63.51 76.65a1.06 1.06 0 0 1 .37.07 1 1 0 0 1 .3.2 1 1 0 0 1 .2.28.86.86 0 0 1 .07.36.89.89 0 0 1-.07.36 1 1 0 0 1-.2.29 1 1 0 0 1-.3.19.87.87 0 0 1-.37.07.94.94 0 0 1-.37-.07 1 1 0 0 1-.3-.19 1 1 0 0 1-.2-.29.89.89 0 0 1-.07-.36.86.86 0 0 1 .07-.36 1 1 0 0 1 .2-.28 1 1 0 0 1 .3-.2 1.16 1.16 0 0 1 .37-.07zM72.45 76.65a1.06 1.06 0 0 1 .37.07 1 1 0 0 1 .3.2 1 1 0 0 1 .2.28.86.86 0 0 1 .07.36.89.89 0 0 1-.07.36 1 1 0 0 1-.2.29 1 1 0 0 1-.3.19.87.87 0 0 1-.37.07.94.94 0 0 1-.37-.07 1 1 0 0 1-.3-.19 1 1 0 0 1-.2-.29.9.9 0 0 1-.08-.36.86.86 0 0 1 .08-.36 1 1 0 0 1 .2-.28 1 1 0 0 1 .3-.2 1.16 1.16 0 0 1 .37-.07zM81.39 76.65a1.11 1.11 0 0 1 .37.07.84.84 0 0 1 .29.2.83.83 0 0 1 .21.28.86.86 0 0 1 .07.36.89.89 0 0 1-.07.36.86.86 0 0 1-.21.29.81.81 0 0 1-.29.19.9.9 0 0 1-.37.07.94.94 0 0 1-.39-.07.77.77 0 0 1-.3-.19.84.84 0 0 1-.2-.29.9.9 0 0 1-.08-.36.86.86 0 0 1 .08-.36 1 1 0 0 1 .5-.48 1.16 1.16 0 0 1 .39-.07zM90.33 76.65a1.16 1.16 0 0 1 .37.07.84.84 0 0 1 .29.2.69.69 0 0 1 .2.28.86.86 0 0 1 .08.36.9.9 0 0 1-.08.36.72.72 0 0 1-.2.29.81.81 0 0 1-.29.19.94.94 0 0 1-.37.07.9.9 0 0 1-.33-.07.77.77 0 0 1-.3-.19.86.86 0 0 1-.21-.29.89.89 0 0 1-.07-.36.86.86 0 0 1 .07-.36.83.83 0 0 1 .21-.28.79.79 0 0 1 .3-.2 1.11 1.11 0 0 1 .33-.07zM5.47 70.26a1.16 1.16 0 0 1 .37.07 1 1 0 0 1 .29.2.86.86 0 0 1 .21.29.84.84 0 0 1 .07.35.84.84 0 0 1-.28.65.84.84 0 0 1-.29.2 1.16 1.16 0 0 1-.37.07A1.11 1.11 0 0 1 5.1 72a.79.79 0 0 1-.3-.2.84.84 0 0 1-.2-.29.86.86 0 0 1-.08-.36.85.85 0 0 1 .08-.35.84.84 0 0 1 .2-.29.93.93 0 0 1 .3-.2 1.11 1.11 0 0 1 .37-.05zM14.41 70.26a1 1 0 0 1 .36.07.93.93 0 0 1 .3.2.84.84 0 0 1 .2.29.85.85 0 0 1 .08.35.86.86 0 0 1-.08.36.84.84 0 0 1-.2.29.79.79 0 0 1-.3.2 1 1 0 0 1-.36.07A1.11 1.11 0 0 1 14 72a.79.79 0 0 1-.3-.2.84.84 0 0 1-.28-.65.84.84 0 0 1 .07-.35.86.86 0 0 1 .21-.29.93.93 0 0 1 .3-.2 1.11 1.11 0 0 1 .41-.05zM23.35 70.26a1 1 0 0 1 .36.07.93.93 0 0 1 .3.2.84.84 0 0 1 .2.29.85.85 0 0 1 .08.35.86.86 0 0 1-.08.36.84.84 0 0 1-.2.29.79.79 0 0 1-.3.2 1 1 0 0 1-.36.07A1.06 1.06 0 0 1 23 72a.92.92 0 0 1-.31-.2 1 1 0 0 1-.2-.29.86.86 0 0 1-.07-.36.84.84 0 0 1 .07-.35 1 1 0 0 1 .2-.29 1.1 1.1 0 0 1 .31-.2 1.06 1.06 0 0 1 .35-.05zM32.28 70.26a1.06 1.06 0 0 1 .37.07 1.21 1.21 0 0 1 .3.2 1 1 0 0 1 .2.29.84.84 0 0 1 .07.35.86.86 0 0 1-.07.36 1 1 0 0 1-.2.29 1 1 0 0 1-.3.2 1.06 1.06 0 0 1-.37.07 1.16 1.16 0 0 1-.37-.07 1 1 0 0 1-.3-.2 1 1 0 0 1-.2-.29.86.86 0 0 1-.07-.36.84.84 0 0 1 .07-.35 1 1 0 0 1 .2-.29 1.21 1.21 0 0 1 .3-.2 1.16 1.16 0 0 1 .37-.07zM41.22 70.26a1.11 1.11 0 0 1 .37.07 1.21 1.21 0 0 1 .3.2 1 1 0 0 1 .2.29.84.84 0 0 1 .07.35.86.86 0 0 1-.07.36 1 1 0 0 1-.2.29 1 1 0 0 1-.3.2 1.11 1.11 0 0 1-.37.07 1.16 1.16 0 0 1-.37-.07 1 1 0 0 1-.3-.2.84.84 0 0 1-.2-.29.86.86 0 0 1-.08-.36.85.85 0 0 1 .08-.35.84.84 0 0 1 .2-.29 1.21 1.21 0 0 1 .3-.2 1.16 1.16 0 0 1 .37-.07zM50.16 70.26a1.11 1.11 0 0 1 .37.07 1 1 0 0 1 .29.2.86.86 0 0 1 .21.29.84.84 0 0 1 .07.35.84.84 0 0 1-.28.65.84.84 0 0 1-.29.2 1 1 0 0 1-.74 0 .79.79 0 0 1-.3-.2.84.84 0 0 1-.2-.29.86.86 0 0 1-.08-.36.85.85 0 0 1 .08-.35.84.84 0 0 1 .2-.29.93.93 0 0 1 .3-.2 1.11 1.11 0 0 1 .37-.07zM59.1 70.26a1.16 1.16 0 0 1 .37.07 1 1 0 0 1 .29.2.84.84 0 0 1 .2.29.85.85 0 0 1 .08.35.86.86 0 0 1-.08.36 1 1 0 0 1-.49.49 1.16 1.16 0 0 1-.37.07 1.11 1.11 0 0 1-.37-.07.79.79 0 0 1-.3-.2.84.84 0 0 1-.28-.65.84.84 0 0 1 .07-.35.86.86 0 0 1 .21-.29.93.93 0 0 1 .3-.2 1.11 1.11 0 0 1 .37-.07zM68 70.26a.92.92 0 0 1 .66.27.84.84 0 0 1 .2.29.85.85 0 0 1 .08.35.86.86 0 0 1-.08.36.84.84 0 0 1-.2.29.88.88 0 0 1-.3.2 1 1 0 0 1-.36.07 1.17 1.17 0 0 1-.38-.07 1 1 0 0 1-.3-.2 1 1 0 0 1-.2-.29.86.86 0 0 1-.07-.36.84.84 0 0 1 .07-.35 1 1 0 0 1 .2-.29 1.21 1.21 0 0 1 .3-.2 1.17 1.17 0 0 1 .38-.07zM77 70.26a1.06 1.06 0 0 1 .37.07 1.21 1.21 0 0 1 .3.2 1 1 0 0 1 .2.29.84.84 0 0 1 .07.35.86.86 0 0 1-.07.36 1 1 0 0 1-.2.29 1 1 0 0 1-.3.2 1.06 1.06 0 0 1-.37.07 1.16 1.16 0 0 1-.4-.09 1 1 0 0 1-.3-.2 1 1 0 0 1-.2-.29.86.86 0 0 1-.07-.36.84.84 0 0 1 .07-.35 1 1 0 0 1 .2-.29 1.21 1.21 0 0 1 .3-.2 1.16 1.16 0 0 1 .4-.05zM85.91 70.26a1.11 1.11 0 0 1 .37.07 1.21 1.21 0 0 1 .3.2 1 1 0 0 1 .2.29.84.84 0 0 1 .07.35.86.86 0 0 1-.07.36 1 1 0 0 1-.2.29 1 1 0 0 1-.3.2 1.11 1.11 0 0 1-.37.07 1.16 1.16 0 0 1-.37-.07 1 1 0 0 1-.3-.2.84.84 0 0 1-.2-.29.86.86 0 0 1-.08-.36.85.85 0 0 1 .08-.35.84.84 0 0 1 .2-.29 1.21 1.21 0 0 1 .3-.2 1.16 1.16 0 0 1 .37-.07zM1 89.43a.94.94 0 0 1 .37.07.81.81 0 0 1 .29.19.84.84 0 0 1 .2.29.85.85 0 0 1 .08.35.86.86 0 0 1-.08.36.88.88 0 0 1-.2.3 1 1 0 0 1-.29.19.94.94 0 0 1-.37.07.9.9 0 0 1-.37-.07.92.92 0 0 1-.51-.49.86.86 0 0 1-.12-.36.84.84 0 0 1 .07-.33.86.86 0 0 1 .21-.29.77.77 0 0 1 .3-.19.9.9 0 0 1 .42-.09zM9.89 89.43a.86.86 0 0 1 .36.07.77.77 0 0 1 .3.19.84.84 0 0 1 .2.29.85.85 0 0 1 .08.35.86.86 0 0 1-.08.36.88.88 0 0 1-.2.3.91.91 0 0 1-.3.19.86.86 0 0 1-.36.07.87.87 0 0 1-.37-.07 1.08 1.08 0 0 1-.31-.18 1 1 0 0 1-.2-.3.86.86 0 0 1-.07-.36A.84.84 0 0 1 9 90a1 1 0 0 1 .2-.29.89.89 0 0 1 .31-.19.87.87 0 0 1 .38-.09zM18.82 89.43a.87.87 0 0 1 .37.07 1 1 0 0 1 .3.19 1 1 0 0 1 .2.29.84.84 0 0 1 .07.35.86.86 0 0 1-.07.36 1 1 0 0 1-.2.3 1.17 1.17 0 0 1-.3.19.87.87 0 0 1-.37.07.94.94 0 0 1-.37-.07 1.17 1.17 0 0 1-.3-.19 1 1 0 0 1-.2-.3.86.86 0 0 1-.07-.36A.84.84 0 0 1 18 90a1 1 0 0 1 .2-.29 1 1 0 0 1 .3-.19.94.94 0 0 1 .32-.09zM27.76 89.43a.9.9 0 0 1 .37.07 1 1 0 0 1 .3.19 1 1 0 0 1 .2.29.84.84 0 0 1 .07.35.86.86 0 0 1-.07.36 1 1 0 0 1-.2.3 1.17 1.17 0 0 1-.3.19.9.9 0 0 1-.37.07.94.94 0 0 1-.37-.07 1.17 1.17 0 0 1-.3-.19.88.88 0 0 1-.2-.3.86.86 0 0 1-.08-.36.85.85 0 0 1 .08-.35.84.84 0 0 1 .2-.29 1 1 0 0 1 .3-.19.94.94 0 0 1 .37-.07zM36.7 89.43a.94.94 0 0 1 .37.07.81.81 0 0 1 .29.19.86.86 0 0 1 .21.29.84.84 0 0 1 .07.35.86.86 0 0 1-.07.36.9.9 0 0 1-.21.3 1 1 0 0 1-.29.19.94.94 0 0 1-.37.07A1 1 0 0 1 36 91a.88.88 0 0 1-.2-.3.86.86 0 0 1-.08-.36.85.85 0 0 1 .08-.35.84.84 0 0 1 .2-.29.77.77 0 0 1 .3-.19.9.9 0 0 1 .4-.08zM45.64 89.43a.94.94 0 0 1 .37.07.81.81 0 0 1 .29.19.72.72 0 0 1 .2.29.85.85 0 0 1 .08.35.86.86 0 0 1-.08.36.75.75 0 0 1-.2.3 1 1 0 0 1-.29.19.94.94 0 0 1-.37.07.94.94 0 0 1-.88-.56.94.94 0 0 1 0-.71.86.86 0 0 1 .21-.29.77.77 0 0 1 .3-.19.9.9 0 0 1 .37-.07zM54.58 89.43a.86.86 0 0 1 .36.07.77.77 0 0 1 .3.19.84.84 0 0 1 .2.29.85.85 0 0 1 .08.35.86.86 0 0 1-.08.36.88.88 0 0 1-.2.3.91.91 0 0 1-.3.19.86.86 0 0 1-.36.07.87.87 0 0 1-.37-.07 1.08 1.08 0 0 1-.31-.18 1 1 0 0 1-.2-.3.86.86 0 0 1-.07-.36.84.84 0 0 1 .07-.34 1 1 0 0 1 .2-.29.89.89 0 0 1 .31-.19.87.87 0 0 1 .37-.09zM63.51 89.43a.87.87 0 0 1 .37.07 1 1 0 0 1 .3.19 1 1 0 0 1 .2.29.84.84 0 0 1 .07.35.86.86 0 0 1-.07.36 1 1 0 0 1-.2.3 1.17 1.17 0 0 1-.3.19.87.87 0 0 1-.37.07.94.94 0 0 1-.37-.07 1.17 1.17 0 0 1-.3-.19 1 1 0 0 1-.2-.3.86.86 0 0 1-.07-.36.84.84 0 0 1 .07-.35 1 1 0 0 1 .2-.29 1 1 0 0 1 .3-.19.94.94 0 0 1 .37-.07zM72.45 89.43a.87.87 0 0 1 .37.07 1 1 0 0 1 .3.19 1 1 0 0 1 .2.29.84.84 0 0 1 .07.35.86.86 0 0 1-.07.36 1 1 0 0 1-.2.3 1.17 1.17 0 0 1-.3.19.87.87 0 0 1-.37.07.94.94 0 0 1-.37-.07 1.17 1.17 0 0 1-.3-.19 1 1 0 0 1-.2-.3.86.86 0 0 1-.08-.36.85.85 0 0 1 .08-.35 1 1 0 0 1 .2-.29 1 1 0 0 1 .3-.19.94.94 0 0 1 .37-.07zM81.39 89.43a.9.9 0 0 1 .37.07.81.81 0 0 1 .29.19.86.86 0 0 1 .21.29.84.84 0 0 1 .07.35.86.86 0 0 1-.07.36.9.9 0 0 1-.21.3 1 1 0 0 1-.29.19.9.9 0 0 1-.37.07.94.94 0 0 1-.37-.07.91.91 0 0 1-.3-.19.88.88 0 0 1-.2-.3.86.86 0 0 1-.08-.36.85.85 0 0 1 .08-.35.84.84 0 0 1 .2-.29.77.77 0 0 1 .3-.19.94.94 0 0 1 .37-.07zM90.33 89.43a.94.94 0 0 1 .37.07.81.81 0 0 1 .29.19.72.72 0 0 1 .2.29.85.85 0 0 1 .08.35.86.86 0 0 1-.08.36.75.75 0 0 1-.2.3 1 1 0 0 1-.29.19.94.94 0 0 1-.37.07.94.94 0 0 1-.88-.56.86.86 0 0 1-.07-.36.84.84 0 0 1 .07-.35.86.86 0 0 1 .21-.29.77.77 0 0 1 .3-.19.9.9 0 0 1 .37-.07zM5.47 83a.94.94 0 0 1 .37.07 1 1 0 0 1 .5.48.86.86 0 0 1 .07.36.92.92 0 0 1-.07.36.86.86 0 0 1-.21.29.81.81 0 0 1-.29.19.94.94 0 0 1-.37.07.9.9 0 0 1-.37-.07.77.77 0 0 1-.3-.19.84.84 0 0 1-.2-.29.94.94 0 0 1-.08-.27.86.86 0 0 1 .08-.36.94.94 0 0 1 .2-.29 1 1 0 0 1 .67-.35zM14.41 83a.86.86 0 0 1 .36.07.91.91 0 0 1 .3.19.94.94 0 0 1 .2.29.86.86 0 0 1 .08.36.94.94 0 0 1-.08.36.84.84 0 0 1-.2.29.77.77 0 0 1-.3.19.86.86 0 0 1-.36.07.9.9 0 0 1-.37-.07.77.77 0 0 1-.3-.19.86.86 0 0 1-.21-.29.92.92 0 0 1-.07-.36.86.86 0 0 1 .07-.36 1 1 0 0 1 .21-.29 1 1 0 0 1 .67-.26zM23.35 83a.86.86 0 0 1 .36.07.91.91 0 0 1 .3.19.94.94 0 0 1 .2.29.86.86 0 0 1 .08.36.94.94 0 0 1-.08.36.84.84 0 0 1-.2.29.77.77 0 0 1-.3.19.86.86 0 0 1-.36.07.87.87 0 0 1-.37-.07.89.89 0 0 1-.31-.19 1 1 0 0 1-.2-.29.92.92 0 0 1-.07-.27.86.86 0 0 1 .07-.36 1.15 1.15 0 0 1 .2-.29 1.08 1.08 0 0 1 .31-.19.87.87 0 0 1 .37-.16zM32.28 83a.87.87 0 0 1 .37.07 1.17 1.17 0 0 1 .3.19 1.15 1.15 0 0 1 .2.29.86.86 0 0 1 .07.36.92.92 0 0 1-.07.36 1 1 0 0 1-.2.29 1 1 0 0 1-.3.19.87.87 0 0 1-.37.07.94.94 0 0 1-.37-.07 1 1 0 0 1-.3-.19 1 1 0 0 1-.2-.29.92.92 0 0 1-.07-.36.86.86 0 0 1 .07-.36 1.15 1.15 0 0 1 .2-.29 1.17 1.17 0 0 1 .3-.19.94.94 0 0 1 .37-.07zM41.22 83a.9.9 0 0 1 .37.07 1.17 1.17 0 0 1 .3.19 1.15 1.15 0 0 1 .2.29.86.86 0 0 1 .07.36.92.92 0 0 1-.07.36 1 1 0 0 1-.2.29 1 1 0 0 1-.3.19.9.9 0 0 1-.37.07.94.94 0 0 1-.37-.07 1 1 0 0 1-.3-.19.84.84 0 0 1-.2-.29.94.94 0 0 1-.08-.36.86.86 0 0 1 .08-.36.94.94 0 0 1 .2-.29 1.17 1.17 0 0 1 .3-.19.94.94 0 0 1 .37-.07zM50.16 83a.9.9 0 0 1 .37.07 1 1 0 0 1 .5.48.86.86 0 0 1 .07.36.92.92 0 0 1-.07.36.86.86 0 0 1-.21.29.81.81 0 0 1-.29.19 1 1 0 0 1-.74 0 .77.77 0 0 1-.3-.19.84.84 0 0 1-.2-.29.94.94 0 0 1-.08-.36.86.86 0 0 1 .08-.36.94.94 0 0 1 .2-.29 1 1 0 0 1 .67-.26zM59.1 83a.94.94 0 0 1 .37.07 1 1 0 0 1 .29.19.94.94 0 0 1 .2.29.86.86 0 0 1 .04.45.94.94 0 0 1-.08.36.84.84 0 0 1-.2.29.81.81 0 0 1-.29.19.94.94 0 0 1-.37.07.9.9 0 0 1-.37-.07.77.77 0 0 1-.3-.19.86.86 0 0 1-.21-.29.92.92 0 0 1-.07-.36.86.86 0 0 1 .07-.36 1 1 0 0 1 .21-.29 1 1 0 0 1 .71-.35zM68 83a.86.86 0 0 1 .36.07 1 1 0 0 1 .3.19.94.94 0 0 1 .2.29.86.86 0 0 1 .14.45.94.94 0 0 1-.08.36.84.84 0 0 1-.2.29 1 1 0 0 1-.66.26 1 1 0 0 1-.68-.26 1 1 0 0 1-.2-.29.92.92 0 0 1-.07-.36.86.86 0 0 1 .07-.36 1.15 1.15 0 0 1 .2-.29 1.17 1.17 0 0 1 .3-.19A1 1 0 0 1 68 83zM77 83a.87.87 0 0 1 .37.07 1.17 1.17 0 0 1 .3.19 1.15 1.15 0 0 1 .2.29.86.86 0 0 1 .07.36.92.92 0 0 1-.07.36 1 1 0 0 1-.2.29 1 1 0 0 1-.3.19.87.87 0 0 1-.37.07.94.94 0 0 1-.37-.07 1 1 0 0 1-.3-.19 1 1 0 0 1-.2-.29A.92.92 0 0 1 76 84a.86.86 0 0 1 .07-.36 1.15 1.15 0 0 1 .2-.29 1.17 1.17 0 0 1 .3-.19A.94.94 0 0 1 77 83zM85.91 83a.9.9 0 0 1 .37.07 1.17 1.17 0 0 1 .3.19 1.15 1.15 0 0 1 .2.29.86.86 0 0 1 .07.36.92.92 0 0 1-.07.36 1 1 0 0 1-.2.29 1 1 0 0 1-.3.19.9.9 0 0 1-.37.07.94.94 0 0 1-.37-.07 1 1 0 0 1-.3-.19.84.84 0 0 1-.2-.29A.94.94 0 0 1 85 84a.86.86 0 0 1 .08-.36.94.94 0 0 1 .2-.29 1.17 1.17 0 0 1 .3-.19.94.94 0 0 1 .33-.16zM1 102.2a1.16 1.16 0 0 1 .37.07.84.84 0 0 1 .29.2.9.9 0 0 1 .2.28.85.85 0 0 1 0 .72.84.84 0 0 1-.2.29.81.81 0 0 1-.29.19.94.94 0 0 1-.37.05.9.9 0 0 1-.42 0 .77.77 0 0 1-.3-.19.92.92 0 0 1-.21-1 .94.94 0 0 1 .21-.28.79.79 0 0 1 .3-.2 1.11 1.11 0 0 1 .42-.13zM9.89 102.2a1 1 0 0 1 .36.07.79.79 0 0 1 .3.2.9.9 0 0 1 .2.28.85.85 0 0 1 0 .72.84.84 0 0 1-.2.29.77.77 0 0 1-.3.19.86.86 0 0 1-.36.07.87.87 0 0 1-.37-.07.89.89 0 0 1-.31-.19 1 1 0 0 1-.2-.29 1 1 0 0 1 0-.72 1.1 1.1 0 0 1 .2-.28.92.92 0 0 1 .31-.2 1.06 1.06 0 0 1 .37-.07zM18.82 102.2a1.06 1.06 0 0 1 .37.07 1 1 0 0 1 .3.2 1.1 1.1 0 0 1 .2.28 1 1 0 0 1 0 .72 1 1 0 0 1-.2.29 1 1 0 0 1-.3.19.87.87 0 0 1-.37.07.94.94 0 0 1-.37-.07 1 1 0 0 1-.3-.19 1 1 0 0 1-.2-.29 1 1 0 0 1 0-.72 1.1 1.1 0 0 1 .2-.28 1 1 0 0 1 .3-.2 1.16 1.16 0 0 1 .37-.07zM27.76 102.2a1.11 1.11 0 0 1 .37.07 1 1 0 0 1 .3.2 1.1 1.1 0 0 1 .2.28 1 1 0 0 1 0 .72 1 1 0 0 1-.2.29 1 1 0 0 1-.3.19.9.9 0 0 1-.37.07.94.94 0 0 1-.37-.07 1 1 0 0 1-.3-.19.84.84 0 0 1-.2-.29.85.85 0 0 1 0-.72.9.9 0 0 1 .2-.28 1 1 0 0 1 .3-.2 1.16 1.16 0 0 1 .37-.07zM36.7 102.2a1.16 1.16 0 0 1 .37.07.84.84 0 0 1 .29.2.94.94 0 0 1 .21.28.88.88 0 0 1-.21 1 .81.81 0 0 1-.29.19.94.94 0 0 1-.37.07.9.9 0 0 1-.37-.07.77.77 0 0 1-.3-.19.84.84 0 0 1-.2-.29.85.85 0 0 1 0-.72.9.9 0 0 1 .2-.28.79.79 0 0 1 .3-.2 1.11 1.11 0 0 1 .37-.06zM45.64 102.2a1.16 1.16 0 0 1 .37.07.84.84 0 0 1 .29.2.76.76 0 0 1 .2.28.85.85 0 0 1 0 .72.72.72 0 0 1-.2.29.81.81 0 0 1-.3.24.94.94 0 0 1-.37.07.9.9 0 0 1-.37-.07.77.77 0 0 1-.3-.19.86.86 0 0 1-.21-.29 1 1 0 0 1 0-.72.94.94 0 0 1 .21-.28.79.79 0 0 1 .3-.2 1.11 1.11 0 0 1 .38-.12zM54.58 102.2a1 1 0 0 1 .36.07.79.79 0 0 1 .3.2.9.9 0 0 1 .2.28.85.85 0 0 1 0 .72.84.84 0 0 1-.2.29.77.77 0 0 1-.3.19.86.86 0 0 1-.36.07.87.87 0 0 1-.37-.07.89.89 0 0 1-.31-.19 1 1 0 0 1-.2-.29 1 1 0 0 1 0-.72 1.1 1.1 0 0 1 .2-.28.92.92 0 0 1 .31-.2 1.06 1.06 0 0 1 .37-.07zM63.51 102.2a1.06 1.06 0 0 1 .37.07 1 1 0 0 1 .3.2 1.1 1.1 0 0 1 .2.28 1 1 0 0 1 0 .72 1 1 0 0 1-.2.29 1 1 0 0 1-.3.19.87.87 0 0 1-.37.07.94.94 0 0 1-.37-.07 1 1 0 0 1-.3-.19 1 1 0 0 1-.2-.29 1 1 0 0 1 0-.72 1.1 1.1 0 0 1 .2-.28 1 1 0 0 1 .3-.2 1.16 1.16 0 0 1 .37-.07zM72.45 102.2a1.06 1.06 0 0 1 .37.07 1 1 0 0 1 .3.2 1.1 1.1 0 0 1 .2.28 1 1 0 0 1 0 .72 1 1 0 0 1-.2.29 1 1 0 0 1-.3.19.87.87 0 0 1-.37.07.94.94 0 0 1-.37-.07 1 1 0 0 1-.3-.19 1 1 0 0 1-.2-.29.85.85 0 0 1 0-.72 1.1 1.1 0 0 1 .2-.28 1 1 0 0 1 .3-.2 1.16 1.16 0 0 1 .37-.07zM81.39 102.2a1.11 1.11 0 0 1 .37.07.84.84 0 0 1 .29.2.94.94 0 0 1 .21.28.88.88 0 0 1-.21 1 .81.81 0 0 1-.29.19.9.9 0 0 1-.37.07.94.94 0 0 1-.39-.01.77.77 0 0 1-.3-.19.84.84 0 0 1-.2-.29.85.85 0 0 1 0-.72.9.9 0 0 1 .2-.28.79.79 0 0 1 .3-.2 1.16 1.16 0 0 1 .39-.12zM90.33 102.2a1.16 1.16 0 0 1 .37.07.84.84 0 0 1 .29.2.76.76 0 0 1 .2.28.85.85 0 0 1 0 .72.72.72 0 0 1-.2.29.81.81 0 0 1-.29.19.94.94 0 0 1-.37.07.9.9 0 0 1-.33-.02.77.77 0 0 1-.3-.19.92.92 0 0 1-.21-1 .94.94 0 0 1 .21-.28.79.79 0 0 1 .3-.2 1.11 1.11 0 0 1 .33-.13zM5.47 95.81a1.16 1.16 0 0 1 .37.07 1 1 0 0 1 .29.2.86.86 0 0 1 .21.29.84.84 0 0 1 .07.35.84.84 0 0 1-.28.65.84.84 0 0 1-.29.2 1.16 1.16 0 0 1-.37.07 1.11 1.11 0 0 1-.37-.07.79.79 0 0 1-.3-.2.84.84 0 0 1-.2-.29.86.86 0 0 1-.08-.36.85.85 0 0 1 .08-.35.84.84 0 0 1 .2-.29.93.93 0 0 1 .3-.2 1.11 1.11 0 0 1 .37-.07zM14.41 95.81a1 1 0 0 1 .36.07.93.93 0 0 1 .3.2.84.84 0 0 1 .2.29.85.85 0 0 1 .08.35.86.86 0 0 1-.08.36.84.84 0 0 1-.2.29.79.79 0 0 1-.3.2 1 1 0 0 1-.36.07 1.11 1.11 0 0 1-.37-.07.79.79 0 0 1-.3-.2.84.84 0 0 1-.28-.65.84.84 0 0 1 .07-.35.86.86 0 0 1 .21-.29.93.93 0 0 1 .3-.2 1.11 1.11 0 0 1 .37-.07zM23.35 95.81a1 1 0 0 1 .36.07.93.93 0 0 1 .3.2.84.84 0 0 1 .2.29.85.85 0 0 1 .08.35.86.86 0 0 1-.08.36.84.84 0 0 1-.2.29.79.79 0 0 1-.3.2 1 1 0 0 1-.36.07 1.06 1.06 0 0 1-.37-.07.92.92 0 0 1-.31-.2 1 1 0 0 1-.2-.29.86.86 0 0 1-.07-.36.84.84 0 0 1 .07-.35 1 1 0 0 1 .2-.29 1.1 1.1 0 0 1 .31-.2 1.06 1.06 0 0 1 .37-.07zM32.28 95.81a1.06 1.06 0 0 1 .37.07 1.21 1.21 0 0 1 .3.2 1 1 0 0 1 .2.29.84.84 0 0 1 .07.35.86.86 0 0 1-.07.36 1 1 0 0 1-.2.29 1 1 0 0 1-.3.2 1.06 1.06 0 0 1-.37.07 1.16 1.16 0 0 1-.37-.07 1 1 0 0 1-.3-.2 1 1 0 0 1-.2-.29.86.86 0 0 1-.07-.36.84.84 0 0 1 .07-.35 1 1 0 0 1 .2-.29 1.21 1.21 0 0 1 .3-.2 1.16 1.16 0 0 1 .37-.07zM41.22 95.81a1.11 1.11 0 0 1 .37.07 1.21 1.21 0 0 1 .3.2 1 1 0 0 1 .2.29.84.84 0 0 1 .07.35.86.86 0 0 1-.07.36 1 1 0 0 1-.2.29 1 1 0 0 1-.3.2 1.11 1.11 0 0 1-.37.07 1.16 1.16 0 0 1-.37-.07 1 1 0 0 1-.3-.2.84.84 0 0 1-.2-.29.86.86 0 0 1-.08-.36.85.85 0 0 1 .08-.35.84.84 0 0 1 .2-.29 1.21 1.21 0 0 1 .3-.2 1.16 1.16 0 0 1 .37-.07zM50.16 95.81a1.11 1.11 0 0 1 .37.07 1 1 0 0 1 .29.2.86.86 0 0 1 .21.29.84.84 0 0 1 .07.35.84.84 0 0 1-.28.65.84.84 0 0 1-.29.2 1 1 0 0 1-.74 0 .79.79 0 0 1-.3-.2.84.84 0 0 1-.2-.29.86.86 0 0 1-.08-.36.85.85 0 0 1 .08-.35.84.84 0 0 1 .2-.29.93.93 0 0 1 .3-.2 1.11 1.11 0 0 1 .37-.07zM59.1 95.81a1.16 1.16 0 0 1 .37.07 1 1 0 0 1 .29.2.84.84 0 0 1 .2.29.85.85 0 0 1 .08.35.86.86 0 0 1-.08.36 1 1 0 0 1-.49.49 1.16 1.16 0 0 1-.37.07 1.11 1.11 0 0 1-.37-.07.79.79 0 0 1-.3-.2.84.84 0 0 1-.28-.65.84.84 0 0 1 .07-.35.86.86 0 0 1 .21-.29.93.93 0 0 1 .3-.2 1.11 1.11 0 0 1 .37-.07zM68 95.81a.92.92 0 0 1 .66.27.84.84 0 0 1 .2.29.85.85 0 0 1 .08.35.86.86 0 0 1-.08.36.84.84 0 0 1-.2.29.88.88 0 0 1-.3.2 1 1 0 0 1-.36.07 1.17 1.17 0 0 1-.38-.07 1 1 0 0 1-.3-.2 1 1 0 0 1-.2-.29.86.86 0 0 1-.07-.36.84.84 0 0 1 .07-.35 1 1 0 0 1 .2-.29 1.21 1.21 0 0 1 .3-.2 1.17 1.17 0 0 1 .38-.07zM77 95.81a1.06 1.06 0 0 1 .37.07 1.21 1.21 0 0 1 .3.2 1 1 0 0 1 .2.29.84.84 0 0 1 .07.35.86.86 0 0 1-.07.36 1 1 0 0 1-.2.29 1 1 0 0 1-.3.2 1.06 1.06 0 0 1-.37.07 1.16 1.16 0 0 1-.37-.07 1 1 0 0 1-.3-.2 1 1 0 0 1-.2-.29.86.86 0 0 1-.07-.36.84.84 0 0 1 .07-.35 1 1 0 0 1 .2-.29 1.21 1.21 0 0 1 .3-.2 1.16 1.16 0 0 1 .37-.07zM85.91 95.81a1.11 1.11 0 0 1 .37.07 1.21 1.21 0 0 1 .3.2 1 1 0 0 1 .2.29.84.84 0 0 1 .07.35.86.86 0 0 1-.07.36 1 1 0 0 1-.2.29 1 1 0 0 1-.3.2 1.11 1.11 0 0 1-.37.07 1.16 1.16 0 0 1-.37-.07 1 1 0 0 1-.3-.2.84.84 0 0 1-.2-.29.86.86 0 0 1-.08-.36.85.85 0 0 1 .08-.35.84.84 0 0 1 .2-.29 1.21 1.21 0 0 1 .3-.2 1.16 1.16 0 0 1 .37-.07zM1 115a.94.94 0 0 1 .37.07.81.81 0 0 1 .29.19.84.84 0 0 1 .2.29.85.85 0 0 1 .08.35.86.86 0 0 1-.08.36.88.88 0 0 1-.2.3 1 1 0 0 1-.29.19.94.94 0 0 1-.37.07.9.9 0 0 1-.37-.07.92.92 0 0 1-.51-.49.86.86 0 0 1-.07-.36.84.84 0 0 1 .07-.35.86.86 0 0 1 .21-.29.77.77 0 0 1 .3-.19A.9.9 0 0 1 1 115zM9.89 115a.86.86 0 0 1 .36.07.77.77 0 0 1 .3.19.84.84 0 0 1 .2.29.85.85 0 0 1 .08.35.86.86 0 0 1-.08.36.88.88 0 0 1-.2.3.91.91 0 0 1-.3.19.86.86 0 0 1-.36.07.87.87 0 0 1-.37-.07 1.08 1.08 0 0 1-.31-.19 1 1 0 0 1-.2-.3.86.86 0 0 1-.07-.36.84.84 0 0 1 .07-.35 1 1 0 0 1 .2-.29.89.89 0 0 1 .31-.19.87.87 0 0 1 .37-.07zM18.82 115a.87.87 0 0 1 .37.07 1 1 0 0 1 .3.19 1 1 0 0 1 .2.29.84.84 0 0 1 .07.35.86.86 0 0 1-.07.36 1 1 0 0 1-.2.3 1.17 1.17 0 0 1-.3.19.87.87 0 0 1-.37.07.94.94 0 0 1-.37-.07 1.17 1.17 0 0 1-.3-.19 1 1 0 0 1-.2-.3.86.86 0 0 1-.07-.36.84.84 0 0 1 .07-.35 1 1 0 0 1 .2-.29 1 1 0 0 1 .3-.19.94.94 0 0 1 .37-.07zM27.76 115a.9.9 0 0 1 .37.07 1 1 0 0 1 .3.19 1 1 0 0 1 .2.29.84.84 0 0 1 .07.35.86.86 0 0 1-.07.36 1 1 0 0 1-.2.3 1.17 1.17 0 0 1-.3.19.9.9 0 0 1-.37.07.94.94 0 0 1-.37-.07 1.17 1.17 0 0 1-.3-.19.88.88 0 0 1-.2-.3.86.86 0 0 1-.08-.36.85.85 0 0 1 .08-.35.84.84 0 0 1 .2-.29 1 1 0 0 1 .3-.19.94.94 0 0 1 .37-.07zM36.7 115a.94.94 0 0 1 .37.07.81.81 0 0 1 .29.19.86.86 0 0 1 .21.29.84.84 0 0 1 .07.35.86.86 0 0 1-.07.36.9.9 0 0 1-.21.3 1 1 0 0 1-.29.19.94.94 0 0 1-.37.07 1 1 0 0 1-.67-.26.88.88 0 0 1-.2-.3.86.86 0 0 1-.08-.36.85.85 0 0 1 .08-.35.84.84 0 0 1 .2-.29.77.77 0 0 1 .3-.19.9.9 0 0 1 .37-.07zM45.64 115a.94.94 0 0 1 .37.07.81.81 0 0 1 .29.19.72.72 0 0 1 .2.29.85.85 0 0 1 .08.35.86.86 0 0 1-.08.36.75.75 0 0 1-.2.3 1 1 0 0 1-.29.19.94.94 0 0 1-.37.07.94.94 0 0 1-.88-.56.94.94 0 0 1 0-.71.86.86 0 0 1 .21-.29.77.77 0 0 1 .3-.19.9.9 0 0 1 .37-.07zM54.58 115a.86.86 0 0 1 .36.07.77.77 0 0 1 .3.19.84.84 0 0 1 .2.29.85.85 0 0 1 .08.35.86.86 0 0 1-.08.36.88.88 0 0 1-.2.3.91.91 0 0 1-.3.19.86.86 0 0 1-.36.07.87.87 0 0 1-.37-.07 1.08 1.08 0 0 1-.31-.19 1 1 0 0 1-.2-.3.86.86 0 0 1-.07-.36.84.84 0 0 1 .07-.35 1 1 0 0 1 .2-.29.89.89 0 0 1 .31-.19.87.87 0 0 1 .37-.07zM63.51 115a.87.87 0 0 1 .37.07 1 1 0 0 1 .3.19 1 1 0 0 1 .2.29.84.84 0 0 1 .07.35.86.86 0 0 1-.07.36 1 1 0 0 1-.2.3 1.17 1.17 0 0 1-.3.19.87.87 0 0 1-.37.07.94.94 0 0 1-.37-.07 1.17 1.17 0 0 1-.3-.19 1 1 0 0 1-.2-.3.86.86 0 0 1-.07-.36.84.84 0 0 1 .07-.35 1 1 0 0 1 .2-.29 1 1 0 0 1 .3-.19.94.94 0 0 1 .37-.07zM72.45 115a.87.87 0 0 1 .37.07 1 1 0 0 1 .3.19 1 1 0 0 1 .2.29.84.84 0 0 1 .07.35.86.86 0 0 1-.07.36 1 1 0 0 1-.2.3 1.17 1.17 0 0 1-.3.19.87.87 0 0 1-.37.07.94.94 0 0 1-.37-.07 1.17 1.17 0 0 1-.3-.19 1 1 0 0 1-.2-.3.86.86 0 0 1-.08-.36.85.85 0 0 1 .08-.35 1 1 0 0 1 .2-.29 1 1 0 0 1 .3-.19.94.94 0 0 1 .37-.07zM81.39 115a.9.9 0 0 1 .37.07.81.81 0 0 1 .29.19.86.86 0 0 1 .21.29.84.84 0 0 1 .07.35.86.86 0 0 1-.07.36.9.9 0 0 1-.21.3 1 1 0 0 1-.29.19.9.9 0 0 1-.37.07.94.94 0 0 1-.37-.07.91.91 0 0 1-.3-.19.88.88 0 0 1-.2-.3.86.86 0 0 1-.08-.36.85.85 0 0 1 .08-.35.84.84 0 0 1 .2-.29.77.77 0 0 1 .3-.19.94.94 0 0 1 .37-.07zM90.33 115a.94.94 0 0 1 .37.07.81.81 0 0 1 .29.19.72.72 0 0 1 .2.29.85.85 0 0 1 .08.35.86.86 0 0 1-.08.36.75.75 0 0 1-.2.3 1 1 0 0 1-.29.19.94.94 0 0 1-.37.07.94.94 0 0 1-.88-.56.86.86 0 0 1-.07-.36.84.84 0 0 1 .07-.35.86.86 0 0 1 .21-.29.77.77 0 0 1 .3-.19.9.9 0 0 1 .37-.07zM5.47 108.59a.94.94 0 0 1 .37.07 1 1 0 0 1 .5.48.86.86 0 0 1 .07.36.92.92 0 0 1-.07.36.86.86 0 0 1-.21.29.81.81 0 0 1-.29.19.94.94 0 0 1-.37.07.9.9 0 0 1-.37-.07.77.77 0 0 1-.3-.19.84.84 0 0 1-.2-.29.94.94 0 0 1-.08-.36.86.86 0 0 1 .08-.36.94.94 0 0 1 .2-.29 1 1 0 0 1 .67-.26zM14.41 108.59a.86.86 0 0 1 .36.07.91.91 0 0 1 .3.19.94.94 0 0 1 .2.29.86.86 0 0 1 .08.36.94.94 0 0 1-.08.36.84.84 0 0 1-.2.29.77.77 0 0 1-.3.19.86.86 0 0 1-.36.07.9.9 0 0 1-.37-.07.77.77 0 0 1-.3-.19.86.86 0 0 1-.21-.29.92.92 0 0 1-.07-.36.86.86 0 0 1 .07-.36 1 1 0 0 1 .21-.29 1 1 0 0 1 .67-.26zM23.35 108.59a.86.86 0 0 1 .36.07.91.91 0 0 1 .3.19.94.94 0 0 1 .2.29.86.86 0 0 1 .08.36.94.94 0 0 1-.08.36.84.84 0 0 1-.2.29.77.77 0 0 1-.3.19.86.86 0 0 1-.36.07.87.87 0 0 1-.37-.07.89.89 0 0 1-.31-.19 1 1 0 0 1-.2-.29.92.92 0 0 1-.07-.36.86.86 0 0 1 .07-.36 1.15 1.15 0 0 1 .2-.29 1.08 1.08 0 0 1 .31-.19.87.87 0 0 1 .37-.07zM32.28 108.59a.87.87 0 0 1 .37.07 1.17 1.17 0 0 1 .3.19 1.15 1.15 0 0 1 .2.29.86.86 0 0 1 .07.36.92.92 0 0 1-.07.36 1 1 0 0 1-.2.29 1 1 0 0 1-.3.19.87.87 0 0 1-.37.07.94.94 0 0 1-.37-.07 1 1 0 0 1-.3-.19 1 1 0 0 1-.2-.29.92.92 0 0 1-.07-.36.86.86 0 0 1 .07-.36 1.15 1.15 0 0 1 .2-.29 1.17 1.17 0 0 1 .3-.19.94.94 0 0 1 .37-.07zM41.22 108.59a.9.9 0 0 1 .37.07 1.17 1.17 0 0 1 .3.19 1.15 1.15 0 0 1 .2.29.86.86 0 0 1 .07.36.92.92 0 0 1-.07.36 1 1 0 0 1-.2.29 1 1 0 0 1-.3.19.9.9 0 0 1-.37.07.94.94 0 0 1-.37-.07 1 1 0 0 1-.3-.19.84.84 0 0 1-.2-.29.94.94 0 0 1-.08-.36.86.86 0 0 1 .08-.36.94.94 0 0 1 .2-.29 1.17 1.17 0 0 1 .3-.19.94.94 0 0 1 .37-.07zM50.16 108.59a.9.9 0 0 1 .37.07 1 1 0 0 1 .5.48.86.86 0 0 1 .07.36.92.92 0 0 1-.07.36.86.86 0 0 1-.21.29.81.81 0 0 1-.29.19 1 1 0 0 1-.74 0 .77.77 0 0 1-.3-.19.84.84 0 0 1-.2-.29.94.94 0 0 1-.08-.36.86.86 0 0 1 .08-.36.94.94 0 0 1 .2-.29 1 1 0 0 1 .67-.26zM59.1 108.59a.94.94 0 0 1 .37.07 1 1 0 0 1 .29.19.94.94 0 0 1 .2.29.86.86 0 0 1 .08.36.94.94 0 0 1-.08.36.84.84 0 0 1-.2.29.81.81 0 0 1-.29.19.94.94 0 0 1-.37.07.9.9 0 0 1-.37-.07.77.77 0 0 1-.3-.19.86.86 0 0 1-.21-.29.92.92 0 0 1-.07-.36.86.86 0 0 1 .07-.36 1 1 0 0 1 .21-.29 1 1 0 0 1 .67-.26zM68 108.59a.86.86 0 0 1 .36.07 1 1 0 0 1 .3.19.94.94 0 0 1 .2.29.86.86 0 0 1 .08.36.94.94 0 0 1-.08.36.84.84 0 0 1-.2.29 1 1 0 0 1-.66.26 1 1 0 0 1-.68-.26 1 1 0 0 1-.2-.29.92.92 0 0 1-.07-.36.86.86 0 0 1 .07-.36 1.15 1.15 0 0 1 .2-.29 1.17 1.17 0 0 1 .3-.19 1 1 0 0 1 .38-.07zM77 108.59a.87.87 0 0 1 .37.07 1.17 1.17 0 0 1 .3.19 1.15 1.15 0 0 1 .2.29.86.86 0 0 1 .07.36.92.92 0 0 1-.07.36 1 1 0 0 1-.2.29 1 1 0 0 1-.3.19.87.87 0 0 1-.37.07.94.94 0 0 1-.37-.07 1 1 0 0 1-.3-.19 1 1 0 0 1-.2-.29.92.92 0 0 1-.07-.36.86.86 0 0 1 .07-.36 1.15 1.15 0 0 1 .2-.29 1.17 1.17 0 0 1 .3-.19.94.94 0 0 1 .37-.07zM85.91 108.59a.9.9 0 0 1 .37.07 1.17 1.17 0 0 1 .3.19 1.15 1.15 0 0 1 .2.29.86.86 0 0 1 .07.36.92.92 0 0 1-.07.36 1 1 0 0 1-.2.29 1 1 0 0 1-.3.19.9.9 0 0 1-.37.07.94.94 0 0 1-.37-.07 1 1 0 0 1-.3-.19.84.84 0 0 1-.2-.29.94.94 0 0 1-.08-.36.86.86 0 0 1 .08-.36.94.94 0 0 1 .2-.29 1.17 1.17 0 0 1 .3-.19.94.94 0 0 1 .37-.07zM1 127.75a1.16 1.16 0 0 1 .37.07.84.84 0 0 1 .29.2.84.84 0 0 1 .2.29.82.82 0 0 1 .08.35.86.86 0 0 1-.08.36.84.84 0 0 1-.2.29 1 1 0 0 1-.29.2 1.16 1.16 0 0 1-.37.07 1.11 1.11 0 0 1-.37-.07.93.93 0 0 1-.3-.2.84.84 0 0 1-.28-.65.81.81 0 0 1 .07-.35.86.86 0 0 1 .16-.31.79.79 0 0 1 .3-.2 1.11 1.11 0 0 1 .42-.05zM9.89 127.75a1 1 0 0 1 .36.07.79.79 0 0 1 .3.2.84.84 0 0 1 .2.29.82.82 0 0 1 .08.35.86.86 0 0 1-.08.36.84.84 0 0 1-.2.29.93.93 0 0 1-.3.2 1 1 0 0 1-.36.07 1.06 1.06 0 0 1-.37-.07 1.1 1.1 0 0 1-.31-.2A1 1 0 0 1 9 129a.86.86 0 0 1-.07-.36.81.81 0 0 1 .07-.35 1 1 0 0 1 .2-.29.92.92 0 0 1 .31-.2 1.06 1.06 0 0 1 .38-.05zM18.82 127.75a1.06 1.06 0 0 1 .37.07 1 1 0 0 1 .3.2 1 1 0 0 1 .2.29.81.81 0 0 1 .07.35.86.86 0 0 1-.07.36 1 1 0 0 1-.2.29 1.21 1.21 0 0 1-.3.2 1.06 1.06 0 0 1-.37.07 1.16 1.16 0 0 1-.37-.07 1.21 1.21 0 0 1-.3-.2A1 1 0 0 1 18 129a.86.86 0 0 1-.07-.36.81.81 0 0 1 .07-.35 1 1 0 0 1 .2-.29 1 1 0 0 1 .3-.2 1.16 1.16 0 0 1 .32-.05zM27.76 127.75a1.11 1.11 0 0 1 .37.07 1 1 0 0 1 .3.2 1 1 0 0 1 .2.29.81.81 0 0 1 .07.35.86.86 0 0 1-.07.36 1 1 0 0 1-.2.29 1.21 1.21 0 0 1-.3.2 1.11 1.11 0 0 1-.37.07 1.16 1.16 0 0 1-.37-.07 1.21 1.21 0 0 1-.3-.2.84.84 0 0 1-.2-.29.86.86 0 0 1-.08-.36.82.82 0 0 1 .08-.35.84.84 0 0 1 .2-.29 1 1 0 0 1 .3-.2 1.16 1.16 0 0 1 .37-.07zM36.7 127.75a1.16 1.16 0 0 1 .37.07.84.84 0 0 1 .29.2.86.86 0 0 1 .21.29.81.81 0 0 1 .07.35.84.84 0 0 1-.28.65 1 1 0 0 1-.29.2 1.16 1.16 0 0 1-.37.07 1.11 1.11 0 0 1-.37-.07.93.93 0 0 1-.3-.2.84.84 0 0 1-.2-.29.86.86 0 0 1-.08-.36.82.82 0 0 1 .08-.35.84.84 0 0 1 .17-.31.79.79 0 0 1 .3-.2 1.11 1.11 0 0 1 .4-.05zM45.64 127.75a1.16 1.16 0 0 1 .37.07.84.84 0 0 1 .29.2.72.72 0 0 1 .2.29.82.82 0 0 1 .08.35.86.86 0 0 1-.08.36.72.72 0 0 1-.2.29 1 1 0 0 1-.29.2 1.16 1.16 0 0 1-.37.07 1.11 1.11 0 0 1-.37-.07.93.93 0 0 1-.3-.2.86.86 0 0 1-.21-.29 1 1 0 0 1-.07-.36 1 1 0 0 1 .07-.35.86.86 0 0 1 .24-.31.79.79 0 0 1 .3-.2 1.11 1.11 0 0 1 .34-.05zM54.58 127.75a1 1 0 0 1 .36.07.79.79 0 0 1 .3.2.84.84 0 0 1 .2.29.82.82 0 0 1 .08.35.86.86 0 0 1-.08.36.84.84 0 0 1-.2.29.93.93 0 0 1-.3.2 1 1 0 0 1-.36.07 1.06 1.06 0 0 1-.37-.07 1.1 1.1 0 0 1-.31-.2 1 1 0 0 1-.2-.29.86.86 0 0 1-.07-.36.81.81 0 0 1 .07-.35 1 1 0 0 1 .2-.29.92.92 0 0 1 .31-.2 1.06 1.06 0 0 1 .37-.07zM63.51 127.75a1.06 1.06 0 0 1 .37.07 1 1 0 0 1 .3.2 1 1 0 0 1 .2.29.81.81 0 0 1 .07.35.86.86 0 0 1-.07.36 1 1 0 0 1-.2.29 1.21 1.21 0 0 1-.3.2 1.06 1.06 0 0 1-.37.07 1.16 1.16 0 0 1-.37-.07 1.21 1.21 0 0 1-.3-.2 1 1 0 0 1-.2-.29.86.86 0 0 1-.07-.36.81.81 0 0 1 .07-.35 1 1 0 0 1 .2-.29 1 1 0 0 1 .3-.2 1.16 1.16 0 0 1 .37-.07zM72.45 127.75a1.06 1.06 0 0 1 .37.07 1 1 0 0 1 .3.2 1 1 0 0 1 .2.29.81.81 0 0 1 .07.35.86.86 0 0 1-.07.36 1 1 0 0 1-.2.29 1.21 1.21 0 0 1-.3.2 1.06 1.06 0 0 1-.37.07 1.16 1.16 0 0 1-.37-.07 1.21 1.21 0 0 1-.3-.2 1 1 0 0 1-.2-.29.86.86 0 0 1-.08-.36.82.82 0 0 1 .08-.35 1 1 0 0 1 .2-.29 1 1 0 0 1 .3-.2 1.16 1.16 0 0 1 .37-.07zM81.39 127.75a1.11 1.11 0 0 1 .37.07.84.84 0 0 1 .29.2.86.86 0 0 1 .21.29.81.81 0 0 1 .07.35.84.84 0 0 1-.28.65 1 1 0 0 1-.29.2 1.11 1.11 0 0 1-.37.07 1.16 1.16 0 0 1-.37-.07.93.93 0 0 1-.3-.2.84.84 0 0 1-.2-.29.86.86 0 0 1-.08-.36.82.82 0 0 1 .08-.35.84.84 0 0 1 .2-.29.79.79 0 0 1 .3-.2 1.16 1.16 0 0 1 .37-.07zM90.33 127.75a1.16 1.16 0 0 1 .37.07.84.84 0 0 1 .29.2.72.72 0 0 1 .2.29.82.82 0 0 1 .08.35.86.86 0 0 1-.08.36.72.72 0 0 1-.2.29 1 1 0 0 1-.29.2 1.16 1.16 0 0 1-.37.07 1.11 1.11 0 0 1-.37-.07.93.93 0 0 1-.3-.2.84.84 0 0 1-.28-.65.81.81 0 0 1 .07-.35.86.86 0 0 1 .21-.29.79.79 0 0 1 .3-.2 1.11 1.11 0 0 1 .37-.07zM5.47 121.37a.94.94 0 0 1 .37.07.81.81 0 0 1 .29.19.86.86 0 0 1 .21.29.84.84 0 0 1 .07.35.84.84 0 0 1-.28.65.84.84 0 0 1-.29.2 1.16 1.16 0 0 1-.37.07 1.11 1.11 0 0 1-.37-.07.79.79 0 0 1-.3-.2.84.84 0 0 1-.2-.29.86.86 0 0 1-.08-.36.85.85 0 0 1 .08-.35.84.84 0 0 1 .2-.29.77.77 0 0 1 .3-.19.9.9 0 0 1 .37-.07zM14.41 121.37a.86.86 0 0 1 .36.07.77.77 0 0 1 .3.19.84.84 0 0 1 .2.29.85.85 0 0 1 .08.35.86.86 0 0 1-.08.36.84.84 0 0 1-.2.29.79.79 0 0 1-.3.2 1 1 0 0 1-.36.07 1.11 1.11 0 0 1-.37-.07.79.79 0 0 1-.3-.2.84.84 0 0 1-.28-.65.84.84 0 0 1 .07-.35.86.86 0 0 1 .21-.29.77.77 0 0 1 .3-.19.9.9 0 0 1 .37-.07zM23.35 121.37a.86.86 0 0 1 .36.07.77.77 0 0 1 .3.19.84.84 0 0 1 .2.29.85.85 0 0 1 .08.35.86.86 0 0 1-.08.36.84.84 0 0 1-.2.29.79.79 0 0 1-.3.2 1 1 0 0 1-.36.07 1.06 1.06 0 0 1-.37-.07.92.92 0 0 1-.31-.2 1 1 0 0 1-.2-.29.86.86 0 0 1-.07-.36.84.84 0 0 1 .07-.35 1 1 0 0 1 .2-.29.89.89 0 0 1 .31-.19.87.87 0 0 1 .37-.07zM32.28 121.37a.87.87 0 0 1 .37.07 1 1 0 0 1 .3.19 1 1 0 0 1 .2.29.84.84 0 0 1 .07.35.86.86 0 0 1-.07.36 1 1 0 0 1-.2.29 1 1 0 0 1-.3.2 1.06 1.06 0 0 1-.37.07 1.16 1.16 0 0 1-.37-.07 1 1 0 0 1-.3-.2 1 1 0 0 1-.2-.29.86.86 0 0 1-.07-.36.84.84 0 0 1 .07-.35 1 1 0 0 1 .2-.29 1 1 0 0 1 .3-.19.94.94 0 0 1 .37-.07zM41.22 121.37a.9.9 0 0 1 .37.07 1 1 0 0 1 .3.19 1 1 0 0 1 .2.29.84.84 0 0 1 .07.35.86.86 0 0 1-.07.36 1 1 0 0 1-.2.29 1 1 0 0 1-.3.2 1.11 1.11 0 0 1-.37.07 1.16 1.16 0 0 1-.37-.07 1 1 0 0 1-.3-.2.84.84 0 0 1-.2-.29.86.86 0 0 1-.08-.36.85.85 0 0 1 .08-.35.84.84 0 0 1 .2-.29 1 1 0 0 1 .3-.19.94.94 0 0 1 .37-.07zM50.16 121.37a.9.9 0 0 1 .37.07.81.81 0 0 1 .29.19.86.86 0 0 1 .21.29.84.84 0 0 1 .07.35.84.84 0 0 1-.28.65.84.84 0 0 1-.29.2 1 1 0 0 1-.74 0 .79.79 0 0 1-.3-.2.84.84 0 0 1-.2-.29.86.86 0 0 1-.08-.36.85.85 0 0 1 .08-.35.84.84 0 0 1 .2-.29.77.77 0 0 1 .3-.19.9.9 0 0 1 .37-.07zM59.1 121.37a.94.94 0 0 1 .37.07.81.81 0 0 1 .29.19.84.84 0 0 1 .2.29.85.85 0 0 1 .08.35.86.86 0 0 1-.08.36 1 1 0 0 1-.49.49 1.16 1.16 0 0 1-.37.07 1.11 1.11 0 0 1-.37-.07.79.79 0 0 1-.3-.2.84.84 0 0 1-.28-.65.84.84 0 0 1 .07-.35.86.86 0 0 1 .21-.29.77.77 0 0 1 .3-.19.9.9 0 0 1 .37-.07zM68 121.37a1 1 0 0 1 .66.26.84.84 0 0 1 .2.29.85.85 0 0 1 .08.35.86.86 0 0 1-.08.36.84.84 0 0 1-.2.29.88.88 0 0 1-.3.2 1 1 0 0 1-.36.07 1.17 1.17 0 0 1-.38-.07 1 1 0 0 1-.3-.2 1 1 0 0 1-.2-.29.86.86 0 0 1-.07-.36.84.84 0 0 1 .07-.35 1 1 0 0 1 .2-.29 1 1 0 0 1 .68-.26zM77 121.37a.87.87 0 0 1 .37.07 1 1 0 0 1 .3.19 1 1 0 0 1 .2.29.84.84 0 0 1 .07.35.86.86 0 0 1-.07.36 1 1 0 0 1-.2.29 1 1 0 0 1-.3.2 1.06 1.06 0 0 1-.37.07 1.16 1.16 0 0 1-.37-.07 1 1 0 0 1-.3-.2 1 1 0 0 1-.2-.29.86.86 0 0 1-.07-.36.84.84 0 0 1 .07-.35 1 1 0 0 1 .2-.29 1 1 0 0 1 .3-.19.94.94 0 0 1 .37-.07zM85.91 121.37a.9.9 0 0 1 .37.07 1 1 0 0 1 .3.19 1 1 0 0 1 .2.29.84.84 0 0 1 .07.35.86.86 0 0 1-.07.36 1 1 0 0 1-.2.29 1 1 0 0 1-.3.2 1.11 1.11 0 0 1-.37.07 1.16 1.16 0 0 1-.37-.07 1 1 0 0 1-.3-.2.84.84 0 0 1-.2-.29.86.86 0 0 1-.08-.36.85.85 0 0 1 .08-.35.84.84 0 0 1 .2-.29 1 1 0 0 1 .3-.19.94.94 0 0 1 .37-.07zM1 140.53a.94.94 0 0 1 .37.07 1 1 0 0 1 .29.19.84.84 0 0 1 .2.29.86.86 0 0 1 .08.36.85.85 0 0 1-.08.35.88.88 0 0 1-.2.3 1 1 0 0 1-.29.19.94.94 0 0 1-.37.07.9.9 0 0 1-.37-.07.92.92 0 0 1-.51-.49.84.84 0 0 1-.07-.35.84.84 0 0 1 .28-.65.91.91 0 0 1 .3-.19.9.9 0 0 1 .37-.07zM9.89 140.53a.86.86 0 0 1 .36.07.91.91 0 0 1 .3.19.84.84 0 0 1 .2.29.86.86 0 0 1 .08.36.85.85 0 0 1-.08.35.88.88 0 0 1-.2.3.91.91 0 0 1-.3.19.86.86 0 0 1-.36.07.87.87 0 0 1-.37-.07 1.08 1.08 0 0 1-.31-.19 1 1 0 0 1-.2-.3.84.84 0 0 1-.07-.35.86.86 0 0 1 .07-.36 1 1 0 0 1 .2-.29 1.08 1.08 0 0 1 .31-.19.87.87 0 0 1 .37-.07zM18.82 140.53a.87.87 0 0 1 .37.07 1.17 1.17 0 0 1 .3.19 1 1 0 0 1 .2.29.86.86 0 0 1 .07.36.84.84 0 0 1-.07.35 1 1 0 0 1-.2.3 1.17 1.17 0 0 1-.3.19.87.87 0 0 1-.37.07.94.94 0 0 1-.37-.07 1.17 1.17 0 0 1-.3-.19 1 1 0 0 1-.2-.3.84.84 0 0 1-.07-.35.86.86 0 0 1 .07-.36 1 1 0 0 1 .2-.29 1.17 1.17 0 0 1 .3-.19.94.94 0 0 1 .37-.07zM27.76 140.53a.9.9 0 0 1 .37.07 1.17 1.17 0 0 1 .3.19 1 1 0 0 1 .2.29.86.86 0 0 1 .07.36.84.84 0 0 1-.07.35 1 1 0 0 1-.2.3 1.17 1.17 0 0 1-.3.19.9.9 0 0 1-.37.07.94.94 0 0 1-.37-.07 1.17 1.17 0 0 1-.3-.19.88.88 0 0 1-.2-.3.85.85 0 0 1-.08-.35.86.86 0 0 1 .08-.36.84.84 0 0 1 .2-.29 1.17 1.17 0 0 1 .3-.19.94.94 0 0 1 .37-.07zM36.7 140.53a.94.94 0 0 1 .37.07 1 1 0 0 1 .29.19.84.84 0 0 1 .28.65.84.84 0 0 1-.07.35.9.9 0 0 1-.21.3 1 1 0 0 1-.29.19.94.94 0 0 1-.37.07 1 1 0 0 1-.67-.26.88.88 0 0 1-.2-.3.85.85 0 0 1-.08-.35.86.86 0 0 1 .08-.36.84.84 0 0 1 .2-.29 1 1 0 0 1 .67-.26zM45.64 140.53a.94.94 0 0 1 .37.07 1 1 0 0 1 .29.19.72.72 0 0 1 .2.29.86.86 0 0 1 .08.36.85.85 0 0 1-.08.35.75.75 0 0 1-.2.3 1 1 0 0 1-.29.19.94.94 0 0 1-.37.07.94.94 0 0 1-.88-.56.94.94 0 0 1 0-.71.86.86 0 0 1 .21-.29 1 1 0 0 1 .67-.26zM54.58 140.53a.86.86 0 0 1 .36.07.91.91 0 0 1 .3.19.84.84 0 0 1 .2.29.86.86 0 0 1 .08.36.85.85 0 0 1-.08.35.88.88 0 0 1-.2.3.91.91 0 0 1-.3.19.86.86 0 0 1-.36.07.87.87 0 0 1-.37-.07 1.08 1.08 0 0 1-.31-.19 1 1 0 0 1-.2-.3.84.84 0 0 1-.07-.35.86.86 0 0 1 .07-.36 1 1 0 0 1 .2-.29 1.08 1.08 0 0 1 .31-.19.87.87 0 0 1 .37-.07zM63.51 140.53a.87.87 0 0 1 .37.07 1.17 1.17 0 0 1 .3.19 1 1 0 0 1 .2.29.86.86 0 0 1 .07.36.84.84 0 0 1-.07.35 1 1 0 0 1-.2.3 1.17 1.17 0 0 1-.3.19.87.87 0 0 1-.37.07.94.94 0 0 1-.37-.07 1.17 1.17 0 0 1-.3-.19 1 1 0 0 1-.2-.3.84.84 0 0 1-.07-.35.86.86 0 0 1 .07-.36 1 1 0 0 1 .2-.29 1.17 1.17 0 0 1 .3-.19.94.94 0 0 1 .37-.07zM72.45 140.53a.87.87 0 0 1 .37.07 1.17 1.17 0 0 1 .3.19 1 1 0 0 1 .2.29.86.86 0 0 1 .07.36.84.84 0 0 1-.07.35 1 1 0 0 1-.2.3 1.17 1.17 0 0 1-.3.19.87.87 0 0 1-.37.07.94.94 0 0 1-.37-.07 1.17 1.17 0 0 1-.3-.19 1 1 0 0 1-.2-.3.85.85 0 0 1-.08-.35.86.86 0 0 1 .08-.36 1 1 0 0 1 .2-.29 1.17 1.17 0 0 1 .3-.19.94.94 0 0 1 .37-.07zM81.39 140.53a.9.9 0 0 1 .37.07 1 1 0 0 1 .29.19.84.84 0 0 1 .28.65.84.84 0 0 1-.07.35.9.9 0 0 1-.21.3 1 1 0 0 1-.29.19.9.9 0 0 1-.37.07.94.94 0 0 1-.37-.07.91.91 0 0 1-.3-.19.88.88 0 0 1-.2-.3.85.85 0 0 1-.08-.35.86.86 0 0 1 .08-.36.84.84 0 0 1 .2-.29.91.91 0 0 1 .3-.19.94.94 0 0 1 .37-.07zM90.33 140.53a.94.94 0 0 1 .37.07 1 1 0 0 1 .29.19.72.72 0 0 1 .2.29.86.86 0 0 1 .08.36.85.85 0 0 1-.08.35.75.75 0 0 1-.2.3 1 1 0 0 1-.29.19.94.94 0 0 1-.37.07.94.94 0 0 1-.88-.56.84.84 0 0 1-.07-.35.84.84 0 0 1 .28-.65 1 1 0 0 1 .67-.26zM5.47 134.14a.94.94 0 0 1 .37.07 1 1 0 0 1 .5.48.86.86 0 0 1 .07.36.92.92 0 0 1-.07.36.86.86 0 0 1-.21.29.81.81 0 0 1-.29.19.94.94 0 0 1-.37.07.9.9 0 0 1-.37-.07.77.77 0 0 1-.3-.19.84.84 0 0 1-.2-.29.94.94 0 0 1-.08-.36.86.86 0 0 1 .08-.36.94.94 0 0 1 .2-.29 1 1 0 0 1 .67-.26zM14.41 134.14a.86.86 0 0 1 .36.07.91.91 0 0 1 .3.19.94.94 0 0 1 .2.29.86.86 0 0 1 .08.36.94.94 0 0 1-.08.36.84.84 0 0 1-.2.29.77.77 0 0 1-.3.19.86.86 0 0 1-.36.07.9.9 0 0 1-.37-.07.77.77 0 0 1-.3-.19.86.86 0 0 1-.21-.29.92.92 0 0 1-.07-.36.86.86 0 0 1 .07-.36 1 1 0 0 1 .21-.29 1 1 0 0 1 .67-.26zM23.35 134.14a.86.86 0 0 1 .36.07.91.91 0 0 1 .3.19.94.94 0 0 1 .2.29.86.86 0 0 1 .08.36.94.94 0 0 1-.08.36.84.84 0 0 1-.2.29.77.77 0 0 1-.3.19.86.86 0 0 1-.36.07.87.87 0 0 1-.37-.07.89.89 0 0 1-.31-.19 1 1 0 0 1-.2-.29.92.92 0 0 1-.07-.36.86.86 0 0 1 .07-.36 1.15 1.15 0 0 1 .2-.29 1.08 1.08 0 0 1 .31-.19.87.87 0 0 1 .37-.07zM32.28 134.14a.87.87 0 0 1 .37.07 1.17 1.17 0 0 1 .3.19 1.15 1.15 0 0 1 .2.29.86.86 0 0 1 .07.36.92.92 0 0 1-.07.36 1 1 0 0 1-.2.29 1 1 0 0 1-.3.19.87.87 0 0 1-.37.07.94.94 0 0 1-.37-.07 1 1 0 0 1-.3-.19 1 1 0 0 1-.2-.29.92.92 0 0 1-.07-.36.86.86 0 0 1 .07-.36 1.15 1.15 0 0 1 .2-.29 1.17 1.17 0 0 1 .3-.19.94.94 0 0 1 .37-.07zM41.22 134.14a.9.9 0 0 1 .37.07 1.17 1.17 0 0 1 .3.19 1.15 1.15 0 0 1 .2.29.86.86 0 0 1 .07.36.92.92 0 0 1-.07.36 1 1 0 0 1-.2.29 1 1 0 0 1-.3.19.9.9 0 0 1-.37.07.94.94 0 0 1-.37-.07 1 1 0 0 1-.3-.19.84.84 0 0 1-.2-.29.94.94 0 0 1-.08-.36.86.86 0 0 1 .08-.36.94.94 0 0 1 .2-.29 1.17 1.17 0 0 1 .3-.19.94.94 0 0 1 .37-.07zM50.16 134.14a.9.9 0 0 1 .37.07 1 1 0 0 1 .5.48.86.86 0 0 1 .07.36.92.92 0 0 1-.07.36.86.86 0 0 1-.21.29.81.81 0 0 1-.29.19 1 1 0 0 1-.74 0 .77.77 0 0 1-.3-.19.84.84 0 0 1-.2-.29.94.94 0 0 1-.08-.36.86.86 0 0 1 .08-.36.94.94 0 0 1 .2-.29 1 1 0 0 1 .67-.26zM59.1 134.14a.94.94 0 0 1 .37.07 1 1 0 0 1 .29.19.94.94 0 0 1 .2.29.86.86 0 0 1 .08.36.94.94 0 0 1-.08.36.84.84 0 0 1-.2.29.81.81 0 0 1-.29.19.94.94 0 0 1-.37.07.9.9 0 0 1-.37-.07.77.77 0 0 1-.3-.19.86.86 0 0 1-.21-.29.92.92 0 0 1-.07-.36.86.86 0 0 1 .07-.36 1 1 0 0 1 .21-.29 1 1 0 0 1 .67-.26zM68 134.14a.86.86 0 0 1 .36.07 1 1 0 0 1 .3.19.94.94 0 0 1 .2.29.86.86 0 0 1 .08.36.94.94 0 0 1-.08.36.84.84 0 0 1-.2.29 1 1 0 0 1-.66.3 1 1 0 0 1-.68-.26 1 1 0 0 1-.2-.29.92.92 0 0 1-.07-.36.86.86 0 0 1 .07-.36 1.15 1.15 0 0 1 .2-.29 1.17 1.17 0 0 1 .3-.19 1 1 0 0 1 .38-.11zM77 134.14a.87.87 0 0 1 .37.07 1.17 1.17 0 0 1 .3.19 1.15 1.15 0 0 1 .2.29.86.86 0 0 1 .07.36.92.92 0 0 1-.07.36 1 1 0 0 1-.2.29 1 1 0 0 1-.3.19.87.87 0 0 1-.37.11.94.94 0 0 1-.37-.07 1 1 0 0 1-.3-.19 1 1 0 0 1-.2-.29.92.92 0 0 1-.07-.36.86.86 0 0 1 .07-.36 1.15 1.15 0 0 1 .2-.29 1.17 1.17 0 0 1 .3-.19.94.94 0 0 1 .37-.11zM85.91 134.14a.9.9 0 0 1 .37.07 1.17 1.17 0 0 1 .3.19 1.15 1.15 0 0 1 .2.29.86.86 0 0 1 .07.36.92.92 0 0 1-.07.36 1 1 0 0 1-.2.29 1 1 0 0 1-.3.19.9.9 0 0 1-.37.07.94.94 0 0 1-.37-.07 1 1 0 0 1-.3-.19.84.84 0 0 1-.2-.29.94.94 0 0 1-.08-.36.86.86 0 0 1 .08-.36.94.94 0 0 1 .2-.29 1.17 1.17 0 0 1 .3-.19.94.94 0 0 1 .37-.07zM1 153.3a1.16 1.16 0 0 1 .37.07.84.84 0 0 1 .29.2.84.84 0 0 1 .2.29.82.82 0 0 1 .08.35.86.86 0 0 1-.08.36.84.84 0 0 1-.2.29 1 1 0 0 1-.29.2 1.16 1.16 0 0 1-.37.07 1.11 1.11 0 0 1-.37-.07.93.93 0 0 1-.3-.2.84.84 0 0 1-.28-.65.81.81 0 0 1 .07-.35.86.86 0 0 1 .21-.29.79.79 0 0 1 .3-.2 1.11 1.11 0 0 1 .37-.07zM9.89 153.3a1 1 0 0 1 .36.07.79.79 0 0 1 .3.2.84.84 0 0 1 .2.29.82.82 0 0 1 .08.35.86.86 0 0 1-.08.36.84.84 0 0 1-.2.29.93.93 0 0 1-.3.2 1 1 0 0 1-.36.07 1.06 1.06 0 0 1-.37-.07 1.1 1.1 0 0 1-.31-.2 1 1 0 0 1-.2-.29.86.86 0 0 1-.07-.36.81.81 0 0 1 .07-.35 1 1 0 0 1 .2-.29.92.92 0 0 1 .31-.2 1.06 1.06 0 0 1 .37-.07zM18.82 153.3a1.06 1.06 0 0 1 .37.07 1 1 0 0 1 .3.2 1 1 0 0 1 .2.29.81.81 0 0 1 .07.35.86.86 0 0 1-.07.36 1 1 0 0 1-.2.29 1.21 1.21 0 0 1-.3.2 1.06 1.06 0 0 1-.37.07 1.16 1.16 0 0 1-.37-.07 1.21 1.21 0 0 1-.3-.2 1 1 0 0 1-.2-.29.86.86 0 0 1-.07-.36.81.81 0 0 1 .07-.35 1 1 0 0 1 .2-.29 1 1 0 0 1 .3-.2 1.16 1.16 0 0 1 .37-.07zM27.76 153.3a1.11 1.11 0 0 1 .37.07 1 1 0 0 1 .3.2 1 1 0 0 1 .2.29.81.81 0 0 1 .07.35.86.86 0 0 1-.07.36 1 1 0 0 1-.2.29 1.21 1.21 0 0 1-.3.2 1.11 1.11 0 0 1-.37.07 1.16 1.16 0 0 1-.37-.07 1.21 1.21 0 0 1-.3-.2.84.84 0 0 1-.2-.29.86.86 0 0 1-.08-.36.82.82 0 0 1 .08-.35.84.84 0 0 1 .2-.29 1 1 0 0 1 .3-.2 1.16 1.16 0 0 1 .37-.07zM36.7 153.3a1.16 1.16 0 0 1 .37.07.84.84 0 0 1 .29.2.86.86 0 0 1 .21.29.81.81 0 0 1 .07.35.84.84 0 0 1-.28.65 1 1 0 0 1-.29.2 1.16 1.16 0 0 1-.37.07 1.11 1.11 0 0 1-.37-.07.93.93 0 0 1-.3-.2.84.84 0 0 1-.2-.29.86.86 0 0 1-.08-.36.82.82 0 0 1 .08-.35.84.84 0 0 1 .2-.29.79.79 0 0 1 .3-.2 1.11 1.11 0 0 1 .37-.07zM45.64 153.3a1.16 1.16 0 0 1 .37.07.84.84 0 0 1 .29.2.72.72 0 0 1 .2.29.82.82 0 0 1 .08.35.86.86 0 0 1-.08.36.72.72 0 0 1-.2.29 1 1 0 0 1-.29.2 1.16 1.16 0 0 1-.37.07 1.11 1.11 0 0 1-.37-.07.93.93 0 0 1-.3-.2.86.86 0 0 1-.21-.29 1 1 0 0 1-.07-.36 1 1 0 0 1 .07-.35.86.86 0 0 1 .21-.29.79.79 0 0 1 .3-.2 1.11 1.11 0 0 1 .37-.07zM54.58 153.3a1 1 0 0 1 .36.07.79.79 0 0 1 .3.2.84.84 0 0 1 .2.29.82.82 0 0 1 .08.35.86.86 0 0 1-.08.36.84.84 0 0 1-.2.29.93.93 0 0 1-.3.2 1 1 0 0 1-.36.07 1.06 1.06 0 0 1-.37-.07 1.1 1.1 0 0 1-.31-.2 1 1 0 0 1-.2-.29.86.86 0 0 1-.07-.36.81.81 0 0 1 .07-.35 1 1 0 0 1 .2-.29.92.92 0 0 1 .31-.2 1.06 1.06 0 0 1 .37-.07zM63.51 153.3a1.06 1.06 0 0 1 .37.07 1 1 0 0 1 .3.2 1 1 0 0 1 .2.29.81.81 0 0 1 .07.35.86.86 0 0 1-.07.36 1 1 0 0 1-.2.29 1.21 1.21 0 0 1-.3.2 1.06 1.06 0 0 1-.37.07 1.16 1.16 0 0 1-.37-.07 1.21 1.21 0 0 1-.3-.2 1 1 0 0 1-.2-.29.86.86 0 0 1-.07-.36.81.81 0 0 1 .07-.35 1 1 0 0 1 .2-.29 1 1 0 0 1 .3-.2 1.16 1.16 0 0 1 .37-.07zM72.45 153.3a1.06 1.06 0 0 1 .37.07 1 1 0 0 1 .3.2 1 1 0 0 1 .2.29.81.81 0 0 1 .07.35.86.86 0 0 1-.07.36 1 1 0 0 1-.2.29 1.21 1.21 0 0 1-.3.2 1.06 1.06 0 0 1-.37.07 1.16 1.16 0 0 1-.37-.07 1.21 1.21 0 0 1-.3-.2 1 1 0 0 1-.2-.29.86.86 0 0 1-.08-.36.82.82 0 0 1 .08-.35 1 1 0 0 1 .2-.29 1 1 0 0 1 .3-.2 1.16 1.16 0 0 1 .37-.07zM81.39 153.3a1.11 1.11 0 0 1 .37.07.84.84 0 0 1 .29.2.86.86 0 0 1 .21.29.81.81 0 0 1 .07.35.84.84 0 0 1-.28.65 1 1 0 0 1-.29.2 1.11 1.11 0 0 1-.37.07 1.16 1.16 0 0 1-.37-.07.93.93 0 0 1-.3-.2.84.84 0 0 1-.2-.29.86.86 0 0 1-.08-.36.82.82 0 0 1 .08-.35.84.84 0 0 1 .2-.29.79.79 0 0 1 .3-.2 1.16 1.16 0 0 1 .37-.07zM90.33 153.3a1.16 1.16 0 0 1 .37.07.84.84 0 0 1 .29.2.72.72 0 0 1 .2.29.82.82 0 0 1 .08.35.86.86 0 0 1-.08.36.72.72 0 0 1-.2.29 1 1 0 0 1-.29.2 1.16 1.16 0 0 1-.37.07 1.11 1.11 0 0 1-.37-.07.93.93 0 0 1-.3-.2.84.84 0 0 1-.28-.65.81.81 0 0 1 .07-.35.86.86 0 0 1 .21-.29.79.79 0 0 1 .3-.2 1.11 1.11 0 0 1 .37-.07zM5.47 146.92a.94.94 0 0 1 .37.07.81.81 0 0 1 .29.19.86.86 0 0 1 .21.29.84.84 0 0 1 .07.35.84.84 0 0 1-.28.65.84.84 0 0 1-.29.2.94.94 0 0 1-.37.07.9.9 0 0 1-.37-.07.79.79 0 0 1-.3-.2.84.84 0 0 1-.2-.29.86.86 0 0 1-.08-.36.85.85 0 0 1 .08-.35.84.84 0 0 1 .2-.29.77.77 0 0 1 .3-.19.9.9 0 0 1 .37-.07zM14.41 146.92a.86.86 0 0 1 .36.07.77.77 0 0 1 .3.19.84.84 0 0 1 .2.29.85.85 0 0 1 .08.35.86.86 0 0 1-.08.36.84.84 0 0 1-.2.29.79.79 0 0 1-.3.2.86.86 0 0 1-.36.07.9.9 0 0 1-.37-.07.79.79 0 0 1-.3-.2.84.84 0 0 1-.28-.65.84.84 0 0 1 .07-.35.86.86 0 0 1 .21-.29.77.77 0 0 1 .26-.18.9.9 0 0 1 .41-.08zM23.35 146.92a.86.86 0 0 1 .36.07.77.77 0 0 1 .3.19.84.84 0 0 1 .2.29.85.85 0 0 1 .08.35.86.86 0 0 1-.08.36.84.84 0 0 1-.2.29.79.79 0 0 1-.3.2.86.86 0 0 1-.36.07.87.87 0 0 1-.37-.07.92.92 0 0 1-.31-.2 1 1 0 0 1-.2-.29.86.86 0 0 1-.07-.36.84.84 0 0 1 .07-.35 1 1 0 0 1 .2-.29.89.89 0 0 1 .33-.18.87.87 0 0 1 .35-.08zM32.28 146.92a.87.87 0 0 1 .37.07 1 1 0 0 1 .3.19 1 1 0 0 1 .2.29.84.84 0 0 1 .07.35.86.86 0 0 1-.07.36 1 1 0 0 1-.2.29 1 1 0 0 1-.3.2.87.87 0 0 1-.37.07.94.94 0 0 1-.37-.07 1 1 0 0 1-.3-.2 1 1 0 0 1-.2-.29.86.86 0 0 1-.07-.36.84.84 0 0 1 .07-.35 1 1 0 0 1 .2-.29 1 1 0 0 1 .3-.19.94.94 0 0 1 .37-.07zM41.22 146.92a.9.9 0 0 1 .37.07 1 1 0 0 1 .3.19 1 1 0 0 1 .2.29.84.84 0 0 1 .07.35.86.86 0 0 1-.07.36 1 1 0 0 1-.2.29 1 1 0 0 1-.3.2.9.9 0 0 1-.37.07.94.94 0 0 1-.37-.07 1 1 0 0 1-.3-.2.84.84 0 0 1-.2-.29.86.86 0 0 1-.08-.36.85.85 0 0 1 .08-.35.84.84 0 0 1 .2-.29 1 1 0 0 1 .3-.19.94.94 0 0 1 .37-.07zM50.16 146.92a.9.9 0 0 1 .37.07.81.81 0 0 1 .29.19.86.86 0 0 1 .21.29.84.84 0 0 1 .07.35.84.84 0 0 1-.28.65.84.84 0 0 1-.29.2 1 1 0 0 1-.74 0 .79.79 0 0 1-.3-.2.84.84 0 0 1-.2-.29.86.86 0 0 1-.08-.36.85.85 0 0 1 .08-.35.84.84 0 0 1 .2-.29.77.77 0 0 1 .3-.19.9.9 0 0 1 .37-.07zM59.1 146.92a.94.94 0 0 1 .37.07.81.81 0 0 1 .29.19.84.84 0 0 1 .2.29.85.85 0 0 1 .08.35.86.86 0 0 1-.08.36 1 1 0 0 1-.49.49.94.94 0 0 1-.37.07.9.9 0 0 1-.37-.07.79.79 0 0 1-.3-.2.84.84 0 0 1-.28-.65.84.84 0 0 1 .07-.35.86.86 0 0 1 .21-.29.77.77 0 0 1 .3-.19.9.9 0 0 1 .37-.07zM68 146.92a1 1 0 0 1 .66.26.84.84 0 0 1 .2.29.85.85 0 0 1 .08.35.86.86 0 0 1-.08.36.84.84 0 0 1-.2.29.88.88 0 0 1-.3.2.86.86 0 0 1-.36.07 1 1 0 0 1-.38-.07 1 1 0 0 1-.3-.2 1 1 0 0 1-.2-.29.86.86 0 0 1-.07-.36.84.84 0 0 1 .07-.35 1 1 0 0 1 .2-.29 1 1 0 0 1 .68-.26zM77 146.92a.87.87 0 0 1 .37.07 1 1 0 0 1 .3.19 1 1 0 0 1 .2.29.84.84 0 0 1 .07.35.86.86 0 0 1-.07.36 1 1 0 0 1-.2.29 1 1 0 0 1-.3.2.87.87 0 0 1-.37.07.94.94 0 0 1-.37-.07 1 1 0 0 1-.3-.2 1 1 0 0 1-.2-.29.86.86 0 0 1-.07-.36.84.84 0 0 1 .07-.35 1 1 0 0 1 .2-.29 1 1 0 0 1 .3-.19.94.94 0 0 1 .37-.07zM85.91 146.92a.9.9 0 0 1 .37.07 1 1 0 0 1 .3.19 1 1 0 0 1 .2.29.84.84 0 0 1 .07.35.86.86 0 0 1-.07.36 1 1 0 0 1-.2.29 1 1 0 0 1-.3.2.9.9 0 0 1-.37.07.94.94 0 0 1-.37-.07 1 1 0 0 1-.3-.2.84.84 0 0 1-.2-.29.86.86 0 0 1-.08-.36.85.85 0 0 1 .08-.35.84.84 0 0 1 .2-.29 1 1 0 0 1 .3-.19.94.94 0 0 1 .37-.07zM1 166.08a.94.94 0 0 1 .37.07 1 1 0 0 1 .29.19.94.94 0 0 1 .2.29.86.86 0 0 1 .08.36.85.85 0 0 1-.08.35.88.88 0 0 1-.2.3 1 1 0 0 1-.29.19.94.94 0 0 1-.37.07.9.9 0 0 1-.37-.07.92.92 0 0 1-.51-.49A.84.84 0 0 1 0 167a.86.86 0 0 1 .07-.36 1 1 0 0 1 .21-.29.91.91 0 0 1 .3-.19.9.9 0 0 1 .42-.08zM9.89 166.08a.86.86 0 0 1 .36.07.91.91 0 0 1 .3.19.94.94 0 0 1 .2.29.86.86 0 0 1 .08.36.85.85 0 0 1-.08.35.88.88 0 0 1-.2.3.91.91 0 0 1-.3.19.86.86 0 0 1-.36.07.87.87 0 0 1-.37-.07 1.08 1.08 0 0 1-.31-.19 1 1 0 0 1-.2-.3.84.84 0 0 1-.07-.35.86.86 0 0 1 .07-.36 1.15 1.15 0 0 1 .2-.29 1.08 1.08 0 0 1 .31-.19.87.87 0 0 1 .37-.07zM18.82 166.08a.87.87 0 0 1 .37.07 1.17 1.17 0 0 1 .3.19 1.15 1.15 0 0 1 .2.29.86.86 0 0 1 .07.36.84.84 0 0 1-.07.35 1 1 0 0 1-.2.3 1.17 1.17 0 0 1-.3.19.87.87 0 0 1-.37.07.94.94 0 0 1-.37-.07 1.17 1.17 0 0 1-.3-.19 1 1 0 0 1-.2-.3.84.84 0 0 1-.07-.35.86.86 0 0 1 .07-.36 1.15 1.15 0 0 1 .2-.29 1.17 1.17 0 0 1 .3-.19.94.94 0 0 1 .37-.07zM27.76 166.08a.9.9 0 0 1 .37.07 1.17 1.17 0 0 1 .3.19 1.15 1.15 0 0 1 .2.29.86.86 0 0 1 .07.36.84.84 0 0 1-.07.35 1 1 0 0 1-.2.3 1.17 1.17 0 0 1-.3.19.9.9 0 0 1-.37.07.94.94 0 0 1-.37-.07 1.17 1.17 0 0 1-.3-.19.88.88 0 0 1-.2-.3.85.85 0 0 1-.08-.35.86.86 0 0 1 .08-.36.94.94 0 0 1 .2-.29 1.17 1.17 0 0 1 .3-.19.94.94 0 0 1 .37-.07zM36.7 166.08a.94.94 0 0 1 .37.07 1 1 0 0 1 .5.48.86.86 0 0 1 .07.36.84.84 0 0 1-.07.35.9.9 0 0 1-.21.3 1 1 0 0 1-.29.19.94.94 0 0 1-.37.07 1 1 0 0 1-.67-.26.88.88 0 0 1-.2-.3.85.85 0 0 1-.08-.35.86.86 0 0 1 .08-.36.94.94 0 0 1 .2-.29 1 1 0 0 1 .67-.26zM45.64 166.08a.94.94 0 0 1 .37.07 1 1 0 0 1 .29.19.8.8 0 0 1 .2.29.86.86 0 0 1 .08.36.85.85 0 0 1-.08.35.75.75 0 0 1-.2.3 1 1 0 0 1-.29.19.94.94 0 0 1-.37.07.94.94 0 0 1-.88-.56.94.94 0 0 1 0-.71 1 1 0 0 1 .21-.29 1 1 0 0 1 .67-.26zM54.58 166.08a.86.86 0 0 1 .36.07.91.91 0 0 1 .3.19.94.94 0 0 1 .2.29.86.86 0 0 1 .08.36.85.85 0 0 1-.08.35.88.88 0 0 1-.2.3.91.91 0 0 1-.3.19.86.86 0 0 1-.36.07.87.87 0 0 1-.37-.07 1.08 1.08 0 0 1-.31-.19 1 1 0 0 1-.2-.3.84.84 0 0 1-.07-.35.86.86 0 0 1 .07-.36 1.15 1.15 0 0 1 .2-.29 1.08 1.08 0 0 1 .31-.19.87.87 0 0 1 .37-.07zM63.51 166.08a.87.87 0 0 1 .37.07 1.17 1.17 0 0 1 .3.19 1.15 1.15 0 0 1 .2.29.86.86 0 0 1 .07.36.84.84 0 0 1-.07.35 1 1 0 0 1-.2.3 1.17 1.17 0 0 1-.3.19.87.87 0 0 1-.37.07.94.94 0 0 1-.37-.07 1.17 1.17 0 0 1-.3-.19 1 1 0 0 1-.2-.3.84.84 0 0 1-.07-.35.86.86 0 0 1 .07-.36 1.15 1.15 0 0 1 .2-.29 1.17 1.17 0 0 1 .3-.19.94.94 0 0 1 .37-.07zM72.45 166.08a.87.87 0 0 1 .37.07 1.17 1.17 0 0 1 .3.19 1.15 1.15 0 0 1 .2.29.86.86 0 0 1 .07.36.84.84 0 0 1-.07.35 1 1 0 0 1-.2.3 1.17 1.17 0 0 1-.3.19.87.87 0 0 1-.37.07.94.94 0 0 1-.37-.07 1.17 1.17 0 0 1-.3-.19 1 1 0 0 1-.2-.3.85.85 0 0 1-.08-.35.86.86 0 0 1 .08-.36 1.15 1.15 0 0 1 .2-.29 1.17 1.17 0 0 1 .3-.19.94.94 0 0 1 .37-.07zM81.39 166.08a.9.9 0 0 1 .37.07 1 1 0 0 1 .5.48.86.86 0 0 1 .07.36.84.84 0 0 1-.07.35.9.9 0 0 1-.21.3 1 1 0 0 1-.29.19.9.9 0 0 1-.37.07.94.94 0 0 1-.37-.07.91.91 0 0 1-.3-.19.88.88 0 0 1-.2-.3.85.85 0 0 1-.08-.35.86.86 0 0 1 .08-.36.94.94 0 0 1 .2-.29.91.91 0 0 1 .3-.19.94.94 0 0 1 .37-.07zM90.33 166.08a.94.94 0 0 1 .37.07 1 1 0 0 1 .29.19.8.8 0 0 1 .2.29.86.86 0 0 1 .08.36.85.85 0 0 1-.08.35.75.75 0 0 1-.2.3 1 1 0 0 1-.29.19.94.94 0 0 1-.37.07.94.94 0 0 1-.88-.56.84.84 0 0 1-.07-.35.86.86 0 0 1 .07-.36 1 1 0 0 1 .21-.29 1 1 0 0 1 .67-.26zM5.47 159.69a.94.94 0 0 1 .37.07 1 1 0 0 1 .5.48.86.86 0 0 1 .07.36.89.89 0 0 1-.07.36.86.86 0 0 1-.21.29.81.81 0 0 1-.29.19.94.94 0 0 1-.37.07.9.9 0 0 1-.37-.07.77.77 0 0 1-.3-.19.84.84 0 0 1-.2-.29.9.9 0 0 1-.08-.36.86.86 0 0 1 .08-.36.94.94 0 0 1 .2-.29 1 1 0 0 1 .67-.26zM14.41 159.69a.86.86 0 0 1 .36.07.91.91 0 0 1 .3.19.94.94 0 0 1 .2.29.86.86 0 0 1 .08.36.9.9 0 0 1-.08.36.84.84 0 0 1-.2.29.77.77 0 0 1-.3.19.86.86 0 0 1-.36.07.9.9 0 0 1-.37-.07.77.77 0 0 1-.3-.19.86.86 0 0 1-.21-.29.89.89 0 0 1-.07-.36.86.86 0 0 1 .07-.36 1 1 0 0 1 .21-.29 1 1 0 0 1 .67-.26zM23.35 159.69a.86.86 0 0 1 .36.07.91.91 0 0 1 .3.19.94.94 0 0 1 .2.29.86.86 0 0 1 .08.36.9.9 0 0 1-.08.36.84.84 0 0 1-.2.29.77.77 0 0 1-.3.19.86.86 0 0 1-.36.07.87.87 0 0 1-.37-.07.89.89 0 0 1-.31-.19 1 1 0 0 1-.2-.29.89.89 0 0 1-.07-.36.86.86 0 0 1 .07-.36 1.15 1.15 0 0 1 .2-.29 1.08 1.08 0 0 1 .31-.19.87.87 0 0 1 .37-.07zM32.28 159.69a.87.87 0 0 1 .37.07 1.17 1.17 0 0 1 .3.19 1.15 1.15 0 0 1 .2.29.86.86 0 0 1 .07.36.89.89 0 0 1-.07.36 1 1 0 0 1-.2.29 1 1 0 0 1-.3.19.87.87 0 0 1-.37.07.94.94 0 0 1-.37-.07 1 1 0 0 1-.3-.19 1 1 0 0 1-.2-.29.89.89 0 0 1-.07-.36.86.86 0 0 1 .07-.36 1.15 1.15 0 0 1 .2-.29 1.17 1.17 0 0 1 .3-.19.94.94 0 0 1 .37-.07zM41.22 159.69a.9.9 0 0 1 .37.07 1.17 1.17 0 0 1 .3.19 1.15 1.15 0 0 1 .2.29.86.86 0 0 1 .07.36.89.89 0 0 1-.07.36 1 1 0 0 1-.2.29 1 1 0 0 1-.3.19.9.9 0 0 1-.37.07.94.94 0 0 1-.37-.07 1 1 0 0 1-.3-.19.84.84 0 0 1-.2-.29.9.9 0 0 1-.08-.36.86.86 0 0 1 .08-.36.94.94 0 0 1 .2-.29 1.17 1.17 0 0 1 .3-.19.94.94 0 0 1 .37-.07zM50.16 159.69a.9.9 0 0 1 .37.07 1 1 0 0 1 .5.48.86.86 0 0 1 .07.36.89.89 0 0 1-.1.4.86.86 0 0 1-.21.29.81.81 0 0 1-.29.19 1 1 0 0 1-.74 0 .77.77 0 0 1-.3-.19.84.84 0 0 1-.2-.29.9.9 0 0 1-.08-.36.86.86 0 0 1 .08-.36.94.94 0 0 1 .2-.29 1 1 0 0 1 .67-.26zM59.1 159.69a.94.94 0 0 1 .37.07 1 1 0 0 1 .29.19.94.94 0 0 1 .2.29.86.86 0 0 1 .08.36.9.9 0 0 1-.04.4.84.84 0 0 1-.2.29.81.81 0 0 1-.29.19.94.94 0 0 1-.37.07.9.9 0 0 1-.37-.07.77.77 0 0 1-.3-.19.86.86 0 0 1-.21-.29.89.89 0 0 1-.07-.36.86.86 0 0 1 .07-.36 1 1 0 0 1 .21-.29 1 1 0 0 1 .67-.26zM68 159.69a.86.86 0 0 1 .36.07 1 1 0 0 1 .3.19.94.94 0 0 1 .2.29.86.86 0 0 1 .08.36.9.9 0 0 1-.08.36.84.84 0 0 1-.2.29 1 1 0 0 1-.66.26 1 1 0 0 1-.68-.26 1 1 0 0 1-.2-.29.89.89 0 0 1-.07-.36.86.86 0 0 1 .07-.36 1.15 1.15 0 0 1 .2-.29 1.17 1.17 0 0 1 .3-.19 1 1 0 0 1 .38-.07zM77 159.69a.87.87 0 0 1 .37.07 1.17 1.17 0 0 1 .3.19 1.15 1.15 0 0 1 .2.29.86.86 0 0 1 .07.36.89.89 0 0 1-.07.36 1 1 0 0 1-.2.29 1 1 0 0 1-.3.19.87.87 0 0 1-.37.07.94.94 0 0 1-.37-.07 1 1 0 0 1-.3-.19 1 1 0 0 1-.2-.29.89.89 0 0 1-.07-.36.86.86 0 0 1 .07-.36 1.15 1.15 0 0 1 .2-.29 1.17 1.17 0 0 1 .3-.19.94.94 0 0 1 .37-.07zM85.91 159.69a.9.9 0 0 1 .37.07 1.17 1.17 0 0 1 .3.19 1.15 1.15 0 0 1 .2.29.86.86 0 0 1 .07.36.89.89 0 0 1-.07.36 1 1 0 0 1-.2.29 1 1 0 0 1-.3.19.9.9 0 0 1-.37.07.94.94 0 0 1-.37-.07 1 1 0 0 1-.3-.19.84.84 0 0 1-.24-.25.9.9 0 0 1-.08-.36.86.86 0 0 1 .08-.36.94.94 0 0 1 .2-.29 1.17 1.17 0 0 1 .3-.19.94.94 0 0 1 .41-.11zM1 178.85a1.16 1.16 0 0 1 .37.07 1 1 0 0 1 .29.2.84.84 0 0 1 .2.29.85.85 0 0 1 .08.35.86.86 0 0 1-.08.36.84.84 0 0 1-.2.29.84.84 0 0 1-.29.2 1.16 1.16 0 0 1-.37.07 1.11 1.11 0 0 1-.37-.07.79.79 0 0 1-.3-.2.84.84 0 0 1-.28-.65.84.84 0 0 1 .07-.35.86.86 0 0 1 .21-.29.93.93 0 0 1 .3-.2 1.11 1.11 0 0 1 .37-.07zM9.89 178.85a1 1 0 0 1 .36.07.93.93 0 0 1 .3.2.84.84 0 0 1 .2.29.85.85 0 0 1 .08.35.86.86 0 0 1-.08.36.84.84 0 0 1-.2.29.79.79 0 0 1-.3.2 1 1 0 0 1-.36.07 1.06 1.06 0 0 1-.37-.07.92.92 0 0 1-.31-.2 1 1 0 0 1-.2-.29.86.86 0 0 1-.07-.36.84.84 0 0 1 .07-.35 1 1 0 0 1 .2-.29 1.1 1.1 0 0 1 .31-.2 1.06 1.06 0 0 1 .37-.07zM18.82 178.85a1.06 1.06 0 0 1 .37.07 1.21 1.21 0 0 1 .3.2 1 1 0 0 1 .2.29.84.84 0 0 1 .07.35.86.86 0 0 1-.07.36 1 1 0 0 1-.2.29 1 1 0 0 1-.3.2 1.06 1.06 0 0 1-.37.07 1.16 1.16 0 0 1-.37-.07 1 1 0 0 1-.3-.2 1 1 0 0 1-.2-.29.86.86 0 0 1-.07-.36.84.84 0 0 1 .07-.35 1 1 0 0 1 .2-.29 1.21 1.21 0 0 1 .3-.2 1.16 1.16 0 0 1 .37-.07zM27.76 178.85a1.11 1.11 0 0 1 .37.07 1.21 1.21 0 0 1 .3.2 1 1 0 0 1 .2.29.84.84 0 0 1 .07.35.86.86 0 0 1-.07.36 1 1 0 0 1-.2.29 1 1 0 0 1-.3.2 1.11 1.11 0 0 1-.37.07 1.16 1.16 0 0 1-.37-.07 1 1 0 0 1-.3-.2.84.84 0 0 1-.2-.29.86.86 0 0 1-.08-.36.85.85 0 0 1 .08-.35.84.84 0 0 1 .2-.29 1.21 1.21 0 0 1 .3-.2 1.16 1.16 0 0 1 .37-.07zM36.7 178.85a1.16 1.16 0 0 1 .37.07 1 1 0 0 1 .29.2.86.86 0 0 1 .21.29.84.84 0 0 1 .07.35.84.84 0 0 1-.28.65.84.84 0 0 1-.29.2 1.16 1.16 0 0 1-.37.07 1.11 1.11 0 0 1-.37-.07.79.79 0 0 1-.3-.2.84.84 0 0 1-.2-.29.86.86 0 0 1-.08-.36.85.85 0 0 1 .08-.35.84.84 0 0 1 .2-.29.93.93 0 0 1 .3-.2 1.11 1.11 0 0 1 .37-.07zM45.64 178.85a1.16 1.16 0 0 1 .37.07 1 1 0 0 1 .29.2.72.72 0 0 1 .2.29.85.85 0 0 1 .08.35.86.86 0 0 1-.08.36.72.72 0 0 1-.2.29.84.84 0 0 1-.29.2 1.16 1.16 0 0 1-.37.07 1.11 1.11 0 0 1-.37-.07.79.79 0 0 1-.3-.2.86.86 0 0 1-.21-.29.94.94 0 0 1 0-.71.86.86 0 0 1 .21-.29.93.93 0 0 1 .3-.2 1.11 1.11 0 0 1 .37-.07zM54.58 178.85a1 1 0 0 1 .36.07.93.93 0 0 1 .3.2.84.84 0 0 1 .2.29.85.85 0 0 1 .08.35.86.86 0 0 1-.08.36.84.84 0 0 1-.2.29.79.79 0 0 1-.3.2 1 1 0 0 1-.36.07 1.06 1.06 0 0 1-.37-.07.92.92 0 0 1-.31-.2 1 1 0 0 1-.2-.29.86.86 0 0 1-.07-.36.84.84 0 0 1 .07-.35 1 1 0 0 1 .2-.29 1.1 1.1 0 0 1 .31-.2 1.06 1.06 0 0 1 .37-.07zM63.51 178.85a1.06 1.06 0 0 1 .37.07 1.21 1.21 0 0 1 .3.2 1 1 0 0 1 .2.29.84.84 0 0 1 .07.35.86.86 0 0 1-.07.36 1 1 0 0 1-.2.29 1 1 0 0 1-.3.2 1.06 1.06 0 0 1-.37.07 1.16 1.16 0 0 1-.37-.07 1 1 0 0 1-.3-.2 1 1 0 0 1-.2-.29.86.86 0 0 1-.07-.36.84.84 0 0 1 .07-.35 1 1 0 0 1 .2-.29 1.21 1.21 0 0 1 .3-.2 1.16 1.16 0 0 1 .37-.07zM72.45 178.85a1.06 1.06 0 0 1 .37.07 1.21 1.21 0 0 1 .3.2 1 1 0 0 1 .2.29.84.84 0 0 1 .07.35.86.86 0 0 1-.07.36 1 1 0 0 1-.2.29 1 1 0 0 1-.3.2 1.06 1.06 0 0 1-.37.07 1.16 1.16 0 0 1-.37-.07 1 1 0 0 1-.3-.2 1 1 0 0 1-.2-.29.86.86 0 0 1-.08-.36.85.85 0 0 1 .08-.35 1 1 0 0 1 .2-.29 1.21 1.21 0 0 1 .3-.2 1.16 1.16 0 0 1 .37-.07zM81.39 178.85a1.11 1.11 0 0 1 .37.07 1 1 0 0 1 .29.2.86.86 0 0 1 .21.29.84.84 0 0 1 .07.35.84.84 0 0 1-.28.65.84.84 0 0 1-.29.2 1.11 1.11 0 0 1-.37.07 1.16 1.16 0 0 1-.37-.07.79.79 0 0 1-.3-.2.84.84 0 0 1-.2-.29.86.86 0 0 1-.08-.36.85.85 0 0 1 .08-.35.84.84 0 0 1 .2-.29.93.93 0 0 1 .3-.2 1.16 1.16 0 0 1 .37-.07zM90.33 178.85a1.16 1.16 0 0 1 .37.07 1 1 0 0 1 .29.2.72.72 0 0 1 .2.29.85.85 0 0 1 .08.35.86.86 0 0 1-.08.36.72.72 0 0 1-.2.29.84.84 0 0 1-.29.2 1.16 1.16 0 0 1-.37.07 1.11 1.11 0 0 1-.37-.07.79.79 0 0 1-.3-.2.84.84 0 0 1-.28-.65.84.84 0 0 1 .07-.35.86.86 0 0 1 .21-.29.93.93 0 0 1 .3-.2 1.11 1.11 0 0 1 .37-.07zM5.47 172.47a.94.94 0 0 1 .37.07.81.81 0 0 1 .29.19.86.86 0 0 1 .21.29.84.84 0 0 1 .07.35.86.86 0 0 1-.07.36.9.9 0 0 1-.21.3 1 1 0 0 1-.29.19.94.94 0 0 1-.37.07 1 1 0 0 1-.67-.29.88.88 0 0 1-.2-.3.86.86 0 0 1-.08-.36.85.85 0 0 1 .08-.34.84.84 0 0 1 .2-.29.77.77 0 0 1 .3-.19.9.9 0 0 1 .37-.05zM14.41 172.47a.86.86 0 0 1 .36.07.77.77 0 0 1 .3.19.84.84 0 0 1 .2.29.85.85 0 0 1 .08.35.86.86 0 0 1-.08.36.88.88 0 0 1-.2.3.91.91 0 0 1-.3.19.86.86 0 0 1-.36.07.94.94 0 0 1-.88-.56.86.86 0 0 1-.07-.36.84.84 0 0 1 .07-.35.86.86 0 0 1 .21-.29.77.77 0 0 1 .3-.19.9.9 0 0 1 .37-.07zM23.35 172.47a.86.86 0 0 1 .36.07.77.77 0 0 1 .3.19.84.84 0 0 1 .2.29.85.85 0 0 1 .08.35.86.86 0 0 1-.08.36.88.88 0 0 1-.2.3.91.91 0 0 1-.3.19.86.86 0 0 1-.36.07.87.87 0 0 1-.37-.07 1.08 1.08 0 0 1-.31-.19 1 1 0 0 1-.2-.3.86.86 0 0 1-.07-.36.84.84 0 0 1 .07-.35 1 1 0 0 1 .2-.29.89.89 0 0 1 .31-.19.87.87 0 0 1 .37-.07zM32.28 172.47a.87.87 0 0 1 .37.07 1 1 0 0 1 .3.19 1 1 0 0 1 .2.29.84.84 0 0 1 .07.35.86.86 0 0 1-.07.36 1 1 0 0 1-.2.3 1.17 1.17 0 0 1-.3.19.87.87 0 0 1-.37.07.94.94 0 0 1-.37-.07 1.17 1.17 0 0 1-.3-.19 1 1 0 0 1-.2-.3.86.86 0 0 1-.07-.36.84.84 0 0 1 .07-.35 1 1 0 0 1 .2-.29 1 1 0 0 1 .3-.19.94.94 0 0 1 .37-.07zM41.22 172.47a.9.9 0 0 1 .37.07 1 1 0 0 1 .3.19 1 1 0 0 1 .2.29.84.84 0 0 1 .07.35.86.86 0 0 1-.07.36 1 1 0 0 1-.2.3 1.17 1.17 0 0 1-.3.19.9.9 0 0 1-.37.07.94.94 0 0 1-.37-.07 1.17 1.17 0 0 1-.3-.19.88.88 0 0 1-.2-.3.86.86 0 0 1-.08-.36.85.85 0 0 1 .08-.35.84.84 0 0 1 .2-.29 1 1 0 0 1 .3-.19.94.94 0 0 1 .37-.07zM50.16 172.47a.9.9 0 0 1 .37.07.81.81 0 0 1 .29.19.86.86 0 0 1 .18.27.84.84 0 0 1 .07.35.86.86 0 0 1-.07.36.9.9 0 0 1-.21.3 1 1 0 0 1-.29.19 1 1 0 0 1-1-.19.88.88 0 0 1-.2-.3.86.86 0 0 1-.08-.36.85.85 0 0 1 .08-.35.84.84 0 0 1 .2-.29.77.77 0 0 1 .3-.19.9.9 0 0 1 .36-.05zM59.1 172.47a.94.94 0 0 1 .37.07.81.81 0 0 1 .29.19.84.84 0 0 1 .2.29.85.85 0 0 1 .08.35.86.86 0 0 1-.08.36.88.88 0 0 1-.2.3 1 1 0 0 1-.29.19.94.94 0 0 1-.37.07.94.94 0 0 1-.88-.56.86.86 0 0 1-.07-.36.84.84 0 0 1 .07-.35.86.86 0 0 1 .21-.29.77.77 0 0 1 .3-.19.9.9 0 0 1 .37-.07zM68 172.47a1 1 0 0 1 .66.26.84.84 0 0 1 .2.29.85.85 0 0 1 .08.35.86.86 0 0 1-.08.36.88.88 0 0 1-.2.3 1 1 0 0 1-.3.19.86.86 0 0 1-.36.07 1 1 0 0 1-.38-.07 1.17 1.17 0 0 1-.3-.19 1 1 0 0 1-.2-.3.86.86 0 0 1-.07-.36.84.84 0 0 1 .07-.35 1 1 0 0 1 .2-.29 1 1 0 0 1 .68-.26zM77 172.47a.87.87 0 0 1 .37.07 1 1 0 0 1 .3.19 1 1 0 0 1 .2.29.84.84 0 0 1 .07.35.86.86 0 0 1-.07.36 1 1 0 0 1-.2.3 1.17 1.17 0 0 1-.3.19.87.87 0 0 1-.37.07.94.94 0 0 1-.37-.07 1.17 1.17 0 0 1-.3-.19 1 1 0 0 1-.2-.3.86.86 0 0 1-.07-.36.84.84 0 0 1 .07-.35 1 1 0 0 1 .2-.29 1 1 0 0 1 .3-.19.94.94 0 0 1 .37-.07zM85.91 172.47a.9.9 0 0 1 .37.07 1 1 0 0 1 .3.19 1 1 0 0 1 .2.29.84.84 0 0 1 .07.35.86.86 0 0 1-.07.36 1 1 0 0 1-.2.3 1.17 1.17 0 0 1-.3.19.9.9 0 0 1-.37.07.94.94 0 0 1-.37-.07 1.17 1.17 0 0 1-.3-.19.88.88 0 0 1-.2-.3.86.86 0 0 1-.08-.36.85.85 0 0 1 .04-.37.84.84 0 0 1 .2-.29 1 1 0 0 1 .3-.19.94.94 0 0 1 .41-.05zM1 191.63a.94.94 0 0 1 .37.07 1 1 0 0 1 .29.19.94.94 0 0 1 .2.29.86.86 0 0 1 .08.36.94.94 0 0 1-.08.36.84.84 0 0 1-.2.29.81.81 0 0 1-.29.19.94.94 0 0 1-.37.07.9.9 0 0 1-.37-.07.77.77 0 0 1-.3-.19.86.86 0 0 1-.21-.29.92.92 0 0 1-.07-.36.86.86 0 0 1 .07-.36 1 1 0 0 1 .21-.29.91.91 0 0 1 .3-.19.9.9 0 0 1 .37-.07zM9.89 191.63a.86.86 0 0 1 .36.07.91.91 0 0 1 .3.19.94.94 0 0 1 .2.29.86.86 0 0 1 .08.36.94.94 0 0 1-.08.36.84.84 0 0 1-.2.29.77.77 0 0 1-.3.19.86.86 0 0 1-.36.07.87.87 0 0 1-.37-.07.89.89 0 0 1-.31-.19 1 1 0 0 1-.2-.29.92.92 0 0 1-.07-.36.86.86 0 0 1 .07-.36 1.15 1.15 0 0 1 .2-.29 1.08 1.08 0 0 1 .31-.19.87.87 0 0 1 .37-.07zM18.82 191.63a.87.87 0 0 1 .37.07 1.17 1.17 0 0 1 .3.19 1.15 1.15 0 0 1 .2.29.86.86 0 0 1 .07.36.92.92 0 0 1-.07.36 1 1 0 0 1-.2.29 1 1 0 0 1-.3.19.87.87 0 0 1-.37.07.94.94 0 0 1-.37-.07 1 1 0 0 1-.3-.19 1 1 0 0 1-.2-.29.92.92 0 0 1-.07-.36.86.86 0 0 1 .07-.36 1.15 1.15 0 0 1 .2-.29 1.17 1.17 0 0 1 .3-.19.94.94 0 0 1 .37-.07zM27.76 191.63a.9.9 0 0 1 .37.07 1.17 1.17 0 0 1 .3.19 1.15 1.15 0 0 1 .2.29.86.86 0 0 1 .07.36.92.92 0 0 1-.07.36 1 1 0 0 1-.2.29 1 1 0 0 1-.3.19.9.9 0 0 1-.37.07.94.94 0 0 1-.37-.07 1 1 0 0 1-.3-.19.84.84 0 0 1-.2-.29.94.94 0 0 1-.08-.36.86.86 0 0 1 .08-.36.94.94 0 0 1 .2-.29 1.17 1.17 0 0 1 .3-.19.94.94 0 0 1 .37-.07zM36.7 191.63a.94.94 0 0 1 .37.07 1 1 0 0 1 .5.48.86.86 0 0 1 .07.36.92.92 0 0 1-.07.36.86.86 0 0 1-.21.29.81.81 0 0 1-.29.19.94.94 0 0 1-.37.07.9.9 0 0 1-.37-.07.77.77 0 0 1-.3-.19.84.84 0 0 1-.2-.29.94.94 0 0 1-.08-.36.86.86 0 0 1 .08-.36.94.94 0 0 1 .2-.29 1 1 0 0 1 .67-.26zM45.64 191.63a.94.94 0 0 1 .37.07 1 1 0 0 1 .29.19.8.8 0 0 1 .2.29.86.86 0 0 1 .08.36.94.94 0 0 1-.08.36.72.72 0 0 1-.2.29.81.81 0 0 1-.29.19.94.94 0 0 1-.37.07.9.9 0 0 1-.37-.07.77.77 0 0 1-.3-.19.86.86 0 0 1-.21-.29 1.15 1.15 0 0 1-.07-.36 1 1 0 0 1 .07-.36 1 1 0 0 1 .21-.29 1 1 0 0 1 .67-.26zM54.58 191.63a.86.86 0 0 1 .36.07.91.91 0 0 1 .3.19.94.94 0 0 1 .2.29.86.86 0 0 1 .08.36.94.94 0 0 1-.08.36.84.84 0 0 1-.2.29.77.77 0 0 1-.3.19.86.86 0 0 1-.36.07.87.87 0 0 1-.37-.07.89.89 0 0 1-.31-.19 1 1 0 0 1-.2-.29.92.92 0 0 1-.07-.36.86.86 0 0 1 .07-.36 1.15 1.15 0 0 1 .2-.29 1.08 1.08 0 0 1 .31-.19.87.87 0 0 1 .37-.07zM63.51 191.63a.87.87 0 0 1 .37.07 1.17 1.17 0 0 1 .3.19 1.15 1.15 0 0 1 .2.29.86.86 0 0 1 .07.36.92.92 0 0 1-.07.36 1 1 0 0 1-.2.29 1 1 0 0 1-.3.19.87.87 0 0 1-.37.07.94.94 0 0 1-.37-.07 1 1 0 0 1-.3-.19 1 1 0 0 1-.2-.29.92.92 0 0 1-.07-.36.86.86 0 0 1 .07-.36 1.15 1.15 0 0 1 .2-.29 1.17 1.17 0 0 1 .3-.19.94.94 0 0 1 .37-.07zM72.45 191.63a.87.87 0 0 1 .37.07 1.17 1.17 0 0 1 .3.19 1.15 1.15 0 0 1 .2.29.86.86 0 0 1 .07.36.92.92 0 0 1-.07.36 1 1 0 0 1-.2.29 1 1 0 0 1-.3.19.87.87 0 0 1-.37.07.94.94 0 0 1-.37-.07 1 1 0 0 1-.3-.19 1 1 0 0 1-.2-.29.94.94 0 0 1-.08-.36.86.86 0 0 1 .08-.36 1.15 1.15 0 0 1 .2-.29 1.17 1.17 0 0 1 .3-.19.94.94 0 0 1 .37-.07zM81.39 191.63a.9.9 0 0 1 .37.07 1 1 0 0 1 .5.48.86.86 0 0 1 .07.36.92.92 0 0 1-.07.36.86.86 0 0 1-.21.29.81.81 0 0 1-.29.19.9.9 0 0 1-.37.07.94.94 0 0 1-.37-.07.77.77 0 0 1-.3-.19.84.84 0 0 1-.2-.29.94.94 0 0 1-.08-.36.86.86 0 0 1 .08-.36.94.94 0 0 1 .2-.29.91.91 0 0 1 .3-.19.94.94 0 0 1 .37-.07zM90.33 191.63a.94.94 0 0 1 .37.07 1 1 0 0 1 .29.19.8.8 0 0 1 .2.29.86.86 0 0 1 .08.36.94.94 0 0 1-.08.36.72.72 0 0 1-.2.29.81.81 0 0 1-.29.19.94.94 0 0 1-.37.07.9.9 0 0 1-.37-.07.77.77 0 0 1-.3-.19.86.86 0 0 1-.21-.29.92.92 0 0 1-.07-.36.86.86 0 0 1 .07-.36 1 1 0 0 1 .21-.29 1 1 0 0 1 .67-.26zM5.47 185.24a1.16 1.16 0 0 1 .37.07.84.84 0 0 1 .29.2.83.83 0 0 1 .21.28.86.86 0 0 1 .07.36.89.89 0 0 1-.07.36.86.86 0 0 1-.21.29.81.81 0 0 1-.29.19.94.94 0 0 1-.37.07.9.9 0 0 1-.37-.06.77.77 0 0 1-.3-.19.84.84 0 0 1-.2-.29.9.9 0 0 1-.08-.36.86.86 0 0 1 .08-.36 1 1 0 0 1 .5-.48 1.11 1.11 0 0 1 .37-.08zM14.41 185.24a1 1 0 0 1 .36.07 1 1 0 0 1 .5.48.86.86 0 0 1 .08.36.9.9 0 0 1-.08.36.84.84 0 0 1-.2.29.77.77 0 0 1-.3.19.86.86 0 0 1-.36.07.9.9 0 0 1-.41-.06.77.77 0 0 1-.3-.19.86.86 0 0 1-.21-.29.89.89 0 0 1-.07-.36.86.86 0 0 1 .07-.36.83.83 0 0 1 .21-.28.79.79 0 0 1 .3-.2 1.11 1.11 0 0 1 .41-.08zM23.35 185.24a1 1 0 0 1 .36.07 1 1 0 0 1 .5.48.86.86 0 0 1 .08.36.9.9 0 0 1-.08.36.84.84 0 0 1-.2.29.77.77 0 0 1-.3.19.86.86 0 0 1-.36.07.87.87 0 0 1-.35-.06.89.89 0 0 1-.31-.19 1 1 0 0 1-.2-.29.89.89 0 0 1-.07-.36.86.86 0 0 1 .07-.36 1 1 0 0 1 .2-.28.92.92 0 0 1 .31-.2 1.06 1.06 0 0 1 .35-.08zM32.28 185.24a1.06 1.06 0 0 1 .37.07 1 1 0 0 1 .3.2 1 1 0 0 1 .2.28.86.86 0 0 1 .07.36.89.89 0 0 1-.07.36 1 1 0 0 1-.2.29 1 1 0 0 1-.3.19.87.87 0 0 1-.37.07.94.94 0 0 1-.37-.07 1 1 0 0 1-.3-.19 1 1 0 0 1-.2-.29.89.89 0 0 1-.07-.36.86.86 0 0 1 .07-.36 1 1 0 0 1 .2-.28 1 1 0 0 1 .3-.2 1.16 1.16 0 0 1 .37-.07zM41.22 185.24a1.11 1.11 0 0 1 .37.07 1 1 0 0 1 .3.2 1 1 0 0 1 .2.28.86.86 0 0 1 .07.36.89.89 0 0 1-.07.36 1 1 0 0 1-.2.29 1 1 0 0 1-.3.19.9.9 0 0 1-.37.07.94.94 0 0 1-.37-.07 1 1 0 0 1-.3-.19.84.84 0 0 1-.2-.29.9.9 0 0 1-.08-.36.86.86 0 0 1 .08-.36.8.8 0 0 1 .2-.28 1 1 0 0 1 .3-.2 1.16 1.16 0 0 1 .37-.07zM50.16 185.24a1.11 1.11 0 0 1 .37.07.84.84 0 0 1 .29.2.83.83 0 0 1 .21.28.86.86 0 0 1 .07.36.89.89 0 0 1-.07.36.86.86 0 0 1-.21.29.81.81 0 0 1-.29.19 1 1 0 0 1-.74 0 .77.77 0 0 1-.3-.19.84.84 0 0 1-.2-.29.9.9 0 0 1-.08-.36.86.86 0 0 1 .08-.36 1 1 0 0 1 .5-.48 1.11 1.11 0 0 1 .37-.07zM59.1 185.24a1.16 1.16 0 0 1 .37.07.84.84 0 0 1 .29.2.8.8 0 0 1 .2.28.86.86 0 0 1 .08.36.9.9 0 0 1-.08.36.84.84 0 0 1-.2.29.81.81 0 0 1-.29.19.94.94 0 0 1-.37.07.9.9 0 0 1-.37-.07.77.77 0 0 1-.3-.19.86.86 0 0 1-.21-.29.89.89 0 0 1-.07-.36.86.86 0 0 1 .07-.36.83.83 0 0 1 .21-.28.79.79 0 0 1 .3-.2 1.11 1.11 0 0 1 .37-.07zM68 185.24a1 1 0 0 1 .36.07.88.88 0 0 1 .3.2.8.8 0 0 1 .2.28.86.86 0 0 1 .08.36.9.9 0 0 1-.08.36.84.84 0 0 1-.2.29 1 1 0 0 1-.66.26 1 1 0 0 1-.68-.26 1 1 0 0 1-.2-.29.89.89 0 0 1-.07-.36.86.86 0 0 1 .07-.36 1 1 0 0 1 .2-.28 1 1 0 0 1 .3-.2 1.17 1.17 0 0 1 .38-.07zM77 185.24a1.06 1.06 0 0 1 .37.07 1 1 0 0 1 .3.2 1 1 0 0 1 .2.28.86.86 0 0 1 .07.36.89.89 0 0 1-.07.36 1 1 0 0 1-.2.29 1 1 0 0 1-.3.19.87.87 0 0 1-.37.07.94.94 0 0 1-.37-.07 1 1 0 0 1-.3-.19 1 1 0 0 1-.2-.29.89.89 0 0 1-.07-.36.86.86 0 0 1 .07-.36 1 1 0 0 1 .2-.28 1 1 0 0 1 .3-.2 1.16 1.16 0 0 1 .37-.07zM85.91 185.24a1.11 1.11 0 0 1 .37.07 1 1 0 0 1 .3.2 1 1 0 0 1 .2.28.86.86 0 0 1 .07.36.89.89 0 0 1-.07.36 1 1 0 0 1-.2.29 1 1 0 0 1-.3.19.9.9 0 0 1-.37.07.94.94 0 0 1-.37-.07 1 1 0 0 1-.3-.19.84.84 0 0 1-.2-.29.9.9 0 0 1-.08-.36.86.86 0 0 1 .08-.36.8.8 0 0 1 .2-.28 1 1 0 0 1 .3-.2 1.16 1.16 0 0 1 .37-.07z"/></g></g></svg>