<svg xmlns="http://www.w3.org/2000/svg" viewBox="0 0 287.71 55.35"><defs><style>.cls-1{fill:#b1a693}</style></defs><g id="Layer_2" data-name="Layer 2"><g id="Layer_1-2" data-name="Layer 1"><path class="cls-1" d="M32.74 35.08a4.88 4.88 0 0 1-4.87 4.61h-.39a4.88 4.88 0 0 1-4.87-4.61h-3.23a8.11 8.11 0 0 0 8.1 7.84h.39A8.11 8.11 0 0 0 36 35.08zM32.74 46.4a4.89 4.89 0 0 1-4.87 4.6h-.39a4.89 4.89 0 0 1-4.87-4.62h-3.23a8.11 8.11 0 0 0 8.1 7.85h.39A8.11 8.11 0 0 0 36 46.4zM32.74 23.75a4.89 4.89 0 0 1-4.87 4.62h-.39a4.89 4.89 0 0 1-4.87-4.62h-3.23a8.11 8.11 0 0 0 8.1 7.85h.39A8.11 8.11 0 0 0 36 23.75zM32.74 12.43A4.88 4.88 0 0 1 27.87 17h-.39a4.88 4.88 0 0 1-4.87-4.61h-3.23a8.11 8.11 0 0 0 8.1 7.84h.39a8.11 8.11 0 0 0 8.13-7.8zM32.74 1.1a4.89 4.89 0 0 1-4.87 4.62h-.39a4.89 4.89 0 0 1-4.87-4.62h-3.23a8.11 8.11 0 0 0 8.1 7.9h.39A8.11 8.11 0 0 0 36 1.1zM3.24 20.27a4.87 4.87 0 0 1 4.86-4.61h.4a4.88 4.88 0 0 1 4.86 4.61h3.24a8.11 8.11 0 0 0-8.1-7.84h-.4A8.11 8.11 0 0 0 0 20.27zM3.24 9A4.87 4.87 0 0 1 8.1 4.33h.4A4.88 4.88 0 0 1 13.36 9h3.24a8.11 8.11 0 0 0-8.1-7.9h-.4A8.11 8.11 0 0 0 0 9zM3.24 31.6A4.87 4.87 0 0 1 8.1 27h.4a4.88 4.88 0 0 1 4.86 4.62h3.24a8.11 8.11 0 0 0-8.1-7.85h-.4A8.11 8.11 0 0 0 0 31.6zM3.24 42.92a4.87 4.87 0 0 1 4.86-4.61h.4a4.88 4.88 0 0 1 4.86 4.61h3.24a8.11 8.11 0 0 0-8.1-7.84h-.4A8.11 8.11 0 0 0 0 42.92zM3.24 54.25a4.87 4.87 0 0 1 4.86-4.62h.4a4.88 4.88 0 0 1 4.86 4.62h3.24a8.11 8.11 0 0 0-8.1-7.85h-.4A8.11 8.11 0 0 0 0 54.25zM42 20.27a4.89 4.89 0 0 1 4.87-4.61h.39a4.89 4.89 0 0 1 4.87 4.61h3.23a8.11 8.11 0 0 0-8.1-7.84h-.39a8.11 8.11 0 0 0-8.1 7.84zM42 9a4.89 4.89 0 0 1 4.87-4.62h.39A4.89 4.89 0 0 1 52.12 9h3.23a8.11 8.11 0 0 0-8.1-7.85h-.39A8.11 8.11 0 0 0 38.76 9zM42 31.6a4.89 4.89 0 0 1 4.86-4.6h.39a4.89 4.89 0 0 1 4.87 4.62h3.23a8.11 8.11 0 0 0-8.1-7.85h-.39a8.11 8.11 0 0 0-8.1 7.85zM42 42.92a4.89 4.89 0 0 1 4.87-4.61h.39a4.89 4.89 0 0 1 4.87 4.61h3.23a8.11 8.11 0 0 0-8.1-7.84h-.39a8.11 8.11 0 0 0-8.1 7.84zM42 54.25a4.89 4.89 0 0 1 4.87-4.62h.39a4.89 4.89 0 0 1 4.87 4.62h3.23a8.11 8.11 0 0 0-8.1-7.85h-.39a8.11 8.11 0 0 0-8.1 7.85zM78.36 32.74a4.89 4.89 0 0 1-4.61-4.87v-.39a4.89 4.89 0 0 1 4.61-4.87v-3.23a8.11 8.11 0 0 0-7.84 8.1v.39A8.11 8.11 0 0 0 78.36 36zM67 32.74a4.89 4.89 0 0 1-4.62-4.87v-.39A4.89 4.89 0 0 1 67 22.61v-3.23a8.11 8.11 0 0 0-7.85 8.1v.39A8.11 8.11 0 0 0 67 36zM89.69 32.74a4.89 4.89 0 0 1-4.62-4.87v-.39a4.89 4.89 0 0 1 4.62-4.87v-3.23a8.11 8.11 0 0 0-7.85 8.1v.39A8.11 8.11 0 0 0 89.69 36zM101 32.74a4.89 4.89 0 0 1-4.61-4.87v-.39a4.89 4.89 0 0 1 4.61-4.87v-3.23a8.11 8.11 0 0 0-7.84 8.1v.39A8.11 8.11 0 0 0 101 36zM112.34 32.74a4.89 4.89 0 0 1-4.62-4.87v-.39a4.89 4.89 0 0 1 4.62-4.87v-3.23a8.1 8.1 0 0 0-7.84 8.1v.39a8.1 8.1 0 0 0 7.84 8.1zM93.17 3.24a4.86 4.86 0 0 1 4.61 4.86v.4a4.87 4.87 0 0 1-4.61 4.86v3.24A8.11 8.11 0 0 0 101 8.5v-.4A8.1 8.1 0 0 0 93.17 0zM104.5 3.24a4.87 4.87 0 0 1 4.61 4.86v.4a4.88 4.88 0 0 1-4.61 4.86v3.24a8.11 8.11 0 0 0 7.84-8.1v-.4A8.11 8.11 0 0 0 104.5 0zM81.84 3.24a4.87 4.87 0 0 1 4.62 4.86v.4a4.88 4.88 0 0 1-4.62 4.86v3.24a8.11 8.11 0 0 0 7.85-8.1v-.4A8.11 8.11 0 0 0 81.84 0zM70.52 3.24a4.86 4.86 0 0 1 4.61 4.86v.4a4.87 4.87 0 0 1-4.61 4.86v3.24a8.11 8.11 0 0 0 7.84-8.1v-.4A8.11 8.11 0 0 0 70.52 0zM59.19 3.24a4.87 4.87 0 0 1 4.62 4.86v.4a4.88 4.88 0 0 1-4.62 4.86v3.24A8.11 8.11 0 0 0 67 8.5v-.4A8.11 8.11 0 0 0 59.19 0zM93.17 42a4.88 4.88 0 0 1 4.61 4.87v.39a4.88 4.88 0 0 1-4.61 4.87v3.23a8.1 8.1 0 0 0 7.84-8.1v-.39a8.1 8.1 0 0 0-7.84-8.1zM104.5 42a4.89 4.89 0 0 1 4.61 4.87v.39a4.89 4.89 0 0 1-4.61 4.87v3.23a8.11 8.11 0 0 0 7.84-8.1v-.39a8.11 8.11 0 0 0-7.84-8.1zM81.84 42a4.89 4.89 0 0 1 4.62 4.87v.39a4.89 4.89 0 0 1-4.62 4.87v3.23a8.11 8.11 0 0 0 7.85-8.1v-.39a8.11 8.11 0 0 0-7.85-8.1zM70.52 42a4.88 4.88 0 0 1 4.61 4.87v.39a4.88 4.88 0 0 1-4.61 4.87v3.23a8.11 8.11 0 0 0 7.84-8.1v-.39a8.11 8.11 0 0 0-7.84-8.1zM59.19 42a4.89 4.89 0 0 1 4.62 4.87v.39a4.89 4.89 0 0 1-4.62 4.87v3.23A8.11 8.11 0 0 0 67 47.25v-.39a8.11 8.11 0 0 0-7.85-8.1zM148.92 35.08a4.88 4.88 0 0 1-4.87 4.61h-.39a4.86 4.86 0 0 1-4.86-4.61h-3.24a8.11 8.11 0 0 0 8.1 7.84h.39a8.1 8.1 0 0 0 8.1-7.84zM148.92 46.4a4.89 4.89 0 0 1-4.87 4.6h-.39a4.87 4.87 0 0 1-4.86-4.62h-3.24a8.11 8.11 0 0 0 8.1 7.85h.39a8.1 8.1 0 0 0 8.1-7.85zM148.92 23.75a4.89 4.89 0 0 1-4.87 4.62h-.39a4.87 4.87 0 0 1-4.86-4.62h-3.24a8.11 8.11 0 0 0 8.1 7.85h.39a8.1 8.1 0 0 0 8.1-7.85zM148.92 12.43a4.88 4.88 0 0 1-4.87 4.57h-.39a4.86 4.86 0 0 1-4.86-4.61h-3.24a8.11 8.11 0 0 0 8.1 7.84h.39a8.1 8.1 0 0 0 8.1-7.84zM148.92 1.1a4.89 4.89 0 0 1-4.87 4.62h-.39a4.87 4.87 0 0 1-4.86-4.62h-3.24a8.11 8.11 0 0 0 8.1 7.9h.39a8.1 8.1 0 0 0 8.1-7.85zM119.42 20.27a4.88 4.88 0 0 1 4.86-4.61h.4a4.88 4.88 0 0 1 4.86 4.61h3.24a8.11 8.11 0 0 0-8.1-7.84h-.4a8.11 8.11 0 0 0-8.1 7.84zM119.42 9a4.88 4.88 0 0 1 4.86-4.62h.4A4.88 4.88 0 0 1 129.54 9h3.24a8.11 8.11 0 0 0-8.1-7.85h-.4a8.11 8.11 0 0 0-8.1 7.85zM119.42 31.6a4.88 4.88 0 0 1 4.86-4.6h.4a4.88 4.88 0 0 1 4.86 4.62h3.24a8.11 8.11 0 0 0-8.1-7.85h-.4a8.11 8.11 0 0 0-8.1 7.85zM119.42 42.92a4.88 4.88 0 0 1 4.86-4.61h.4a4.88 4.88 0 0 1 4.86 4.61h3.24a8.11 8.11 0 0 0-8.1-7.84h-.4a8.11 8.11 0 0 0-8.1 7.84zM119.42 54.25a4.88 4.88 0 0 1 4.86-4.62h.4a4.88 4.88 0 0 1 4.86 4.62h3.24a8.11 8.11 0 0 0-8.1-7.85h-.4a8.11 8.11 0 0 0-8.1 7.85zM158.17 20.27a4.89 4.89 0 0 1 4.83-4.61h.39a4.89 4.89 0 0 1 4.87 4.61h3.23a8.11 8.11 0 0 0-8.1-7.84H163a8.11 8.11 0 0 0-8.1 7.84zM158.17 9A4.89 4.89 0 0 1 163 4.33h.39A4.89 4.89 0 0 1 168.3 9h3.23a8.11 8.11 0 0 0-8.1-7.85H163A8.11 8.11 0 0 0 154.94 9zM158.17 31.6A4.89 4.89 0 0 1 163 27h.39a4.89 4.89 0 0 1 4.87 4.62h3.23a8.11 8.11 0 0 0-8.1-7.85H163a8.11 8.11 0 0 0-8.1 7.85zM158.17 42.92a4.89 4.89 0 0 1 4.83-4.61h.39a4.89 4.89 0 0 1 4.87 4.61h3.23a8.11 8.11 0 0 0-8.1-7.84H163a8.11 8.11 0 0 0-8.1 7.84zM158.17 54.25a4.89 4.89 0 0 1 4.83-4.62h.39a4.89 4.89 0 0 1 4.87 4.62h3.23a8.11 8.11 0 0 0-8.1-7.85H163a8.11 8.11 0 0 0-8.1 7.85zM194.54 32.74a4.89 4.89 0 0 1-4.61-4.87v-.39a4.89 4.89 0 0 1 4.61-4.87v-3.23a8.11 8.11 0 0 0-7.84 8.1v.39a8.11 8.11 0 0 0 7.84 8.1zM183.22 32.74a4.89 4.89 0 0 1-4.62-4.87v-.39a4.89 4.89 0 0 1 4.62-4.87v-3.23a8.1 8.1 0 0 0-7.84 8.1v.39a8.1 8.1 0 0 0 7.84 8.1zM205.87 32.74a4.89 4.89 0 0 1-4.62-4.87v-.39a4.89 4.89 0 0 1 4.62-4.87v-3.23a8.1 8.1 0 0 0-7.84 8.1v.39a8.1 8.1 0 0 0 7.84 8.1zM217.19 32.74a4.89 4.89 0 0 1-4.61-4.87v-.39a4.89 4.89 0 0 1 4.61-4.87v-3.23a8.11 8.11 0 0 0-7.84 8.1v.39a8.11 8.11 0 0 0 7.84 8.1zM228.52 32.74a4.88 4.88 0 0 1-4.61-4.87v-.39a4.88 4.88 0 0 1 4.61-4.87v-3.23a8.1 8.1 0 0 0-7.84 8.1v.39a8.1 8.1 0 0 0 7.84 8.1zM209.35 3.24A4.86 4.86 0 0 1 214 8.1v.4a4.87 4.87 0 0 1-4.61 4.86v3.24a8.11 8.11 0 0 0 7.84-8.1v-.4a8.1 8.1 0 0 0-7.88-8.1zM220.68 3.24a4.87 4.87 0 0 1 4.61 4.86v.4a4.88 4.88 0 0 1-4.61 4.86v3.24a8.11 8.11 0 0 0 7.84-8.1v-.4a8.11 8.11 0 0 0-7.84-8.1zM198 3.24a4.87 4.87 0 0 1 4.61 4.86v.4a4.88 4.88 0 0 1-4.61 4.86v3.24a8.11 8.11 0 0 0 7.84-8.1v-.4A8.11 8.11 0 0 0 198 0zM186.7 3.24a4.86 4.86 0 0 1 4.61 4.86v.4a4.87 4.87 0 0 1-4.61 4.86v3.24a8.11 8.11 0 0 0 7.84-8.1v-.4A8.1 8.1 0 0 0 186.7 0zM175.38 3.24A4.87 4.87 0 0 1 180 8.1v.4a4.88 4.88 0 0 1-4.61 4.86v3.24a8.11 8.11 0 0 0 7.84-8.1v-.4a8.11 8.11 0 0 0-7.85-8.1zM209.35 42a4.88 4.88 0 0 1 4.65 4.86v.39a4.88 4.88 0 0 1-4.61 4.87v3.23a8.1 8.1 0 0 0 7.84-8.1v-.39a8.1 8.1 0 0 0-7.84-8.1zM220.68 42a4.89 4.89 0 0 1 4.61 4.87v.39a4.89 4.89 0 0 1-4.61 4.87v3.23a8.11 8.11 0 0 0 7.84-8.1v-.39a8.11 8.11 0 0 0-7.84-8.1zM198 42a4.89 4.89 0 0 1 4.61 4.87v.39a4.89 4.89 0 0 1-4.61 4.86v3.23a8.11 8.11 0 0 0 7.84-8.1v-.39a8.11 8.11 0 0 0-7.84-8.1zM186.7 42a4.88 4.88 0 0 1 4.61 4.87v.39a4.88 4.88 0 0 1-4.61 4.87v3.23a8.1 8.1 0 0 0 7.84-8.1v-.39a8.1 8.1 0 0 0-7.84-8.1zM175.38 42a4.89 4.89 0 0 1 4.62 4.86v.39a4.89 4.89 0 0 1-4.61 4.87v3.23a8.11 8.11 0 0 0 7.84-8.1v-.39a8.11 8.11 0 0 0-7.84-8.1zM265.1 35.08a4.87 4.87 0 0 1-4.87 4.61h-.39a4.86 4.86 0 0 1-4.84-4.61h-3.24a8.11 8.11 0 0 0 8.1 7.84h.39a8.11 8.11 0 0 0 8.11-7.84zM265.1 46.4a4.88 4.88 0 0 1-4.87 4.6h-.39a4.87 4.87 0 0 1-4.84-4.6h-3.24a8.11 8.11 0 0 0 8.1 7.85h.39a8.12 8.12 0 0 0 8.11-7.85zM265.1 23.75a4.88 4.88 0 0 1-4.87 4.62h-.39a4.87 4.87 0 0 1-4.84-4.62h-3.24a8.11 8.11 0 0 0 8.1 7.85h.39a8.12 8.12 0 0 0 8.11-7.85zM265.1 12.43a4.87 4.87 0 0 1-4.87 4.57h-.39a4.86 4.86 0 0 1-4.84-4.57h-3.24a8.11 8.11 0 0 0 8.1 7.84h.39a8.11 8.11 0 0 0 8.11-7.84zM265.1 1.1a4.88 4.88 0 0 1-4.87 4.62h-.39A4.87 4.87 0 0 1 255 1.1h-3.24a8.11 8.11 0 0 0 8.08 7.9h.39a8.12 8.12 0 0 0 8.11-7.85zM235.6 20.27a4.88 4.88 0 0 1 4.86-4.61h.4a4.88 4.88 0 0 1 4.86 4.61H249a8.11 8.11 0 0 0-8.1-7.84h-.4a8.11 8.11 0 0 0-8.1 7.84zM235.6 9a4.88 4.88 0 0 1 4.86-4.62h.4A4.88 4.88 0 0 1 245.72 9H249a8.11 8.11 0 0 0-8.1-7.85h-.4A8.11 8.11 0 0 0 232.36 9zM235.6 31.6a4.88 4.88 0 0 1 4.86-4.6h.4a4.88 4.88 0 0 1 4.86 4.62H249a8.11 8.11 0 0 0-8.1-7.85h-.4a8.11 8.11 0 0 0-8.1 7.85zM235.6 42.92a4.88 4.88 0 0 1 4.86-4.61h.4a4.88 4.88 0 0 1 4.86 4.61H249a8.11 8.11 0 0 0-8.1-7.84h-.4a8.11 8.11 0 0 0-8.1 7.84zM235.6 54.25a4.88 4.88 0 0 1 4.86-4.62h.4a4.88 4.88 0 0 1 4.86 4.62H249a8.11 8.11 0 0 0-8.1-7.85h-.4a8.11 8.11 0 0 0-8.1 7.85zM274.35 20.27a4.89 4.89 0 0 1 4.87-4.61h.39a4.89 4.89 0 0 1 4.87 4.61h3.23a8.11 8.11 0 0 0-8.1-7.84h-.39a8.11 8.11 0 0 0-8.1 7.84zM274.35 9a4.89 4.89 0 0 1 4.87-4.62h.39A4.89 4.89 0 0 1 284.48 9h3.23a8.11 8.11 0 0 0-8.1-7.85h-.39a8.11 8.11 0 0 0-8.1 7.85zM274.35 31.6a4.89 4.89 0 0 1 4.87-4.6h.39a4.89 4.89 0 0 1 4.87 4.62h3.23a8.11 8.11 0 0 0-8.1-7.85h-.39a8.11 8.11 0 0 0-8.1 7.85zM274.35 42.92a4.89 4.89 0 0 1 4.87-4.61h.39a4.89 4.89 0 0 1 4.87 4.61h3.23a8.11 8.11 0 0 0-8.1-7.84h-.39a8.11 8.11 0 0 0-8.1 7.84zM274.35 54.25a4.89 4.89 0 0 1 4.87-4.62h.39a4.89 4.89 0 0 1 4.87 4.62h3.23a8.11 8.11 0 0 0-8.1-7.85h-.39a8.11 8.11 0 0 0-8.1 7.85z"/></g></g></svg>